<?xml version="1.0" standalone="no"?>
<!DOCTYPE svg PUBLIC "-//W3C//DTD SVG 1.1//EN" "http://www.w3.org/Graphics/SVG/1.1/DTD/svg11.dtd" >
<svg xmlns="http://www.w3.org/2000/svg" xmlns:xlink="http://www.w3.org/1999/xlink" version="1.1">
<metadata>
Created by FontForge 20170731 at Mon May  2 11:15:51 2022
 By Aleksey,,,
Copyright 2018 Fatype, Anton Koovit and Yassin Baggar. All rights reserved.
</metadata>
<defs>
<font id="BatonTurbo-Book" horiz-adv-x="540" >
  <font-face 
    font-family="Baton Turbo Book"
    font-weight="450"
    font-stretch="normal"
    units-per-em="2048"
    panose-1="2 11 5 3 3 2 2 6 2 3"
    ascent="1638"
    descent="-410"
    x-height="1008"
    cap-height="1434"
    bbox="-307 -487 2779 2275"
    underline-thickness="176"
    underline-position="-530"
    unicode-range="U+000D-FB04"
  />
<missing-glyph horiz-adv-x="1126" 
d="M102 0v1434h922v-1434h-922zM205 102h717v1229h-717v-1229z" />
    <glyph glyph-name="ff" unicode="ff" horiz-adv-x="1298" 
d="M416 1182v-174h411v139q0 171 91 252q80 80 221 80q190 0 278 -107l-123 -129q-57 57 -133 57q-56 0 -91.5 -34.5t-35.5 -108.5v-149h236v-177h-236v-831h-207v831h-411v-831h-207v831h-156v177h156v159q0 159 82 238q77 74 209 74q116 0 207 -68l-91 -151
q-47 38 -100 38q-44 0 -72 -27t-28 -89z" />
    <glyph glyph-name="fi" unicode="fi" horiz-adv-x="1202" 
d="M416 1171v-163h620v-1008h-209v831h-411v-831h-207v831h-156v177h156v153q0 167 84 242q76 76 213 76q104 0 180 -35l-59 -170q-60 24 -97 24q-51 0 -82.5 -31t-31.5 -96zM932 1194q-56 0 -93.5 38t-37.5 93q0 57 37.5 94t93.5 37t93.5 -37t37.5 -94q0 -55 -37.5 -93
t-93.5 -38z" />
    <glyph glyph-name="fl" unicode="fl" horiz-adv-x="1202" 
d="M651 831h-235v-831h-207v831h-156v177h156v153q0 167 84 242q76 76 213 76q104 0 180 -35l-59 -170q-60 24 -97 24q-51 0 -82.5 -31t-31.5 -96v-163h235v-177zM827 0v1470h209v-1470h-209z" />
    <glyph glyph-name="f_f_i" unicode="ffi" horiz-adv-x="1820" 
d="M1034 1171v-163h621v-1008h-209v831h-412v-831h-207v831h-411v-831h-207v831h-156v177h156v159q0 159 82 238q77 74 209 74q116 0 207 -68l-91 -151q-47 38 -100 38q-44 0 -72 -27t-28 -89v-174h411v153q0 167 84 242q76 76 213 76q105 0 181 -35l-60 -170q-60 24 -96 24
q-51 0 -83 -31t-32 -96zM1550 1194q-56 0 -93.5 38t-37.5 93q0 57 37.5 94t93.5 37t93.5 -37t37.5 -94q0 -55 -37.5 -93t-93.5 -38z" />
    <glyph glyph-name="f_f_l" unicode="ffl" horiz-adv-x="1820" 
d="M416 1182v-174h411v153q0 167 84 242q76 76 213 76q105 0 181 -35l-60 -170q-60 24 -96 24q-51 0 -83 -31t-32 -96v-163h236v-177h-236v-831h-207v831h-411v-831h-207v831h-156v177h156v159q0 159 82 238q77 74 209 74q115 0 196 -62l-82 -155q-42 36 -100 36
q-98 0 -98 -116zM1446 0v1470h209v-1470h-209z" />
    <glyph glyph-name="f_j" unicode="fj" horiz-adv-x="1202" 
d="M416 1171v-163h620v-1127q0 -146 -81.5 -220.5t-215.5 -74.5q-81 0 -151.5 34.5t-108.5 94.5l135 123q43 -69 113 -69q44 0 72 28t28 82v952h-411v-831h-207v831h-156v177h156v153q0 167 84 242q76 76 213 76q104 0 180 -35l-59 -170q-60 24 -97 24q-51 0 -82.5 -31
t-31.5 -96zM932 1194q-56 0 -93.5 38t-37.5 93q0 57 37.5 94t93.5 37t93.5 -37t37.5 -94q0 -55 -37.5 -93t-93.5 -38z" />
    <glyph glyph-name="f_b" unicode="fb" horiz-adv-x="1869" 
d="M651 831h-235v-831h-207v831h-156v177h156v153q0 167 84 242q76 76 213 76q104 0 180 -35l-59 -170q-60 24 -97 24q-51 0 -82.5 -31t-31.5 -96v-163h235v-177zM1782 508q0 -235 -128.5 -381.5t-322.5 -146.5q-99 0 -178 37.5t-129 105.5v-123h-197v1470h209v-559
q111 121 293 121q196 0 324.5 -143.5t128.5 -380.5zM1036 455q1 -134 78 -209.5t191 -75.5t189 90.5t75 247.5q0 156 -75 246t-191 90q-101 0 -185 -72q-79 -70 -82 -213v-104z" />
    <glyph glyph-name=".notdef" horiz-adv-x="1126" 
d="M102 0v1434h922v-1434h-922zM205 102h717v1229h-717v-1229z" />
    <glyph glyph-name=".null" horiz-adv-x="0" 
 />
    <glyph glyph-name="nonmarkingreturn" horiz-adv-x="682" 
 />
    <glyph glyph-name="NULL" horiz-adv-x="1024" 
 />
    <glyph glyph-name="NULL" horiz-adv-x="1024" 
 />
    <glyph glyph-name="CR" unicode="&#xd;" horiz-adv-x="1024" 
 />
    <glyph glyph-name="space" unicode=" " horiz-adv-x="503" 
 />
    <glyph glyph-name="exclam" unicode="!" horiz-adv-x="602" 
d="M215 428l-29 1006h230l-29 -1006h-172zM301 -23q-57 0 -99 42t-42 102q0 57 42 99t99 42q59 0 100 -41.5t41 -99.5q0 -60 -40.5 -102t-100.5 -42z" />
    <glyph glyph-name="quotedbl" unicode="&#x22;" horiz-adv-x="819" 
d="M150 946l-31 488h213l-29 -488h-153zM516 946l-31 488h213l-28 -488h-154z" />
    <glyph glyph-name="numbersign" unicode="#" horiz-adv-x="1480" 
d="M743 0l64 299h-293l-63 -299h-191l64 299h-261l37 176h260l84 402h-260l39 176h258l64 299h190l-63 -299h293l63 299h191l-64 -299h262l-39 -176h-260l-84 -402h260l-37 -176h-260l-63 -299h-191zM551 475h293l84 402h-293z" />
    <glyph glyph-name="dollar" unicode="$" horiz-adv-x="1269" 
d="M1161 387q0 -164 -121 -270q-123 -104 -307 -119v-207h-145v205q-442 40 -473 473l211 18q7 -140 78.5 -217.5t183.5 -91.5v424l-43 8q-369 72 -369 379q0 157 113 258q116 104 299 119v197h145v-199q189 -21 302.5 -130.5t113.5 -285.5l-205 -22q0 116 -56.5 179
t-154.5 77v-408l23 -4q207 -42 306 -137.5t99 -245.5zM387 997q0 -70 44.5 -115.5t156.5 -74.5v377q-90 -14 -145.5 -64t-55.5 -123zM950 373q0 143 -217 198v-393q96 14 156.5 65t60.5 130z" />
    <glyph glyph-name="percent" unicode="%" horiz-adv-x="2037" 
d="M483 629q-155 0 -258 112q-104 113 -104 303q0 192 104 302q107 110 258 110q156 0 260 -110q105 -111 105 -302q0 -190 -107 -303q-103 -112 -258 -112zM483 797q80 0 130.5 66t50.5 181q0 112 -51.5 178t-129.5 66t-128 -65t-50 -179t50.5 -180.5t127.5 -66.5z
M1552 -20q-155 0 -258 112q-104 113 -104 303q0 191 104 301q108 111 258 111q155 0 260 -111t105 -301t-107 -303q-103 -112 -258 -112zM1552 147q80 0 130.5 66.5t50.5 181.5q0 112 -51.5 178t-129.5 66t-128 -65t-50 -179t50.5 -181t127.5 -67zM451 80l989 1380l145 -104
l-989 -1381z" />
    <glyph glyph-name="ampersand" unicode="&#x26;" horiz-adv-x="1376" 
d="M1294 109l-145 -134l-166 177q-175 -175 -428 -175q-206 0 -334 113q-127 115 -127 287q0 251 291 411q-79 89 -114 161.5t-35 152.5q0 151 110 252q110 104 281 104q162 0 278 -96q113 -94 113 -248q0 -56 -14.5 -102.5t-36 -80.5t-66 -71t-85 -64t-111.5 -69l264 -278
q78 140 147 315l180 -72q-107 -258 -190 -385zM440 1098q0 -55 31 -106t107 -130q132 70 183.5 119t51.5 125q0 75 -51 122.5t-137 47.5q-84 0 -134.5 -52.5t-50.5 -125.5zM307 383q0 -94 71 -156.5t191 -62.5q167 0 287 123l-344 364q-205 -100 -205 -268z" />
    <glyph glyph-name="quotesingle" unicode="'" horiz-adv-x="450" 
d="M150 946l-31 488h213l-29 -488h-153z" />
    <glyph glyph-name="parenleft" unicode="(" horiz-adv-x="700" 
d="M528 -342q-187 187 -300 460.5t-113 567.5q0 273 114 546.5t299 463.5l150 -123q-149 -173 -248 -402q-102 -234 -102 -485q0 -267 102 -504q98 -227 248 -401z" />
    <glyph glyph-name="parenright" unicode=")" horiz-adv-x="700" 
d="M172 1696q187 -187 300.5 -461t113.5 -567q0 -273 -114.5 -546.5t-299.5 -463.5l-149 123q147 170 247 399q103 239 103 488q0 264 -103 503q-100 232 -247 402z" />
    <glyph glyph-name="asterisk" unicode="*" horiz-adv-x="935" 
d="M299 694l-123 92l170 238l-287 94l47 146l285 -93v299h154v-296l284 90l48 -144l-281 -90l176 -244l-125 -90l-174 242z" />
    <glyph glyph-name="plus" unicode="+" horiz-adv-x="1196" 
d="M1092 614h-398v-419h-192v419h-398v181h398v409h192v-409h398v-181z" />
    <glyph glyph-name="comma" unicode="," horiz-adv-x="542" 
d="M414 111q0 -117 -62 -232q-64 -119 -131 -203l-110 84q5 7 29.5 42t33 48t25.5 40t27 48.5t18 43.5q-49 7 -81 47t-32 92q0 58 41 99.5t100 41.5t100.5 -42t41.5 -109z" />
    <glyph glyph-name="hyphen" unicode="-" horiz-adv-x="761" 
d="M82 453v180h598v-180h-598z" />
    <glyph glyph-name="period" unicode="." horiz-adv-x="542" 
d="M272 -23q-60 0 -100.5 42t-40.5 102q0 58 41 99.5t100 41.5q57 0 99.5 -42t42.5 -99q0 -59 -42 -101.5t-100 -42.5z" />
    <glyph glyph-name="slash" unicode="/" horiz-adv-x="860" 
d="M37 -123l579 1679h209l-581 -1679h-207z" />
    <glyph glyph-name="zero" unicode="0" horiz-adv-x="1329" 
d="M664 -23q-249 0 -399 189.5t-150 554.5q0 183 42.5 326t118 231.5t174 134t214.5 45.5q120 0 219.5 -45t174.5 -133.5t117 -231.5t42 -327t-42.5 -328t-118 -234t-175 -136t-217.5 -46zM664 180q156 0 241.5 141t85.5 400t-86.5 396.5t-240.5 137.5t-240 -137t-86 -397
q0 -257 86.5 -399t239.5 -142z" />
    <glyph glyph-name="one" unicode="1" horiz-adv-x="825" 
d="M639 1434v-1434h-217v1176l-342 -181l-19 209l428 230h150z" />
    <glyph glyph-name="two" unicode="2" horiz-adv-x="1128" 
d="M1018 195v-195h-936v154l551 571q93 96 128.5 163.5t35.5 143.5q0 95 -65.5 159t-168.5 64q-113 0 -178.5 -65t-73.5 -174h-215q9 194 140 319q132 123 327 123q106 0 194 -33.5t145 -91.5t88.5 -134.5t31.5 -162.5q0 -111 -53.5 -214.5t-175.5 -225.5l-406 -401h631z
" />
    <glyph glyph-name="three" unicode="3" horiz-adv-x="1163" 
d="M1063 408q0 -182 -142.5 -305t-355.5 -123q-214 0 -350 118q-138 120 -147 305h215q18 -101 91.5 -164t190.5 -63t195 68t78 172t-80 171.5t-203 67.5h-178v189h182q116 0 184 60t68 153q0 91 -68.5 148t-173.5 57q-106 0 -174 -52t-78 -145h-213q17 184 148 288.5
t319 104.5q207 0 334 -111.5t127 -279.5q0 -102 -55.5 -185t-142.5 -122q103 -45 166 -136.5t63 -215.5z" />
    <glyph glyph-name="four" unicode="4" horiz-adv-x="1169" 
d="M1106 336h-197v-336h-209v336h-639v139l488 959h229l-467 -908h391v285h207v-285h197v-190z" />
    <glyph glyph-name="five" unicode="5" horiz-adv-x="1169" 
d="M1073 453q0 -103 -39.5 -192.5t-107.5 -151.5t-160.5 -97t-196.5 -35q-194 0 -319 101q-125 102 -160 252l203 59q20 -98 96.5 -156.5t181.5 -58.5q123 0 202 78t79 199q0 118 -80.5 197t-202.5 79q-142 0 -252 -117h-188l82 824h801v-195h-615l-43 -385q101 70 240 70
q216 0 347.5 -134.5t131.5 -336.5z" />
    <glyph glyph-name="six" unicode="6" horiz-adv-x="1224" 
d="M1128 449q0 -132 -67 -241t-180.5 -170t-249.5 -61q-139 0 -269 68q-128 70 -192 244q-57 140 -57 373q0 273 49 421q54 154 135 238q72 74 161.5 105.5t205.5 31.5q167 0 290.5 -83.5t167.5 -231.5l-198 -66q-31 87 -101 135t-164 48q-139 0 -215 -91
q-55 -60 -81.5 -157.5t-34.5 -263.5q44 75 132.5 118t198.5 43q207 0 338 -133t131 -327zM633 174q118 0 197 76t79 192q0 117 -82 193q-81 78 -194 78q-114 0 -193 -76q-80 -77 -80 -195q0 -114 76 -191t197 -77z" />
    <glyph glyph-name="seven" unicode="7" horiz-adv-x="1026" 
d="M969 1272l-561 -1272h-242l553 1239h-668v195h918v-162z" />
    <glyph glyph-name="eight" unicode="8" horiz-adv-x="1183" 
d="M1081 401q0 -180 -139 -302t-350 -122q-215 0 -352.5 121t-137.5 303q0 111 56.5 204t154.5 151q-80 51 -126 130.5t-46 176.5q0 168 130 281.5t321 113.5q196 0 324 -113t128 -282q0 -97 -46 -175.5t-128 -129.5q98 -56 154.5 -149.5t56.5 -207.5zM592 1266
q-108 0 -174 -61.5t-66 -151.5q0 -88 69 -148.5t171 -60.5q107 0 175.5 60t68.5 149q0 90 -68 151.5t-176 61.5zM592 170q124 0 199 70.5t75 173.5q0 102 -76.5 171.5t-197.5 69.5q-122 0 -199 -71q-76 -70 -76 -170q0 -99 76 -172q78 -72 199 -72z" />
    <glyph glyph-name="nine" unicode="9" horiz-adv-x="1224" 
d="M928 115q-133 -138 -367 -138q-167 0 -291 84t-168 232l199 65q31 -87 100.5 -134.5t163.5 -47.5q140 0 215 90q55 60 82 158.5t35 263.5q-44 -75 -133 -118.5t-199 -43.5q-207 0 -338 133.5t-131 327.5q0 132 67 240.5t181 169.5t250 61q142 0 268 -69q129 -67 193 -242
q57 -140 57 -373q0 -278 -51 -424q-49 -148 -133 -235zM592 1262q-118 0 -197.5 -76.5t-79.5 -192.5q0 -117 80 -194q82 -76 197 -76q113 0 192 76q80 77 80 194q0 115 -75.5 192t-196.5 77z" />
    <glyph glyph-name="colon" unicode=":" horiz-adv-x="579" 
d="M291 -23q-60 0 -100.5 42t-40.5 102q0 58 41 99.5t100 41.5q57 0 99 -42t42 -99q0 -60 -42 -102t-99 -42zM291 748q-60 0 -100.5 41.5t-40.5 101.5q0 58 41 99.5t100 41.5q57 0 99 -42t42 -99q0 -59 -42 -101t-99 -42z" />
    <glyph glyph-name="semicolon" unicode=";" horiz-adv-x="579" 
d="M432 111q0 -119 -61 -232q-64 -119 -131 -203l-111 84q5 7 29.5 42t33 48t25.5 40t27 48.5t18 43.5q-49 7 -80.5 47t-31.5 92q0 58 41 99.5t100 41.5t100 -42t41 -109zM291 748q-60 0 -100.5 41.5t-40.5 101.5q0 58 41 99.5t100 41.5q57 0 99 -42t42 -99q0 -59 -42 -101
t-99 -42z" />
    <glyph glyph-name="less" unicode="&#x3c;" horiz-adv-x="993" 
d="M879 412v-209l-781 381v182l781 381v-199l-568 -268z" />
    <glyph glyph-name="equal" unicode="=" horiz-adv-x="1191" 
d="M133 836v176h926v-176h-926zM133 393v176h926v-176h-926z" />
    <glyph glyph-name="greater" unicode="&#x3e;" horiz-adv-x="993" 
d="M895 584l-780 -381v198l567 269l-567 268v209l780 -381v-182z" />
    <glyph glyph-name="question" unicode="?" horiz-adv-x="1048" 
d="M358 428v90q0 100 14.5 155.5t44 86t89.5 59.5l67 35q170 87 170 221q0 83 -64 139t-163 56q-105 0 -173.5 -64.5t-74.5 -173.5l-207 19q7 186 135.5 296.5t319.5 110.5q204 0 322 -106q123 -108 123 -275q0 -130 -65 -215.5t-189 -146.5l-78 -39q-35 -19 -49.5 -47.5
t-14.5 -93.5v-107h-207zM461 -23q-57 0 -98 42t-41 102q0 57 41 99t98 42q59 0 100 -41.5t41 -99.5q0 -60 -40.5 -102t-100.5 -42z" />
    <glyph glyph-name="at" unicode="@" horiz-adv-x="1886" 
d="M1417 -221q-207 -127 -471 -127q-174 0 -330 66t-269.5 180t-180 276.5t-66.5 347.5q0 247 109.5 447t305 314t437.5 114q179 0 335 -65t265 -176t171.5 -264t62.5 -325q0 -68 -15 -136t-46.5 -130.5t-76 -110.5t-108.5 -77t-139 -29q-82 0 -145.5 35t-100.5 94
q-91 -123 -246 -123q-167 0 -278 116.5t-111 315.5q0 101 33.5 183.5t88 133.5t121 78t136.5 27q138 0 219 -94l6 86h181v-565q0 -56 29 -88.5t73 -32.5q92 0 145 90q52 88 52 217q0 188 -81 341t-231 243t-340 90q-194 0 -348 -93t-238.5 -254.5t-84.5 -361.5
q0 -150 51.5 -281t140 -223t211.5 -145t262 -53q214 0 393 106zM721 522q0 -117 59 -182.5t148 -65.5q59 0 109.5 38t74.5 108v192q-20 66 -71 107t-113 41q-92 0 -149.5 -64.5t-57.5 -173.5z" />
    <glyph glyph-name="A" unicode="A" horiz-adv-x="1351" 
d="M1083 0l-170 492h-483l-172 -492h-223l514 1434h254l514 -1434h-234zM670 1217l-183 -533h367l-182 533h-2z" />
    <glyph glyph-name="B" unicode="B" horiz-adv-x="1294" 
d="M1194 436q0 -208 -138.5 -322t-379.5 -114h-500v1434h520q205 0 326 -95t121 -260q0 -96 -49 -171.5t-129 -114.5q103 -40 166 -133.5t63 -223.5zM395 1247v-370h336q82 0 137.5 50.5t55.5 135.5q0 100 -72 141q-70 43 -158 43h-299zM395 186h295q126 0 204.5 67.5
t78.5 186.5q0 124 -82.5 189t-212.5 65h-283v-508z" />
    <glyph glyph-name="C" unicode="C" horiz-adv-x="1454" 
d="M762 -20q-140 0 -263 54.5t-212.5 151t-141 235.5t-51.5 302q0 157 51.5 294t140.5 233.5t212 152t262 55.5q220 0 377 -106t223 -312l-211 -61q-35 110 -127 190q-96 84 -262 84q-128 0 -229 -72t-155 -192.5t-54 -265.5q0 -151 54.5 -273.5t156 -194t229.5 -71.5
q171 0 274 103q104 104 131 252l217 -39q-20 -123 -78.5 -222.5t-142 -164t-186.5 -99t-215 -34.5z" />
    <glyph glyph-name="D" unicode="D" horiz-adv-x="1415" 
d="M176 0v1434h481q132 0 252.5 -50t211.5 -138.5t145.5 -221.5t54.5 -289q0 -168 -53.5 -308.5t-144.5 -232.5t-210 -143t-251 -51h-486zM395 195h262q184 0 310.5 149t126.5 391q0 148 -61.5 264.5t-162 178t-219.5 61.5h-256v-1044z" />
    <glyph glyph-name="E" unicode="E" horiz-adv-x="1230" 
d="M1135 195v-195h-959v1434h952v-195h-733v-334h682v-194h-682v-516h740z" />
    <glyph glyph-name="F" unicode="F" horiz-adv-x="1116" 
d="M993 692h-598v-692h-219v1434h879v-195h-660v-352h598v-195z" />
    <glyph glyph-name="G" unicode="G" horiz-adv-x="1503" 
d="M1409 631q0 -199 -87.5 -349t-231 -226t-320.5 -76q-144 0 -268.5 54t-214.5 150t-141.5 235.5t-51.5 303.5q0 213 87 381t240.5 261t346.5 93q216 0 379 -100q166 -100 231 -307l-209 -66q-35 112 -140.5 190t-260.5 78q-199 0 -322.5 -151t-123.5 -379
q0 -236 124.5 -388.5t323.5 -152.5q159 0 271.5 86.5t138.5 229.5h-392v190h621v-57z" />
    <glyph glyph-name="H" unicode="H" horiz-adv-x="1501" 
d="M1106 0v750h-711v-750h-219v1434h219v-490h711v490h219v-1434h-219z" />
    <glyph glyph-name="I" unicode="I" horiz-adv-x="571" 
d="M176 0v1434h219v-1434h-219z" />
    <glyph glyph-name="J" unicode="J" horiz-adv-x="1064" 
d="M467 -18q-187 0 -305 104.5t-144 304.5l211 41q31 -248 242 -248q92 0 152.5 64.5t60.5 187.5v998h219v-998q0 -216 -120.5 -335t-315.5 -119z" />
    <glyph glyph-name="K" unicode="K" horiz-adv-x="1316" 
d="M1044 0l-462 807l-187 -178v-629h-219v1434h219v-549l582 549h293l-516 -478l549 -956h-259z" />
    <glyph glyph-name="L" unicode="L" horiz-adv-x="1091" 
d="M176 0v1434h219v-1239h654v-195h-873z" />
    <glyph glyph-name="M" unicode="M" horiz-adv-x="1671" 
d="M393 1102v-1102h-217v1434h221l443 -543l440 543h215v-1434h-217v1104l-399 -481h-88z" />
    <glyph glyph-name="N" unicode="N" horiz-adv-x="1497" 
d="M1110 0l-719 1053v-1053h-215v1434h211l721 -1061v1061h213v-1434h-211z" />
    <glyph glyph-name="O" unicode="O" horiz-adv-x="1546" 
d="M772 -20q-143 0 -267.5 53.5t-215.5 149t-143 235.5t-52 305q0 157 51.5 294t141 233.5t215.5 152t270 55.5q194 0 349.5 -93.5t243 -261.5t87.5 -380q0 -164 -53 -304t-144.5 -235.5t-216.5 -149.5t-266 -54zM772 184q200 0 326.5 153t126.5 386q0 146 -55.5 266
t-159.5 192t-238 72q-133 0 -236.5 -71t-158.5 -191.5t-55 -267.5q0 -152 56 -274.5t159.5 -193.5t234.5 -71z" />
    <glyph glyph-name="P" unicode="P" horiz-adv-x="1189" 
d="M707 637h-312v-637h-219v1434h539q185 0 305 -105q121 -103 121 -293q0 -97 -33.5 -173.5t-93 -125.5t-137.5 -74.5t-170 -25.5zM395 1239v-405h297q103 0 162 54t59 146t-61.5 148.5t-161.5 56.5h-295z" />
    <glyph glyph-name="Q" unicode="Q" horiz-adv-x="1546" 
d="M1448 68l-137 -136l-154 166q-169 -118 -385 -118q-143 0 -267.5 53.5t-215.5 149t-143 235.5t-52 305q0 157 51.5 294t141 233.5t215.5 152t270 55.5q194 0 349.5 -93.5t243 -261.5t87.5 -380q0 -292 -158 -494zM322 723q0 -152 56 -274.5t159.5 -193.5t234.5 -71
q124 0 238 72l-265 274l134 132l258 -271q88 139 88 332q0 146 -55.5 266t-159.5 192t-238 72q-133 0 -236.5 -71t-158.5 -191.5t-55 -267.5z" />
    <glyph glyph-name="R" unicode="R" horiz-adv-x="1288" 
d="M1008 0l-377 649h-238v-649h-217v1434h559q185 0 308.5 -105.5t123.5 -279.5q0 -171 -112 -283q-67 -67 -185 -98l394 -668h-256zM393 1239v-397h330q98 0 157.5 53t59.5 152q0 88 -63 140t-160 52h-324z" />
    <glyph glyph-name="S" unicode="S" horiz-adv-x="1232" 
d="M618 -20q-108 0 -200.5 28.5t-169.5 88t-125.5 161.5t-56.5 238l215 18q12 -171 105 -258.5t235 -87.5q122 0 208 60t86 161q0 95 -75.5 154.5t-225.5 103.5l-127 39q-186 57 -269 146.5t-83 230.5q0 172 135.5 283.5t347.5 111.5q219 0 357.5 -114t142.5 -302v-16
l-213 -20v12q-3 136 -88 194q-85 60 -199 60q-117 0 -192.5 -55.5t-75.5 -143.5q0 -74 54 -117t198 -88l131 -39q209 -63 306.5 -165t97.5 -261q0 -188 -147 -305.5t-372 -117.5z" />
    <glyph glyph-name="T" unicode="T" horiz-adv-x="1177" 
d="M1137 1239h-439v-1239h-219v1239h-438v195h1096v-195z" />
    <glyph glyph-name="U" unicode="U" horiz-adv-x="1404" 
d="M702 -20q-245 0 -394.5 144.5t-149.5 405.5v904h219v-897q0 -164 88.5 -258.5t236.5 -94.5q149 0 237.5 94t88.5 257v899h219v-902q0 -262 -151 -407t-394 -145z" />
    <glyph glyph-name="V" unicode="V" horiz-adv-x="1294" 
d="M522 0l-487 1434h229l383 -1176h6l385 1176h222l-488 -1434h-250z" />
    <glyph glyph-name="W" unicode="W" horiz-adv-x="1773" 
d="M1171 0l-284 803l-287 -803h-225l-328 1434h219l252 -1131l299 852h148l299 -856l252 1135h210l-329 -1434h-226z" />
    <glyph glyph-name="X" unicode="X" horiz-adv-x="1257" 
d="M983 0l-356 590l-361 -590h-246l469 756l-430 678h254l316 -512l321 512h248l-430 -666l469 -768h-254z" />
    <glyph glyph-name="Y" unicode="Y" horiz-adv-x="1171" 
d="M1163 1434l-469 -715v-719h-219v721l-467 713h260l324 -508l323 508h248z" />
    <glyph glyph-name="Z" unicode="Z" horiz-adv-x="1185" 
d="M1120 195v-195h-1061v141l772 1098h-731v195h1014v-142l-770 -1097h776z" />
    <glyph glyph-name="bracketleft" unicode="[" horiz-adv-x="737" 
d="M176 -317v1923h520v-170h-313v-1583h313v-170h-520z" />
    <glyph glyph-name="backslash" unicode="\" horiz-adv-x="862" 
d="M616 -123l-579 1679h209l579 -1679h-209z" />
    <glyph glyph-name="bracketright" unicode="]" horiz-adv-x="737" 
d="M561 1606v-1923h-520v170h313v1583h-313v170h520z" />
    <glyph glyph-name="asciicircum" unicode="^" horiz-adv-x="1046" 
d="M766 811l-248 426l-248 -426h-213l373 623h186l373 -623h-223z" />
    <glyph glyph-name="underscore" unicode="_" horiz-adv-x="884" 
d="M20 -209v146h844v-146h-844z" />
    <glyph glyph-name="grave" unicode="`" horiz-adv-x="548" 
d="M287 1157l-205 289v4h231l144 -289v-4h-170z" />
    <glyph glyph-name="a" unicode="a" horiz-adv-x="1085" 
d="M717 92q-134 -108 -285 -108q-65 0 -125.5 21t-108.5 59t-77 98t-29 131q0 126 86 201.5t275 126.5l276 71q-6 78 -64.5 121t-148.5 43q-84 0 -145 -37.5t-92 -105.5l-177 73q49 119 165.5 183.5t262.5 64.5q173 0 289 -90q115 -89 115 -274v-670h-201l-2 104zM299 303
q0 -69 51.5 -108t118.5 -39q56 0 104 19t109 67l47 32v256l-201 -53q-124 -34 -176.5 -71t-52.5 -103z" />
    <glyph glyph-name="b" unicode="b" horiz-adv-x="1208" 
d="M1120 508q0 -236 -128 -382t-322 -146q-99 0 -178.5 37.5t-129.5 105.5v-123h-196v1470h209v-559q111 121 293 121q196 0 324 -143.5t128 -380.5zM375 455q1 -134 77.5 -209.5t190.5 -75.5t189 90.5t75 247.5q0 156 -75 246t-191 90q-100 0 -184 -72q-79 -70 -82 -213
v-104z" />
    <glyph glyph-name="c" unicode="c" horiz-adv-x="1071" 
d="M567 -20q-95 0 -181 35.5t-154 100.5t-108 167t-40 225q0 99 26.5 184.5t73 147t108 106t132 66.5t145.5 22q162 0 276 -77t159 -209l-185 -74q-70 172 -248 172q-113 0 -194.5 -89.5t-81.5 -248.5t81.5 -249.5t194.5 -90.5q93 0 159 52t99 147l185 -74
q-49 -152 -167 -232.5t-280 -80.5z" />
    <glyph glyph-name="d" unicode="d" horiz-adv-x="1208" 
d="M844 0v117q-50 -60 -130.5 -98.5t-174.5 -38.5q-195 0 -323 145t-128 383q0 235 128.5 379.5t322.5 144.5q189 0 295 -119v557h208v-1470h-198zM301 508q0 -157 75 -247.5t189 -90.5q103 0 185 70q81 69 84 215v106q-1 132 -78 207.5t-191 75.5t-189 -90t-75 -246z" />
    <glyph glyph-name="e" unicode="e" horiz-adv-x="1110" 
d="M1018 205q-57 -104 -172 -163.5t-262 -59.5q-214 0 -357 143t-143 387q0 117 37.5 215.5t102.5 165.5t153.5 104t189.5 37q201 0 324.5 -127.5t134.5 -343.5q4 -82 4 -96h-737q3 -145 90 -229q90 -84 209 -84q88 0 162 40.5t116 114.5zM563 862q-105 0 -180.5 -63
t-85.5 -176h520q-11 116 -82.5 177.5t-171.5 61.5z" />
    <glyph glyph-name="f" unicode="f" horiz-adv-x="679" 
d="M651 831h-235v-831h-207v831h-156v177h156v139q0 171 90 252q80 80 221 80q191 0 279 -107l-123 -129q-57 57 -133 57q-56 0 -91.5 -34.5t-35.5 -108.5v-149h235v-177z" />
    <glyph glyph-name="g" unicode="g" horiz-adv-x="1052" 
d="M969 -113q0 -136 -116 -217.5t-312 -81.5h-70q-182 0 -301 70t-119 205q0 85 54.5 145t150.5 90q-74 46 -74 121q0 92 105 150q-84 46 -132.5 124.5t-48.5 180.5q0 107 56 189.5t146.5 124.5t199.5 42q40 0 124 -11t167 -11h207v-162l-158 2q53 -82 53 -174
q0 -163 -112 -261t-281 -98q-70 0 -99.5 -23t-29.5 -52q0 -67 119 -70l151 -6q157 -6 238.5 -81t81.5 -196zM301 674q0 -87 58 -140t147 -53t146 53t57 140q0 84 -57.5 137t-145.5 53q-89 0 -147 -53t-58 -137zM475 -250h70q109 0 167 34t58 95t-51 93t-150 32h-92
q-229 -3 -229 -129q0 -61 60.5 -93t166.5 -32z" />
    <glyph glyph-name="h" unicode="h" horiz-adv-x="1191" 
d="M618 844q-80 0 -145.5 -50t-97.5 -137v-657h-209v1470h209v-593q98 155 299 155q167 0 266.5 -104t99.5 -305v-623h-206v594q0 125 -57 187.5t-159 62.5z" />
    <glyph glyph-name="i" unicode="i" 
d="M270 1194q-56 0 -93.5 38t-37.5 93q0 57 37.5 94t93.5 37t93.5 -37t37.5 -94q0 -55 -37.5 -93t-93.5 -38zM166 0v1008h209v-1008h-209z" />
    <glyph glyph-name="j" unicode="j" 
d="M270 1194q-56 0 -93.5 38t-37.5 93q0 57 37.5 94t93.5 37t93.5 -37t37.5 -94q0 -55 -37.5 -93t-93.5 -38zM375 1008v-1127q0 -146 -81.5 -220.5t-215.5 -74.5q-81 0 -151.5 34.5t-108.5 94.5l135 123q43 -69 113 -69q44 0 72 28t28 82v1129h209z" />
    <glyph glyph-name="k" unicode="k" horiz-adv-x="1085" 
d="M817 0l-319 551l-127 -117v-434h-205v1470h205v-808l401 346h279l-394 -332l402 -676h-242z" />
    <glyph glyph-name="l" unicode="l" 
d="M166 0v1470h209v-1470h-209z" />
    <glyph glyph-name="m" unicode="m" horiz-adv-x="1792" 
d="M602 842q-79 0 -140 -49t-87 -136v-657h-209v1008h209v-117q99 139 282 139q101 0 178 -42.5t121 -123.5q50 76 134 121t192 45q166 0 263 -104t97 -301v-625h-208v596q0 119 -50.5 182.5t-146.5 63.5q-81 0 -142.5 -52.5t-86.5 -140.5v-24v-625h-207v596
q0 119 -51 182.5t-148 63.5z" />
    <glyph glyph-name="n" unicode="n" horiz-adv-x="1191" 
d="M618 844q-80 0 -145.5 -50t-97.5 -137v-657h-209v1008h209v-131q98 155 299 155q167 0 266.5 -104t99.5 -305v-623h-206v594q0 125 -57 187.5t-159 62.5z" />
    <glyph glyph-name="o" unicode="o" horiz-adv-x="1155" 
d="M578 -20q-211 0 -352.5 146.5t-141.5 381.5q0 119 39 218.5t106.5 166.5t157.5 104t191 37q211 0 353 -144.5t142 -381.5q0 -117 -39 -216.5t-106 -167.5t-158 -106t-192 -38zM578 166q124 0 203 92.5t79 249.5q0 155 -80.5 246.5t-201.5 91.5q-123 0 -203 -90.5
t-80 -247.5q0 -156 80.5 -249t202.5 -93z" />
    <glyph glyph-name="p" unicode="p" horiz-adv-x="1208" 
d="M670 -20q-186 0 -295 122v-491h-209v1397h196v-117q46 63 127.5 102t178.5 39q196 0 324 -143.5t128 -380.5q0 -236 -128 -382t-322 -146zM375 455q1 -134 77.5 -209.5t190.5 -75.5t189 90.5t75 247.5q0 156 -75 246t-191 90q-100 0 -184 -72q-79 -70 -82 -213v-104z" />
    <glyph glyph-name="q" unicode="q" horiz-adv-x="1208" 
d="M1042 1008v-1397h-208v491q-49 -56 -126.5 -89t-168.5 -33q-195 0 -323 145t-128 383q0 235 128.5 379.5t322.5 144.5q197 0 305 -133v109h198zM301 508q0 -157 75 -247.5t189 -90.5q103 0 185 70q81 69 84 215v106q-1 132 -78 207.5t-191 75.5t-189 -90t-75 -246z" />
    <glyph glyph-name="r" unicode="r" horiz-adv-x="772" 
d="M551 827q-59 0 -104.5 -39.5t-71.5 -99.5v-688h-209v1008h209v-117q35 59 90 96t125 37q99 0 170 -49l-80 -189q-59 41 -129 41z" />
    <glyph glyph-name="s" unicode="s" horiz-adv-x="976" 
d="M496 -20q-161 0 -276.5 71.5t-158.5 214.5l179 62q32 -88 98.5 -135.5t157.5 -47.5q86 0 141 35.5t55 100.5q0 35 -17 60t-51.5 41t-71 25t-89.5 17q-156 27 -256 88q-101 64 -101 211q0 142 110 227.5t278 85.5q157 0 256.5 -69t136.5 -185l-178 -57q-49 147 -215 147
q-85 0 -137 -39t-52 -102q0 -71 66 -92q70 -23 159 -37q152 -27 258 -92q105 -65 105 -219q0 -142 -113 -226.5t-284 -84.5z" />
    <glyph glyph-name="t" unicode="t" horiz-adv-x="751" 
d="M727 84q-87 -100 -248 -100q-130 0 -207 72.5t-77 224.5v550h-154v177h156v290h202v-290h297v-177h-297v-534q0 -72 31.5 -103.5t81.5 -31.5q61 0 115 51z" />
    <glyph glyph-name="u" unicode="u" horiz-adv-x="1179" 
d="M805 0v131q-48 -68 -123 -109.5t-172 -41.5q-161 0 -259.5 100t-98.5 293v635h206v-605q0 -118 57.5 -176.5t153.5 -58.5q75 0 139.5 49t96.5 133v658h209v-1008h-209z" />
    <glyph glyph-name="v" unicode="v" horiz-adv-x="997" 
d="M975 1008l-379 -1008h-197l-379 1008h211l271 -752l272 752h201z" />
    <glyph glyph-name="w" unicode="w" horiz-adv-x="1378" 
d="M903 0l-215 508l-213 -508h-162l-272 1008h205l182 -693l182 447h166l178 -447l187 693h196l-272 -1008h-162z" />
    <glyph glyph-name="x" unicode="x" horiz-adv-x="1001" 
d="M743 0l-245 381l-248 -381h-223l342 514l-334 494h231l238 -357l233 357h224l-328 -488l342 -520h-232z" />
    <glyph glyph-name="y" unicode="y" horiz-adv-x="958" 
d="M944 1008l-598 -1397h-209l242 563l-363 834h217l254 -607l246 607h211z" />
    <glyph glyph-name="z" unicode="z" horiz-adv-x="933" 
d="M860 176v-176h-788v115l510 716h-498v177h768v-115l-510 -717h518z" />
    <glyph glyph-name="braceleft" unicode="{" horiz-adv-x="737" 
d="M666 -317q-3 0 -48.5 -1t-85.5 -1q-274 0 -274 292v506l-10 74l-166 29v125l166 28l10 74v506q0 293 274 293q40 0 85.5 -1t48.5 -1v-170q-116 0 -157.5 -30t-41.5 -124v-489q0 -102 -80 -148q80 -46 80 -149v-490q0 -94 41.5 -123.5t157.5 -29.5v-170z" />
    <glyph glyph-name="bar" unicode="|" horiz-adv-x="581" 
d="M190 -287v1803h201v-1803h-201z" />
    <glyph glyph-name="braceright" unicode="}" horiz-adv-x="737" 
d="M479 -27q0 -292 -274 -292q-40 0 -85 1t-48 1v170q116 0 157 29.5t41 123.5v490q0 101 80 147q-80 46 -80 150v489q0 94 -41 124t-157 30v170q3 0 48 1t85 1q274 0 274 -293v-506l10 -74l166 -28v-125l-166 -29l-10 -74v-506z" />
    <glyph glyph-name="asciitilde" unicode="~" horiz-adv-x="1130" 
d="M762 467q-50 0 -98 18.5t-84 45t-69.5 53t-68 45t-65.5 18.5q-52 0 -89 -41t-44 -114l-156 24q8 127 82 216t199 89q61 0 120.5 -28t97.5 -61t83.5 -61t83.5 -28q52 0 89 41.5t44 114.5l155 -25q-5 -128 -79 -217.5t-201 -89.5z" />
    <glyph glyph-name="exclamdown" unicode="&#xa1;" horiz-adv-x="602" 
d="M301 1034q59 0 100 -41.5t41 -99.5q0 -60 -40.5 -101.5t-100.5 -41.5q-57 0 -99 42t-42 101q0 57 42 99t99 42zM387 584l29 -973h-230l29 973h172z" />
    <glyph glyph-name="cent" unicode="&#xa2;" horiz-adv-x="1175" 
d="M1079 299q-44 -131 -145 -209.5t-242 -91.5v-207h-145v209q-87 13 -162 53t-133.5 104t-92.5 158.5t-34 206.5t34 205.5t93 157t134 103t161 52.5v205h145v-203q139 -13 237 -86t140 -186l-180 -72q-64 137 -197 160v-676q144 26 207 187zM334 522q0 -134 60 -221
t153 -115v668q-94 -26 -153.5 -112t-59.5 -220z" />
    <glyph glyph-name="sterling" unicode="&#xa3;" horiz-adv-x="1226" 
d="M1118 180v-180h-977v180h125q82 44 127 112.5t45 149.5q0 75 -61 185h-238v170h150q-43 101 -43 192q0 179 126 293.5t310 114.5q194 0 313 -113q123 -111 129 -287l-211 -4q-2 94 -65.5 153.5t-163.5 59.5q-102 0 -162.5 -59.5t-60.5 -157.5q0 -81 51 -192h379v-170
h-291q47 -96 47 -174q0 -83 -37 -155.5t-92 -117.5h600z" />
    <glyph glyph-name="yen" unicode="&#xa5;" horiz-adv-x="1292" 
d="M1077 223h-325v-223h-211v223h-326v158h326v151h-326v158h307l-450 682h254l327 -510l328 510h242l-451 -682h305v-158h-325v-151h325v-158z" />
    <glyph glyph-name="brokenbar" unicode="&#xa6;" horiz-adv-x="581" 
d="M190 778v738h201v-738h-201zM190 -287v779h201v-779h-201z" />
    <glyph glyph-name="section" unicode="&#xa7;" horiz-adv-x="1148" 
d="M965 27q0 -151 -118 -244.5t-286 -93.5q-204 0 -334 106q-130 109 -133 332l191 18q2 -131 74.5 -208.5t205.5 -77.5q86 0 145.5 42.5t59.5 114.5q0 80 -68 121q-66 42 -174 88l-153 66q-131 59 -194.5 133t-63.5 180q0 102 66 174t159 103q-127 97 -127 241
q0 150 111.5 245t271.5 95q179 0 282 -99.5t103 -246.5q0 -6 -0.5 -11.5t-1 -8.5t-0.5 -4l-178 -21v25q-1 96 -56.5 146t-148.5 50q-81 0 -135.5 -43t-54.5 -116q0 -34 12 -59t42 -47t60.5 -37.5t87.5 -39.5l150 -63q151 -63 220 -140t69 -192q0 -102 -61 -170.5
t-154 -103.5q71 -53 101 -113t30 -141zM629 387q4 -1 13 -5t13 -5q89 14 141 58t52 110q0 53 -37.5 90.5t-116.5 71.5l-182 79q-90 -14 -143.5 -56.5t-53.5 -106.5q0 -55 39.5 -96t120.5 -74z" />
    <glyph glyph-name="dieresis" unicode="&#xa8;" horiz-adv-x="876" 
d="M238 1198q-50 0 -83.5 34t-33.5 83t33.5 83t83.5 34q49 0 82.5 -33.5t33.5 -83.5t-33.5 -83.5t-82.5 -33.5zM639 1198q-48 0 -82.5 34t-34.5 83t34.5 83t82.5 34q50 0 84.5 -34t34.5 -83t-34.5 -83t-84.5 -34z" />
    <glyph glyph-name="copyright" unicode="&#xa9;" horiz-adv-x="1720" 
d="M860 -25q-202 0 -373.5 99.5t-271.5 271t-100 373.5q0 101 27 197t75 177.5t117 149.5t150.5 116t178 74.5t197.5 26.5q202 0 373 -99t271 -269.5t100 -372.5q0 -203 -100 -374t-271 -270.5t-373 -99.5zM860 123q122 0 231.5 47t188 127t124.5 190t46 232
q0 162 -78 298.5t-214 216t-298 79.5q-161 0 -297 -79.5t-214.5 -216t-78.5 -298.5t78.5 -299.5t214.5 -217t297 -79.5zM864 313q-155 0 -263.5 111.5t-108.5 300.5q0 183 108.5 291t263.5 108q123 0 214 -62.5t126 -172.5l-153 -49q-26 59 -74.5 95t-112.5 36
q-83 0 -144 -66.5t-61 -179.5q0 -122 60.5 -190t144.5 -68q140 0 193 166l160 -39q-31 -137 -125.5 -209t-227.5 -72z" />
    <glyph glyph-name="ordfeminine" unicode="&#xaa;" horiz-adv-x="817" 
d="M518 805q-93 -68 -194 -68q-94 0 -168 56q-72 57 -72 151q0 86 60.5 138t191.5 83l190 49q-6 43 -43 67t-94 24q-111 0 -153 -86l-146 53q32 83 117.5 131.5t193.5 48.5q137 0 218 -65t81 -185v-454h-168v67zM258 958q0 -36 31.5 -57.5t72.5 -21.5q61 0 132 43l32 20v145
l-131 -32q-74 -20 -105.5 -40.5t-31.5 -56.5z" />
    <glyph glyph-name="guillemotleft" unicode="&#xab;" horiz-adv-x="1183" 
d="M457 61l-387 451l389 453l131 -115l-289 -334l291 -338zM944 61l-387 451l389 453l131 -115l-289 -334l291 -338z" />
    <glyph glyph-name="registered" unicode="&#xae;" horiz-adv-x="1134" 
d="M567 549q-189 0 -320.5 131t-131.5 321q0 189 131.5 321t320.5 132t321 -131.5t132 -321.5q0 -189 -132 -320.5t-321 -131.5zM567 641q147 0 250 106t103 254q0 150 -103 255.5t-250 105.5t-249.5 -105.5t-102.5 -255.5q0 -149 102.5 -254.5t249.5 -105.5zM651 772
l-102 186h-45v-186h-105v465h193q65 0 109 -38t44 -99q0 -46 -24 -79.5t-62 -47.5l115 -201h-123zM504 1149v-105h71q27 0 43.5 14t16.5 40q0 24 -17.5 37.5t-44.5 13.5h-69z" />
    <glyph glyph-name="overscore" unicode="&#xaf;" horiz-adv-x="727" 
d="M119 1233v145h491v-145h-491z" />
    <glyph glyph-name="degree" unicode="&#xb0;" horiz-adv-x="755" 
d="M379 893q-118 0 -203 82q-84 84 -84 199q0 114 84 198q87 84 203 84q117 0 201 -84t84 -198q0 -115 -84 -199q-82 -82 -201 -82zM379 1028q62 0 102.5 42t40.5 104t-40.5 103.5t-102.5 41.5t-102.5 -42t-40.5 -103t40.5 -103.5t102.5 -42.5z" />
    <glyph glyph-name="plusminus" unicode="&#xb1;" horiz-adv-x="1196" 
d="M1092 743h-398v-348h-192v348h-398v181h398v338h192v-338h398v-181zM104 51v180h988v-180h-988z" />
    <glyph glyph-name="twosuperior" unicode="&#xb2;" horiz-adv-x="716" 
d="M655 758v-142h-604v113l350 340q46 43 63 73t17 62q0 45 -33 73t-88 28q-56 0 -90 -32.5t-34 -84.5h-168q0 116 82.5 188t211.5 72q128 0 209.5 -70.5t81.5 -171.5q0 -58 -25 -106.5t-93 -114.5l-246 -227h366z" />
    <glyph glyph-name="threesuperior" unicode="&#xb3;" horiz-adv-x="743" 
d="M676 848q0 -94 -82 -170q-80 -74 -234 -74q-142 0 -228 68t-87 184h168q1 -54 41 -85.5t104 -31.5t104 32t40 87q0 57 -48.5 88t-121.5 31h-92v133h84q82 0 121.5 29.5t39.5 77.5q0 44 -33 70t-90 26q-56 0 -92.5 -30t-36.5 -77h-165q0 105 85 173.5t214 68.5
q133 0 211.5 -63t78.5 -158q0 -59 -35.5 -104.5t-95.5 -71.5q70 -26 110 -78t40 -125z" />
    <glyph glyph-name="acute" unicode="&#xb4;" horiz-adv-x="548" 
d="M92 1157v4l144 289h231v-4l-205 -289h-170z" />
    <glyph glyph-name="paragraph" unicode="&#xb6;" horiz-adv-x="1230" 
d="M602 1268v-1268h-186v725q-141 9 -240 111q-96 104 -96 241q0 149 106 252q108 105 273 105h710v-166h-180v-1268h-188v1268h-199z" />
    <glyph glyph-name="middot" unicode="&#xb7;" horiz-adv-x="501" 
d="M252 510q-60 0 -100.5 41.5t-40.5 101.5q0 58 41 100t100 42q57 0 99 -42.5t42 -99.5q0 -59 -41.5 -101t-99.5 -42z" />
    <glyph glyph-name="cedilla" unicode="&#xb8;" horiz-adv-x="575" 
d="M246 -436q-89 0 -156 22l31 117q67 -25 121 -25q39 0 63.5 17.5t24.5 48.5q0 30 -27 48t-72 18q-16 0 -44.5 -4t-34.5 -5l51 236h121l-35 -125q78 -2 130 -45t52 -121q0 -89 -62 -135.5t-163 -46.5z" />
    <glyph glyph-name="onesuperior" unicode="&#xb9;" 
d="M248 616v625l-203 -88l-12 158l284 123h103v-818h-172z" />
    <glyph glyph-name="ordmasculine" unicode="&#xba;" horiz-adv-x="870" 
d="M434 733q-156 0 -260 98t-104 261q0 164 106 261t258 97q157 0 263 -96t106 -262q0 -162 -107 -260.5t-262 -98.5zM434 897q80 0 131 52.5t51 142.5q0 89 -52 141.5t-130 52.5t-129 -51.5t-51 -142.5q0 -90 51.5 -142.5t128.5 -52.5z" />
    <glyph glyph-name="guillemotright" unicode="&#xbb;" horiz-adv-x="1183" 
d="M727 965l387 -451l-389 -453l-131 115l289 334l-291 338zM240 965l387 -451l-389 -453l-132 115l289 334l-291 338z" />
    <glyph glyph-name="onequarter" unicode="&#xbc;" horiz-adv-x="1802" 
d="M279 80l989 1380l145 -104l-989 -1381zM303 616v625l-203 -88l-12 158l285 123h102v-818h-172zM1716 195h-135v-195h-160v195h-403v108l297 514h178l-287 -485h217v155h158v-155h135v-137z" />
    <glyph glyph-name="onehalf" unicode="&#xbd;" horiz-adv-x="1832" 
d="M303 616v625l-203 -88l-12 158l285 123h102v-818h-172zM1714 141v-141h-604v113l350 340q46 43 63 73t17 62q0 45 -33 72.5t-88 27.5q-56 0 -90.5 -32.5t-34.5 -84.5h-168q0 116 83 188t212 72q128 0 209.5 -70t81.5 -171q0 -58 -25.5 -106.5t-93.5 -114.5l-245 -228h366
zM279 80l989 1380l145 -104l-989 -1381z" />
    <glyph glyph-name="threequarters" unicode="&#xbe;" horiz-adv-x="1943" 
d="M733 848q0 -94 -82 -170q-80 -74 -233 -74q-142 0 -228.5 68t-87.5 184h168q1 -53 41.5 -85t104.5 -32t103.5 32t39.5 87q0 57 -48.5 88t-121.5 31h-92v133h84q82 0 122 29.5t40 77.5q0 44 -33 70t-90 26q-56 0 -92.5 -30t-36.5 -77h-166q0 105 85 173.5t214 68.5
q133 0 212 -63t79 -158q0 -59 -35.5 -104.5t-95.5 -71.5q69 -25 109 -77.5t40 -125.5zM420 80l989 1380l145 -104l-989 -1381zM1858 195h-136v-195h-159v195h-404v108l297 514h178l-286 -485h217v155h157v-155h136v-137z" />
    <glyph glyph-name="questiondown" unicode="&#xbf;" horiz-adv-x="1048" 
d="M588 1034q57 0 99 -42t42 -99q0 -59 -41.5 -101t-99.5 -42q-60 0 -101 41.5t-41 101.5q0 58 41.5 99.5t100.5 41.5zM692 584v-80q0 -96 -14 -149.5t-44 -84t-91 -59.5l-68 -35q-86 -47 -127 -95t-41 -114q0 -80 64.5 -134t163.5 -54q103 0 171 60.5t74 166.5l209 -16
q-5 -124 -67.5 -216t-163 -138t-223.5 -46q-198 0 -324 105q-123 105 -123 270q0 126 65.5 206.5t190.5 143.5l76 39q37 20 51 46.5t14 86.5v97h207z" />
    <glyph glyph-name="Agrave" unicode="&#xc0;" horiz-adv-x="1351" 
d="M1083 0l-170 492h-483l-172 -492h-223l514 1434h254l514 -1434h-234zM670 1217l-183 -533h367l-182 533h-2zM606 1567l-205 288v5h232l143 -289v-4h-170z" />
    <glyph glyph-name="Aacute" unicode="&#xc1;" horiz-adv-x="1351" 
d="M1083 0l-170 492h-483l-172 -492h-223l514 1434h254l514 -1434h-234zM670 1217l-183 -533h367l-182 533h-2zM580 1567v4l143 289h231v-5l-204 -288h-170z" />
    <glyph glyph-name="Acircumflex" unicode="&#xc2;" horiz-adv-x="1351" 
d="M1083 0l-170 492h-483l-172 -492h-223l514 1434h254l514 -1434h-234zM670 1217l-183 -533h367l-182 533h-2zM393 1540v162l285 162l280 -162v-162l-284 148z" />
    <glyph glyph-name="Atilde" unicode="&#xc3;" horiz-adv-x="1351" 
d="M1083 0l-170 492h-483l-172 -492h-223l514 1434h254l514 -1434h-234zM670 1217l-183 -533h367l-182 533h-2zM786 1587q-43 0 -84.5 20.5t-75.5 41t-57 20.5q-56 0 -67 -74l-123 21q2 86 53.5 143.5t130.5 57.5q42 0 83 -21t75 -42t59 -21q31 0 47.5 21t18.5 52l125 -18
q-2 -87 -54 -144t-131 -57z" />
    <glyph glyph-name="Adieresis" unicode="&#xc4;" horiz-adv-x="1351" 
d="M1083 0l-170 492h-483l-172 -492h-223l514 1434h254l514 -1434h-234zM670 1217l-183 -533h367l-182 533h-2zM475 1608q-50 0 -83.5 33.5t-33.5 82.5q0 50 34 83.5t83 33.5t83 -33.5t34 -83.5q0 -49 -33.5 -82.5t-83.5 -33.5zM877 1608q-48 0 -82.5 33.5t-34.5 82.5
t34.5 83t82.5 34q50 0 84 -34t34 -83t-34 -82.5t-84 -33.5z" />
    <glyph glyph-name="Aring" unicode="&#xc5;" horiz-adv-x="1351" 
d="M1083 0l-170 492h-483l-172 -492h-223l514 1434h254l514 -1434h-234zM670 1217l-183 -533h367l-182 533h-2zM676 1542q-75 0 -127.5 50.5t-52.5 125.5t52.5 126.5t127.5 51.5t127.5 -51.5t52.5 -126.5q0 -74 -53 -125t-127 -51zM676 1640q31 0 54.5 23t23.5 55t-23.5 56
t-54.5 24q-33 0 -55.5 -22.5t-22.5 -57.5q0 -32 23 -55t55 -23z" />
    <glyph glyph-name="AE" unicode="&#xc6;" horiz-adv-x="1896" 
d="M930 0l-25 512h-416l-247 -512h-234l715 1434h1071v-195h-711l17 -334h645v-194h-635l27 -516h665v-195h-872zM842 1239l-260 -539h313l-27 539h-26z" />
    <glyph glyph-name="Ccedilla" unicode="&#xc7;" horiz-adv-x="1454" 
d="M762 -20q-140 0 -263 54.5t-212.5 151t-141 235.5t-51.5 302q0 157 51.5 294t140.5 233.5t212 152t262 55.5q220 0 377 -106t223 -312l-211 -61q-35 110 -127 190q-96 84 -262 84q-128 0 -229 -72t-155 -192.5t-54 -265.5q0 -151 54.5 -273.5t156 -194t229.5 -71.5
q171 0 274 103q104 104 131 252l217 -39q-20 -123 -78.5 -222.5t-142 -164t-186.5 -99t-215 -34.5zM756 -436q-89 0 -156 22l31 117q67 -25 121 -25q39 0 63.5 17.5t24.5 48.5q0 30 -27 48t-72 18q-16 0 -44.5 -4t-34.5 -5l51 236h121l-35 -125q78 -2 130 -45t52 -121
q0 -89 -62 -135.5t-163 -46.5z" />
    <glyph glyph-name="Egrave" unicode="&#xc8;" horiz-adv-x="1230" 
d="M1135 195v-195h-959v1434h952v-195h-733v-334h682v-194h-682v-516h740zM586 1567l-205 288v5h231l144 -289v-4h-170z" />
    <glyph glyph-name="Eacute" unicode="&#xc9;" horiz-adv-x="1230" 
d="M1135 195v-195h-959v1434h952v-195h-733v-334h682v-194h-682v-516h740zM561 1567v4l144 289h231v-5l-205 -288h-170z" />
    <glyph glyph-name="Ecircumflex" unicode="&#xca;" horiz-adv-x="1230" 
d="M1135 195v-195h-959v1434h952v-195h-733v-334h682v-194h-682v-516h740zM373 1540v162l284 162l281 -162v-162l-285 148z" />
    <glyph glyph-name="Edieresis" unicode="&#xcb;" horiz-adv-x="1230" 
d="M1135 195v-195h-959v1434h952v-195h-733v-334h682v-194h-682v-516h740zM455 1608q-50 0 -83.5 33.5t-33.5 82.5q0 50 34 83.5t83 33.5t82.5 -33.5t33.5 -83.5t-33.5 -83t-82.5 -33zM856 1608q-48 0 -82.5 33.5t-34.5 82.5t34.5 83t82.5 34q50 0 84.5 -34t34.5 -83
t-34.5 -82.5t-84.5 -33.5z" />
    <glyph glyph-name="Igrave" unicode="&#xcc;" horiz-adv-x="571" 
d="M176 0v1434h219v-1434h-219zM217 1567l-205 288v5h232l143 -289v-4h-170z" />
    <glyph glyph-name="Iacute" unicode="&#xcd;" horiz-adv-x="571" 
d="M176 0v1434h219v-1434h-219zM190 1567v4l144 289h231v-5l-205 -288h-170z" />
    <glyph glyph-name="Icircumflex" unicode="&#xce;" horiz-adv-x="571" 
d="M176 0v1434h219v-1434h-219zM4 1540v162l285 162l280 -162v-162l-284 148z" />
    <glyph glyph-name="Idieresis" unicode="&#xcf;" horiz-adv-x="571" 
d="M176 0v1434h219v-1434h-219zM86 1608q-50 0 -83.5 33.5t-33.5 82.5q0 50 33.5 83.5t83.5 33.5t83.5 -33.5t33.5 -83.5q0 -49 -33.5 -82.5t-83.5 -33.5zM487 1608q-48 0 -82 33.5t-34 82.5t34 83t82 34q50 0 84.5 -34t34.5 -83t-34.5 -82.5t-84.5 -33.5z" />
    <glyph glyph-name="Eth" unicode="&#xd0;" horiz-adv-x="1478" 
d="M1384 735q0 -168 -53.5 -308.5t-144.5 -232.5t-210 -143t-251 -51h-485v672h-193v176h193v586h481q132 0 252 -50t211.5 -138.5t145.5 -221.5t54 -289zM459 195h262q89 0 168.5 38t139 107t94 171.5t34.5 223.5q0 148 -61 264.5t-161.5 178t-219.5 61.5h-256v-391h264
v-176h-264v-477z" />
    <glyph glyph-name="Ntilde" unicode="&#xd1;" horiz-adv-x="1497" 
d="M1110 0l-719 1053v-1053h-215v1434h211l721 -1061v1061h213v-1434h-211zM860 1587q-43 0 -84.5 20.5t-75.5 41t-57 20.5q-57 0 -68 -74l-122 21q2 86 53.5 143.5t130.5 57.5q42 0 83 -21t75 -42t59 -21q31 0 47.5 21t18.5 52l124 -18q-2 -87 -53.5 -144t-130.5 -57z" />
    <glyph glyph-name="Ograve" unicode="&#xd2;" horiz-adv-x="1546" 
d="M772 -20q-143 0 -267.5 53.5t-215.5 149t-143 235.5t-52 305q0 157 51.5 294t141 233.5t215.5 152t270 55.5q194 0 349.5 -93.5t243 -261.5t87.5 -380q0 -164 -53 -304t-144.5 -235.5t-216.5 -149.5t-266 -54zM772 184q200 0 326.5 153t126.5 386q0 146 -55.5 266
t-159.5 192t-238 72q-133 0 -236.5 -71t-158.5 -191.5t-55 -267.5q0 -152 56 -274.5t159.5 -193.5t234.5 -71zM702 1567l-204 288v5h231l143 -289v-4h-170z" />
    <glyph glyph-name="Oacute" unicode="&#xd3;" horiz-adv-x="1546" 
d="M772 -20q-143 0 -267.5 53.5t-215.5 149t-143 235.5t-52 305q0 157 51.5 294t141 233.5t215.5 152t270 55.5q194 0 349.5 -93.5t243 -261.5t87.5 -380q0 -164 -53 -304t-144.5 -235.5t-216.5 -149.5t-266 -54zM772 184q200 0 326.5 153t126.5 386q0 146 -55.5 266
t-159.5 192t-238 72q-133 0 -236.5 -71t-158.5 -191.5t-55 -267.5q0 -152 56 -274.5t159.5 -193.5t234.5 -71zM678 1567v4l143 289h232v-5l-205 -288h-170z" />
    <glyph glyph-name="Ocircumflex" unicode="&#xd4;" horiz-adv-x="1546" 
d="M772 -20q-143 0 -267.5 53.5t-215.5 149t-143 235.5t-52 305q0 157 51.5 294t141 233.5t215.5 152t270 55.5q194 0 349.5 -93.5t243 -261.5t87.5 -380q0 -164 -53 -304t-144.5 -235.5t-216.5 -149.5t-266 -54zM772 184q200 0 326.5 153t126.5 386q0 146 -55.5 266
t-159.5 192t-238 72q-133 0 -236.5 -71t-158.5 -191.5t-55 -267.5q0 -152 56 -274.5t159.5 -193.5t234.5 -71zM489 1540v162l285 162l281 -162v-162l-285 148z" />
    <glyph glyph-name="Otilde" unicode="&#xd5;" horiz-adv-x="1546" 
d="M772 -20q-143 0 -267.5 53.5t-215.5 149t-143 235.5t-52 305q0 157 51.5 294t141 233.5t215.5 152t270 55.5q194 0 349.5 -93.5t243 -261.5t87.5 -380q0 -164 -53 -304t-144.5 -235.5t-216.5 -149.5t-266 -54zM772 184q200 0 326.5 153t126.5 386q0 146 -55.5 266
t-159.5 192t-238 72q-133 0 -236.5 -71t-158.5 -191.5t-55 -267.5q0 -152 56 -274.5t159.5 -193.5t234.5 -71zM885 1587q-43 0 -84.5 20.5t-75.5 41t-57 20.5q-57 0 -68 -74l-123 21q2 86 54 143.5t131 57.5q42 0 83 -21t75 -42t59 -21q30 0 46.5 20.5t18.5 52.5l125 -18
q-2 -87 -53.5 -144t-130.5 -57z" />
    <glyph glyph-name="Odieresis" unicode="&#xd6;" horiz-adv-x="1546" 
d="M772 -20q-143 0 -267.5 53.5t-215.5 149t-143 235.5t-52 305q0 157 51.5 294t141 233.5t215.5 152t270 55.5q194 0 349.5 -93.5t243 -261.5t87.5 -380q0 -164 -53 -304t-144.5 -235.5t-216.5 -149.5t-266 -54zM772 184q200 0 326.5 153t126.5 386q0 146 -55.5 266
t-159.5 192t-238 72q-133 0 -236.5 -71t-158.5 -191.5t-55 -267.5q0 -152 56 -274.5t159.5 -193.5t234.5 -71zM571 1608q-49 0 -82.5 33t-33.5 83t33.5 83.5t82.5 33.5t83 -33.5t34 -83.5q0 -49 -33.5 -82.5t-83.5 -33.5zM973 1608q-48 0 -82.5 33.5t-34.5 82.5t34.5 83
t82.5 34q50 0 84.5 -34t34.5 -83t-34.5 -82.5t-84.5 -33.5z" />
    <glyph glyph-name="multiply" unicode="&#xd7;" horiz-adv-x="1187" 
d="M1016 416l-135 -137l-291 290l-287 -286l-129 131l285 284l-289 289l135 135l291 -288l287 286l127 -131l-285 -284z" />
    <glyph glyph-name="Oslash" unicode="&#xd8;" horiz-adv-x="1546" 
d="M772 -20q-184 0 -332 83l-108 -165h-195l174 264q-102 99 -159.5 243t-57.5 318q0 157 51.5 294t141 233.5t215.5 152t270 55.5q183 0 336 -86l106 164h195l-172 -262q102 -100 158.5 -242t56.5 -309q0 -164 -53 -304t-144.5 -235.5t-216.5 -149.5t-266 -54zM322 723
q0 -219 114 -371l553 842q-89 59 -217 59q-133 0 -236.5 -71t-158.5 -191.5t-55 -267.5zM1225 723q0 216 -113 360l-553 -841q98 -58 213 -58q200 0 326.5 153t126.5 386z" />
    <glyph glyph-name="Ugrave" unicode="&#xd9;" horiz-adv-x="1404" 
d="M702 -20q-245 0 -394.5 144.5t-149.5 405.5v904h219v-897q0 -164 88.5 -258.5t236.5 -94.5q149 0 237.5 94t88.5 257v899h219v-902q0 -262 -151 -407t-394 -145zM633 1567l-205 288v5h231l144 -289v-4h-170z" />
    <glyph glyph-name="Uacute" unicode="&#xda;" horiz-adv-x="1404" 
d="M702 -20q-245 0 -394.5 144.5t-149.5 405.5v904h219v-897q0 -164 88.5 -258.5t236.5 -94.5q149 0 237.5 94t88.5 257v899h219v-902q0 -262 -151 -407t-394 -145zM606 1567v4l144 289h231v-5l-205 -288h-170z" />
    <glyph glyph-name="Ucircumflex" unicode="&#xdb;" horiz-adv-x="1404" 
d="M702 -20q-245 0 -394.5 144.5t-149.5 405.5v904h219v-897q0 -164 88.5 -258.5t236.5 -94.5q149 0 237.5 94t88.5 257v899h219v-902q0 -262 -151 -407t-394 -145zM420 1540v162l285 162l280 -162v-162l-285 148z" />
    <glyph glyph-name="Udieresis" unicode="&#xdc;" horiz-adv-x="1404" 
d="M702 -20q-245 0 -394.5 144.5t-149.5 405.5v904h219v-897q0 -164 88.5 -258.5t236.5 -94.5q149 0 237.5 94t88.5 257v899h219v-902q0 -262 -151 -407t-394 -145zM502 1608q-50 0 -83.5 33.5t-33.5 82.5q0 50 33.5 83.5t83.5 33.5q49 0 82.5 -33.5t33.5 -83.5t-33 -83
t-83 -33zM903 1608q-48 0 -82.5 33.5t-34.5 82.5t34.5 83t82.5 34q50 0 84.5 -34t34.5 -83t-34.5 -82.5t-84.5 -33.5z" />
    <glyph glyph-name="Yacute" unicode="&#xdd;" horiz-adv-x="1171" 
d="M1163 1434l-469 -715v-719h-219v721l-467 713h260l324 -508l323 508h248zM489 1565v4l144 289h231v-5l-205 -288h-170z" />
    <glyph glyph-name="Thorn" unicode="&#xde;" horiz-adv-x="1196" 
d="M709 369h-314v-369h-219v1434h219v-271h322q185 0 305 -102q121 -103 121 -293q0 -97 -33.5 -173.5t-93 -125.5t-137.5 -74.5t-170 -25.5zM692 969h-297v-406h299q103 0 162 55t59 148q0 92 -61.5 147.5t-161.5 55.5z" />
    <glyph glyph-name="germandbls" unicode="&#xdf;" horiz-adv-x="1198" 
d="M1102 426q0 -84 -23.5 -155.5t-65 -123t-98 -88t-122.5 -54t-138 -17.5q-93 0 -163 24l45 174q63 -18 110 -18q94 0 168 65t74 193q0 129 -87 204t-231 75h-47v167h51q119 0 184.5 55.5t65.5 159.5q0 92 -63.5 151.5t-163.5 59.5t-161.5 -67.5t-61.5 -192.5v-1038h-209
v1038q0 196 119 318q120 123 315 123q101 0 184.5 -32t136.5 -86t82 -122t29 -143q0 -95 -46 -172t-130 -121q111 -46 178.5 -143.5t67.5 -233.5z" />
    <glyph glyph-name="agrave" unicode="&#xe0;" horiz-adv-x="1085" 
d="M717 92q-134 -108 -285 -108q-65 0 -125.5 21t-108.5 59t-77 98t-29 131q0 126 86 201.5t275 126.5l276 71q-6 78 -64.5 121t-148.5 43q-84 0 -145 -37.5t-92 -105.5l-177 73q49 119 165.5 183.5t262.5 64.5q173 0 289 -90q115 -89 115 -274v-670h-201l-2 104zM299 303
q0 -69 51.5 -108t118.5 -39q56 0 104 19t109 67l47 32v256l-201 -53q-124 -34 -176.5 -71t-52.5 -103zM465 1157l-205 289v4h232l143 -289v-4h-170z" />
    <glyph glyph-name="aacute" unicode="&#xe1;" horiz-adv-x="1085" 
d="M717 92q-134 -108 -285 -108q-65 0 -125.5 21t-108.5 59t-77 98t-29 131q0 126 86 201.5t275 126.5l276 71q-6 78 -64.5 121t-148.5 43q-84 0 -145 -37.5t-92 -105.5l-177 73q49 119 165.5 183.5t262.5 64.5q173 0 289 -90q115 -89 115 -274v-670h-201l-2 104zM299 303
q0 -69 51.5 -108t118.5 -39q56 0 104 19t109 67l47 32v256l-201 -53q-124 -34 -176.5 -71t-52.5 -103zM440 1157v4l144 289h231v-4l-205 -289h-170z" />
    <glyph glyph-name="acircumflex" unicode="&#xe2;" horiz-adv-x="1085" 
d="M717 92q-134 -108 -285 -108q-65 0 -125.5 21t-108.5 59t-77 98t-29 131q0 126 86 201.5t275 126.5l276 71q-6 78 -64.5 121t-148.5 43q-84 0 -145 -37.5t-92 -105.5l-177 73q49 119 165.5 183.5t262.5 64.5q173 0 289 -90q115 -89 115 -274v-670h-201l-2 104zM299 303
q0 -69 51.5 -108t118.5 -39q56 0 104 19t109 67l47 32v256l-201 -53q-124 -34 -176.5 -71t-52.5 -103zM274 1159v162l265 156l260 -156v-162l-267 141z" />
    <glyph glyph-name="atilde" unicode="&#xe3;" horiz-adv-x="1085" 
d="M717 92q-134 -108 -285 -108q-65 0 -125.5 21t-108.5 59t-77 98t-29 131q0 126 86 201.5t275 126.5l276 71q-6 78 -64.5 121t-148.5 43q-84 0 -145 -37.5t-92 -105.5l-177 73q49 119 165.5 183.5t262.5 64.5q173 0 289 -90q115 -89 115 -274v-670h-201l-2 104zM299 303
q0 -69 51.5 -108t118.5 -39q56 0 104 19t109 67l47 32v256l-201 -53q-124 -34 -176.5 -71t-52.5 -103zM647 1178q-43 0 -84.5 20.5t-75.5 41t-57 20.5q-57 0 -68 -74l-122 20q2 86 53.5 143.5t130.5 57.5q42 0 83 -21t75 -42t59 -21q31 0 47.5 21t18.5 53l124 -19
q-2 -87 -53.5 -143.5t-130.5 -56.5z" />
    <glyph glyph-name="adieresis" unicode="&#xe4;" horiz-adv-x="1085" 
d="M717 92q-134 -108 -285 -108q-65 0 -125.5 21t-108.5 59t-77 98t-29 131q0 126 86 201.5t275 126.5l276 71q-6 78 -64.5 121t-148.5 43q-84 0 -145 -37.5t-92 -105.5l-177 73q49 119 165.5 183.5t262.5 64.5q173 0 289 -90q115 -89 115 -274v-670h-201l-2 104zM299 303
q0 -69 51.5 -108t118.5 -39q56 0 104 19t109 67l47 32v256l-201 -53q-124 -34 -176.5 -71t-52.5 -103zM334 1198q-50 0 -83.5 34t-33.5 83t33.5 83t83.5 34t83.5 -34t33.5 -83t-33.5 -83t-83.5 -34zM735 1198q-48 0 -82.5 34t-34.5 83t34.5 83t82.5 34q50 0 84.5 -34
t34.5 -83t-34.5 -83t-84.5 -34z" />
    <glyph glyph-name="aring" unicode="&#xe5;" horiz-adv-x="1085" 
d="M717 92q-134 -108 -285 -108q-65 0 -125.5 21t-108.5 59t-77 98t-29 131q0 126 86 201.5t275 126.5l276 71q-6 78 -64.5 121t-148.5 43q-84 0 -145 -37.5t-92 -105.5l-177 73q49 119 165.5 183.5t262.5 64.5q173 0 289 -90q115 -89 115 -274v-670h-201l-2 104zM299 303
q0 -69 51.5 -108t118.5 -39q56 0 104 19t109 67l47 32v256l-201 -53q-124 -34 -176.5 -71t-52.5 -103zM537 1133q-75 0 -128 50.5t-53 125.5t53 126.5t128 51.5t127.5 -51.5t52.5 -126.5q0 -74 -53 -125t-127 -51zM537 1231q31 0 54 23t23 55t-23 56t-54 24
q-33 0 -55.5 -22.5t-22.5 -57.5q0 -32 23 -55t55 -23z" />
    <glyph glyph-name="ae" unicode="&#xe6;" horiz-adv-x="1748" 
d="M1657 205q-57 -104 -172 -163.5t-262 -59.5q-113 0 -213 43.5t-168 124.5l-74 -52q-168 -114 -340 -114q-64 0 -124 21t-107.5 59t-76 98t-28.5 131q0 126 86.5 201.5t274.5 123.5l274 72q-6 80 -63.5 123t-147.5 43q-84 0 -145 -37.5t-92 -105.5l-177 73
q49 119 165.5 183.5t262.5 64.5q106 0 191.5 -38t136.5 -107q139 145 348 145q201 0 324.5 -127.5t134.5 -343.5q4 -82 4 -96h-737q3 -145 90 -229q90 -84 209 -84q88 0 162 40.5t116 114.5zM1202 862q-105 0 -180.5 -63t-85.5 -176h520q-11 116 -82.5 177.5t-171.5 61.5z
M299 303q0 -70 50 -108.5t118 -38.5q103 0 225 86l70 47q-39 103 -39 223v14l-195 -51q-124 -34 -176.5 -71t-52.5 -101z" />
    <glyph glyph-name="ccedilla" unicode="&#xe7;" horiz-adv-x="1071" 
d="M567 -20q-95 0 -181 35.5t-154 100.5t-108 167t-40 225q0 99 26.5 184.5t73 147t108 106t132 66.5t145.5 22q162 0 276 -77t159 -209l-185 -74q-70 172 -248 172q-113 0 -194.5 -89.5t-81.5 -248.5t81.5 -249.5t194.5 -90.5q93 0 159 52t99 147l185 -74
q-49 -152 -167 -232.5t-280 -80.5zM565 -436q-88 0 -155 22l30 117q67 -25 121 -25q39 0 63.5 17.5t24.5 48.5t-26.5 48.5t-71.5 17.5q-16 0 -45 -4t-35 -5l51 236h121l-35 -125q78 -2 130.5 -45t52.5 -121q0 -89 -62.5 -135.5t-163.5 -46.5z" />
    <glyph glyph-name="egrave" unicode="&#xe8;" horiz-adv-x="1110" 
d="M1018 205q-57 -104 -172 -163.5t-262 -59.5q-214 0 -357 143t-143 387q0 117 37.5 215.5t102.5 165.5t153.5 104t189.5 37q201 0 324.5 -127.5t134.5 -343.5q4 -82 4 -96h-737q3 -145 90 -229q90 -84 209 -84q88 0 162 40.5t116 114.5zM563 862q-105 0 -180.5 -63
t-85.5 -176h520q-11 116 -82.5 177.5t-171.5 61.5zM498 1157l-205 289v4h231l144 -289v-4h-170z" />
    <glyph glyph-name="eacute" unicode="&#xe9;" horiz-adv-x="1110" 
d="M1018 205q-57 -104 -172 -163.5t-262 -59.5q-214 0 -357 143t-143 387q0 117 37.5 215.5t102.5 165.5t153.5 104t189.5 37q201 0 324.5 -127.5t134.5 -343.5q4 -82 4 -96h-737q3 -145 90 -229q90 -84 209 -84q88 0 162 40.5t116 114.5zM563 862q-105 0 -180.5 -63
t-85.5 -176h520q-11 116 -82.5 177.5t-171.5 61.5zM471 1157v4l143 289h232v-4l-205 -289h-170z" />
    <glyph glyph-name="ecircumflex" unicode="&#xea;" horiz-adv-x="1110" 
d="M1018 205q-57 -104 -172 -163.5t-262 -59.5q-214 0 -357 143t-143 387q0 117 37.5 215.5t102.5 165.5t153.5 104t189.5 37q201 0 324.5 -127.5t134.5 -343.5q4 -82 4 -96h-737q3 -145 90 -229q90 -84 209 -84q88 0 162 40.5t116 114.5zM563 862q-105 0 -180.5 -63
t-85.5 -176h520q-11 116 -82.5 177.5t-171.5 61.5zM305 1159v162l264 156l260 -156v-162l-266 141z" />
    <glyph glyph-name="edieresis" unicode="&#xeb;" horiz-adv-x="1110" 
d="M1018 205q-57 -104 -172 -163.5t-262 -59.5q-214 0 -357 143t-143 387q0 117 37.5 215.5t102.5 165.5t153.5 104t189.5 37q201 0 324.5 -127.5t134.5 -343.5q4 -82 4 -96h-737q3 -145 90 -229q90 -84 209 -84q88 0 162 40.5t116 114.5zM563 862q-105 0 -180.5 -63
t-85.5 -176h520q-11 116 -82.5 177.5t-171.5 61.5zM365 1198q-49 0 -83 34t-34 83t34 83t83 34t82.5 -33.5t33.5 -83.5t-33.5 -83.5t-82.5 -33.5zM766 1198q-48 0 -82.5 34t-34.5 83t34.5 83t82.5 34q50 0 84.5 -34t34.5 -83t-34.5 -83t-84.5 -34z" />
    <glyph glyph-name="igrave" unicode="&#xec;" 
d="M166 0v1008h209v-1008h-209zM201 1157l-205 289v4h231l144 -289v-4h-170z" />
    <glyph glyph-name="iacute" unicode="&#xed;" 
d="M166 0v1008h209v-1008h-209zM174 1157v4l143 289h232v-4l-205 -289h-170z" />
    <glyph glyph-name="icircumflex" unicode="&#xee;" 
d="M166 0v1008h209v-1008h-209zM8 1159v162l264 156l260 -156v-162l-266 141z" />
    <glyph glyph-name="idieresis" unicode="&#xef;" 
d="M166 0v1008h209v-1008h-209zM113 1217q-43 0 -73 30t-30 74q0 43 30 72.5t73 29.5q44 0 74 -29.5t30 -72.5q0 -44 -30 -74t-74 -30zM428 1217q-44 0 -74 30t-30 74q0 43 30 72.5t74 29.5q43 0 72.5 -29.5t29.5 -72.5q0 -44 -29.5 -74t-72.5 -30z" />
    <glyph glyph-name="eth" unicode="&#xf0;" horiz-adv-x="1155" 
d="M1069 514q0 -232 -135.5 -383t-358.5 -151q-211 0 -351 146t-140 374q0 112 37.5 209t101.5 163.5t150.5 104t181.5 37.5q107 0 201 -58q-52 93 -127 174q-7 9 -68 70l-258 -119l-51 115l209 96q-104 90 -223 178h282l117 -98l209 94l51 -114l-160 -74q96 -100 154 -191
q92 -144 135 -274t43 -299zM575 168q124 0 202.5 89.5t78.5 242.5q0 150 -80.5 239.5t-200.5 89.5q-121 0 -199.5 -87.5t-78.5 -241.5q0 -151 79 -241.5t199 -90.5z" />
    <glyph glyph-name="ntilde" unicode="&#xf1;" horiz-adv-x="1191" 
d="M618 844q-80 0 -145.5 -50t-97.5 -137v-657h-209v1008h209v-131q98 155 299 155q167 0 266.5 -104t99.5 -305v-623h-206v594q0 125 -57 187.5t-159 62.5zM735 1178q-43 0 -84.5 20.5t-75.5 41t-57 20.5q-56 0 -67 -74l-123 20q2 86 53.5 143.5t130.5 57.5q42 0 83 -21
t75 -42t59 -21q31 0 47.5 21t18.5 53l125 -19q-2 -87 -54 -143.5t-131 -56.5z" />
    <glyph glyph-name="ograve" unicode="&#xf2;" horiz-adv-x="1155" 
d="M578 -20q-211 0 -352.5 146.5t-141.5 381.5q0 119 39 218.5t106.5 166.5t157.5 104t191 37q211 0 353 -144.5t142 -381.5q0 -117 -39 -216.5t-106 -167.5t-158 -106t-192 -38zM578 166q124 0 203 92.5t79 249.5q0 155 -80.5 246.5t-201.5 91.5q-123 0 -203 -90.5
t-80 -247.5q0 -156 80.5 -249t202.5 -93zM508 1157l-205 289v4h232l143 -289v-4h-170z" />
    <glyph glyph-name="oacute" unicode="&#xf3;" horiz-adv-x="1155" 
d="M578 -20q-211 0 -352.5 146.5t-141.5 381.5q0 119 39 218.5t106.5 166.5t157.5 104t191 37q211 0 353 -144.5t142 -381.5q0 -117 -39 -216.5t-106 -167.5t-158 -106t-192 -38zM578 166q124 0 203 92.5t79 249.5q0 155 -80.5 246.5t-201.5 91.5q-123 0 -203 -90.5
t-80 -247.5q0 -156 80.5 -249t202.5 -93zM481 1157v4l144 289h231v-4l-205 -289h-170z" />
    <glyph glyph-name="ocircumflex" unicode="&#xf4;" horiz-adv-x="1155" 
d="M578 -20q-211 0 -352.5 146.5t-141.5 381.5q0 119 39 218.5t106.5 166.5t157.5 104t191 37q211 0 353 -144.5t142 -381.5q0 -117 -39 -216.5t-106 -167.5t-158 -106t-192 -38zM578 166q124 0 203 92.5t79 249.5q0 155 -80.5 246.5t-201.5 91.5q-123 0 -203 -90.5
t-80 -247.5q0 -156 80.5 -249t202.5 -93zM315 1159v162l265 156l260 -156v-162l-267 141z" />
    <glyph glyph-name="otilde" unicode="&#xf5;" horiz-adv-x="1155" 
d="M578 -20q-211 0 -352.5 146.5t-141.5 381.5q0 119 39 218.5t106.5 166.5t157.5 104t191 37q211 0 353 -144.5t142 -381.5q0 -117 -39 -216.5t-106 -167.5t-158 -106t-192 -38zM578 166q124 0 203 92.5t79 249.5q0 155 -80.5 246.5t-201.5 91.5q-123 0 -203 -90.5
t-80 -247.5q0 -156 80.5 -249t202.5 -93zM690 1178q-43 0 -84.5 20.5t-75.5 41t-57 20.5q-56 0 -67 -74l-123 20q2 86 53.5 143.5t130.5 57.5q42 0 83 -21t75 -42t59 -21q31 0 47.5 21t18.5 53l124 -19q-2 -87 -53.5 -143.5t-130.5 -56.5z" />
    <glyph glyph-name="odieresis" unicode="&#xf6;" horiz-adv-x="1155" 
d="M578 -20q-211 0 -352.5 146.5t-141.5 381.5q0 119 39 218.5t106.5 166.5t157.5 104t191 37q211 0 353 -144.5t142 -381.5q0 -117 -39 -216.5t-106 -167.5t-158 -106t-192 -38zM578 166q124 0 203 92.5t79 249.5q0 155 -80.5 246.5t-201.5 91.5q-123 0 -203 -90.5
t-80 -247.5q0 -156 80.5 -249t202.5 -93zM377 1198q-49 0 -83 34t-34 83t34 83t83 34t83 -34t34 -83t-34 -83t-83 -34zM778 1198q-48 0 -82 34t-34 83t34 83t82 34q50 0 84.5 -34t34.5 -83t-34.5 -83t-84.5 -34z" />
    <glyph glyph-name="divide" unicode="&#xf7;" horiz-adv-x="1196" 
d="M598 983q-60 0 -100.5 41.5t-40.5 101.5q0 58 41 100t100 42q57 0 99 -42.5t42 -99.5q0 -60 -41.5 -101.5t-99.5 -41.5zM598 143q-60 0 -100.5 42t-40.5 102q0 58 41 99.5t100 41.5q57 0 99 -42t42 -99q0 -60 -42 -102t-99 -42zM104 614v181h988v-181h-988z" />
    <glyph glyph-name="oslash" unicode="&#xf8;" horiz-adv-x="1155" 
d="M578 -20q-116 0 -216 47l-79 -129h-160l127 204q-77 71 -121.5 175.5t-44.5 230.5q0 119 39 218.5t106.5 166.5t157.5 104t191 37q119 0 219 -47l75 123h160l-123 -199q77 -71 120.5 -174t43.5 -229q0 -117 -39 -216.5t-106 -167.5t-158 -106t-192 -38zM295 508
q0 -137 63 -229l336 542q-55 25 -116 25q-123 0 -203 -90.5t-80 -247.5zM860 508q0 137 -61 223l-336 -541q53 -24 115 -24q124 0 203 92.5t79 249.5z" />
    <glyph glyph-name="ugrave" unicode="&#xf9;" horiz-adv-x="1179" 
d="M805 0v131q-48 -68 -123 -109.5t-172 -41.5q-161 0 -259.5 100t-98.5 293v635h206v-605q0 -118 57.5 -176.5t153.5 -58.5q75 0 139.5 49t96.5 133v658h209v-1008h-209zM514 1157l-205 289v4h232l143 -289v-4h-170z" />
    <glyph glyph-name="uacute" unicode="&#xfa;" horiz-adv-x="1179" 
d="M805 0v131q-48 -68 -123 -109.5t-172 -41.5q-161 0 -259.5 100t-98.5 293v635h206v-605q0 -118 57.5 -176.5t153.5 -58.5q75 0 139.5 49t96.5 133v658h209v-1008h-209zM487 1157v4l144 289h231v-4l-205 -289h-170z" />
    <glyph glyph-name="ucircumflex" unicode="&#xfb;" horiz-adv-x="1179" 
d="M805 0v131q-48 -68 -123 -109.5t-172 -41.5q-161 0 -259.5 100t-98.5 293v635h206v-605q0 -118 57.5 -176.5t153.5 -58.5q75 0 139.5 49t96.5 133v658h209v-1008h-209zM322 1159v162l264 156l260 -156v-162l-266 141z" />
    <glyph glyph-name="udieresis" unicode="&#xfc;" horiz-adv-x="1179" 
d="M805 0v131q-48 -68 -123 -109.5t-172 -41.5q-161 0 -259.5 100t-98.5 293v635h206v-605q0 -118 57.5 -176.5t153.5 -58.5q75 0 139.5 49t96.5 133v658h209v-1008h-209zM381 1198q-49 0 -83 34t-34 83t34 83t83 34t83 -34t34 -83t-34 -83t-83 -34zM782 1198q-48 0 -82 34
t-34 83t34 83t82 34q50 0 84.5 -34t34.5 -83t-34.5 -83t-84.5 -34z" />
    <glyph glyph-name="yacute" unicode="&#xfd;" horiz-adv-x="958" 
d="M944 1008l-598 -1397h-209l242 563l-363 834h217l254 -607l246 607h211zM389 1157v4l143 289h232v-4l-205 -289h-170z" />
    <glyph glyph-name="thorn" unicode="&#xfe;" horiz-adv-x="1208" 
d="M670 -20q-186 0 -295 122v-491h-209v1859h209v-559q111 121 293 121q196 0 324 -143.5t128 -380.5q0 -236 -128 -382t-322 -146zM375 455q1 -134 77.5 -209.5t190.5 -75.5t189 90.5t75 247.5q0 156 -75 246t-191 90q-100 0 -184 -72q-79 -70 -82 -213v-104z" />
    <glyph glyph-name="ydieresis" unicode="&#xff;" horiz-adv-x="958" 
d="M944 1008l-598 -1397h-209l242 563l-363 834h217l254 -607l246 607h211zM283 1198q-49 0 -83 34t-34 83t34 83t83 34t82.5 -33.5t33.5 -83.5t-33.5 -83.5t-82.5 -33.5zM684 1198q-48 0 -82.5 34t-34.5 83t34.5 83t82.5 34q50 0 84.5 -34t34.5 -83t-34.5 -83t-84.5 -34z
" />
    <glyph glyph-name="Amacron" unicode="&#x100;" horiz-adv-x="1351" 
d="M1083 0l-170 492h-483l-172 -492h-223l514 1434h254l514 -1434h-234zM670 1217l-183 -533h367l-182 533h-2zM430 1642v146h492v-146h-492z" />
    <glyph glyph-name="amacron" unicode="&#x101;" horiz-adv-x="1085" 
d="M717 92q-134 -108 -285 -108q-65 0 -125.5 21t-108.5 59t-77 98t-29 131q0 126 86 201.5t275 126.5l276 71q-6 78 -64.5 121t-148.5 43q-84 0 -145 -37.5t-92 -105.5l-177 73q49 119 165.5 183.5t262.5 64.5q173 0 289 -90q115 -89 115 -274v-670h-201l-2 104zM299 303
q0 -69 51.5 -108t118.5 -39q56 0 104 19t109 67l47 32v256l-201 -53q-124 -34 -176.5 -71t-52.5 -103zM295 1233v143h481v-143h-481z" />
    <glyph glyph-name="Abreve" unicode="&#x102;" horiz-adv-x="1351" 
d="M1083 0l-170 492h-483l-172 -492h-223l514 1434h254l514 -1434h-234zM670 1217l-183 -533h367l-182 533h-2zM676 1575q-136 0 -220 73t-85 195h151q0 -57 40.5 -92t113.5 -35t113 35t42 92h152q-1 -122 -88 -195t-219 -73z" />
    <glyph glyph-name="abreve" unicode="&#x103;" horiz-adv-x="1085" 
d="M717 92q-134 -108 -285 -108q-65 0 -125.5 21t-108.5 59t-77 98t-29 131q0 126 86 201.5t275 126.5l276 71q-6 78 -64.5 121t-148.5 43q-84 0 -145 -37.5t-92 -105.5l-177 73q49 119 165.5 183.5t262.5 64.5q173 0 289 -90q115 -89 115 -274v-670h-201l-2 104zM299 303
q0 -69 51.5 -108t118.5 -39q56 0 104 19t109 67l47 32v256l-201 -53q-124 -34 -176.5 -71t-52.5 -103zM535 1169q-117 0 -192.5 72.5t-76.5 192.5h150q0 -57 31.5 -91t87.5 -34t88 34.5t32 90.5h150q-1 -120 -78.5 -192.5t-191.5 -72.5z" />
    <glyph glyph-name="Aogonek" unicode="&#x104;" horiz-adv-x="1351" 
d="M1083 0l-170 492h-483l-172 -492h-223l514 1434h254l514 -1434h-234zM670 1217l-183 -533h367l-182 533h-2zM1163 -414q-85 0 -145 44.5t-60 127.5q0 89 64 162t182 139l113 -59q-81 -36 -138 -91t-57 -114q0 -34 20 -49.5t50 -15.5q51 0 90 39l78 -103
q-36 -37 -88 -58.5t-109 -21.5z" />
    <glyph glyph-name="aogonek" unicode="&#x105;" horiz-adv-x="1085" 
d="M717 92q-134 -108 -285 -108q-65 0 -125.5 21t-108.5 59t-77 98t-29 131q0 126 86 201.5t275 126.5l276 71q-6 78 -64.5 121t-148.5 43q-84 0 -145 -37.5t-92 -105.5l-177 73q49 119 165.5 183.5t262.5 64.5q173 0 289 -90q115 -89 115 -274v-670h-201l-2 104zM299 303
q0 -69 51.5 -108t118.5 -39q56 0 104 19t109 67l47 32v256l-201 -53q-124 -34 -176.5 -71t-52.5 -103zM780 -414q-85 0 -145 44.5t-60 127.5q0 89 64 162t182 139l113 -59q-81 -36 -138 -91t-57 -114q0 -34 20 -49.5t50 -15.5q51 0 90 39l78 -103q-36 -37 -88 -58.5
t-109 -21.5z" />
    <glyph glyph-name="Cacute" unicode="&#x106;" horiz-adv-x="1454" 
d="M762 -20q-140 0 -263 54.5t-212.5 151t-141 235.5t-51.5 302q0 157 51.5 294t140.5 233.5t212 152t262 55.5q220 0 377 -106t223 -312l-211 -61q-35 110 -127 190q-96 84 -262 84q-128 0 -229 -72t-155 -192.5t-54 -265.5q0 -151 54.5 -273.5t156 -194t229.5 -71.5
q171 0 274 103q104 104 131 252l217 -39q-20 -123 -78.5 -222.5t-142 -164t-186.5 -99t-215 -34.5zM666 1567v4l143 289h231v-5l-204 -288h-170z" />
    <glyph glyph-name="cacute" unicode="&#x107;" horiz-adv-x="1071" 
d="M567 -20q-95 0 -181 35.5t-154 100.5t-108 167t-40 225q0 99 26.5 184.5t73 147t108 106t132 66.5t145.5 22q162 0 276 -77t159 -209l-185 -74q-70 172 -248 172q-113 0 -194.5 -89.5t-81.5 -248.5t81.5 -249.5t194.5 -90.5q93 0 159 52t99 147l185 -74
q-49 -152 -167 -232.5t-280 -80.5zM473 1157v4l143 289h232v-4l-205 -289h-170z" />
    <glyph glyph-name="Ccircumflex" unicode="&#x108;" horiz-adv-x="1454" 
d="M762 -20q-140 0 -263 54.5t-212.5 151t-141 235.5t-51.5 302q0 157 51.5 294t140.5 233.5t212 152t262 55.5q220 0 377 -106t223 -312l-211 -61q-35 110 -127 190q-96 84 -262 84q-128 0 -229 -72t-155 -192.5t-54 -265.5q0 -151 54.5 -273.5t156 -194t229.5 -71.5
q171 0 274 103q104 104 131 252l217 -39q-20 -123 -78.5 -222.5t-142 -164t-186.5 -99t-215 -34.5zM477 1540v162l285 162l280 -162v-162l-284 148z" />
    <glyph glyph-name="ccircumflex" unicode="&#x109;" horiz-adv-x="1071" 
d="M567 -20q-95 0 -181 35.5t-154 100.5t-108 167t-40 225q0 99 26.5 184.5t73 147t108 106t132 66.5t145.5 22q162 0 276 -77t159 -209l-185 -74q-70 172 -248 172q-113 0 -194.5 -89.5t-81.5 -248.5t81.5 -249.5t194.5 -90.5q93 0 159 52t99 147l185 -74
q-49 -152 -167 -232.5t-280 -80.5zM307 1159v162l264 156l260 -156v-162l-266 141z" />
    <glyph glyph-name="Cdotaccent" unicode="&#x10a;" horiz-adv-x="1454" 
d="M762 -20q-140 0 -263 54.5t-212.5 151t-141 235.5t-51.5 302q0 157 51.5 294t140.5 233.5t212 152t262 55.5q220 0 377 -106t223 -312l-211 -61q-35 110 -127 190q-96 84 -262 84q-128 0 -229 -72t-155 -192.5t-54 -265.5q0 -151 54.5 -273.5t156 -194t229.5 -71.5
q171 0 274 103q104 104 131 252l217 -39q-20 -123 -78.5 -222.5t-142 -164t-186.5 -99t-215 -34.5zM760 1610q-54 0 -90.5 36t-36.5 91t36.5 92t90.5 37q56 0 92.5 -37t36.5 -92t-36.5 -91t-92.5 -36z" />
    <glyph glyph-name="cdotaccent" unicode="&#x10b;" horiz-adv-x="1071" 
d="M567 -20q-95 0 -181 35.5t-154 100.5t-108 167t-40 225q0 99 26.5 184.5t73 147t108 106t132 66.5t145.5 22q162 0 276 -77t159 -209l-185 -74q-70 172 -248 172q-113 0 -194.5 -89.5t-81.5 -248.5t81.5 -249.5t194.5 -90.5q93 0 159 52t99 147l185 -74
q-49 -152 -167 -232.5t-280 -80.5zM567 1200q-54 0 -90.5 36t-36.5 91t36.5 92t90.5 37q55 0 92 -37t37 -92t-36.5 -91t-92.5 -36z" />
    <glyph glyph-name="Ccaron" unicode="&#x10c;" horiz-adv-x="1454" 
d="M762 -20q-140 0 -263 54.5t-212.5 151t-141 235.5t-51.5 302q0 157 51.5 294t140.5 233.5t212 152t262 55.5q220 0 377 -106t223 -312l-211 -61q-35 110 -127 190q-96 84 -262 84q-128 0 -229 -72t-155 -192.5t-54 -265.5q0 -151 54.5 -273.5t156 -194t229.5 -71.5
q171 0 274 103q104 104 131 252l217 -39q-20 -123 -78.5 -222.5t-142 -164t-186.5 -99t-215 -34.5zM1049 1884v-162l-285 -161l-281 161v162l285 -147z" />
    <glyph glyph-name="ccaron" unicode="&#x10d;" horiz-adv-x="1071" 
d="M567 -20q-95 0 -181 35.5t-154 100.5t-108 167t-40 225q0 99 26.5 184.5t73 147t108 106t132 66.5t145.5 22q162 0 276 -77t159 -209l-185 -74q-70 172 -248 172q-113 0 -194.5 -89.5t-81.5 -248.5t81.5 -249.5t194.5 -90.5q93 0 159 52t99 147l185 -74
q-49 -152 -167 -232.5t-280 -80.5zM829 1483v-162l-264 -156l-260 156v162l266 -142z" />
    <glyph glyph-name="Dcaron" unicode="&#x10e;" horiz-adv-x="1415" 
d="M176 0v1434h481q132 0 252.5 -50t211.5 -138.5t145.5 -221.5t54.5 -289q0 -168 -53.5 -308.5t-144.5 -232.5t-210 -143t-251 -51h-486zM395 195h262q184 0 310.5 149t126.5 391q0 148 -61.5 264.5t-162 178t-219.5 61.5h-256v-1044zM934 1884v-162l-285 -161l-280 161
v162l284 -147z" />
    <glyph glyph-name="dcaron" unicode="&#x10f;" horiz-adv-x="1208" 
d="M1155 1135l86 335h189l-101 -335h-174zM844 0v117q-50 -60 -130.5 -98.5t-174.5 -38.5q-195 0 -323 145t-128 383q0 235 128.5 379.5t322.5 144.5q189 0 295 -119v557h208v-1470h-198zM301 508q0 -157 75 -247.5t189 -90.5q103 0 185 70q81 69 84 215v106
q-1 132 -78 207.5t-191 75.5t-189 -90t-75 -246z" />
    <glyph glyph-name="Dcroat" unicode="&#x110;" horiz-adv-x="1478" 
d="M1384 735q0 -168 -53.5 -308.5t-144.5 -232.5t-210 -143t-251 -51h-485v672h-193v176h193v586h481q132 0 252 -50t211.5 -138.5t145.5 -221.5t54 -289zM459 195h262q89 0 168.5 38t139 107t94 171.5t34.5 223.5q0 148 -61 264.5t-161.5 178t-219.5 61.5h-256v-391h264
v-176h-264v-477z" />
    <glyph glyph-name="dslash" unicode="&#x111;" horiz-adv-x="1208" 
d="M844 0v117q-50 -60 -130.5 -98.5t-174.5 -38.5q-195 0 -323 145t-128 383q0 235 128.5 379.5t322.5 144.5q189 0 295 -119v267h-297v137h297v153h208v-153h183v-137h-183v-1180h-198zM301 508q0 -157 75 -247.5t189 -90.5q103 0 185 70q81 69 84 215v106
q-1 132 -78 207.5t-191 75.5t-189 -90t-75 -246z" />
    <glyph glyph-name="Emacron" unicode="&#x112;" horiz-adv-x="1230" 
d="M1135 195v-195h-959v1434h952v-195h-733v-334h682v-194h-682v-516h740zM412 1642v146h491v-146h-491z" />
    <glyph glyph-name="emacron" unicode="&#x113;" horiz-adv-x="1110" 
d="M1018 205q-57 -104 -172 -163.5t-262 -59.5q-214 0 -357 143t-143 387q0 117 37.5 215.5t102.5 165.5t153.5 104t189.5 37q201 0 324.5 -127.5t134.5 -343.5q4 -82 4 -96h-737q3 -145 90 -229q90 -84 209 -84q88 0 162 40.5t116 114.5zM563 862q-105 0 -180.5 -63
t-85.5 -176h520q-11 116 -82.5 177.5t-171.5 61.5zM326 1233v143h481v-143h-481z" />
    <glyph glyph-name="Ebreve" unicode="&#x114;" horiz-adv-x="1230" 
d="M1135 195v-195h-959v1434h952v-195h-733v-334h682v-194h-682v-516h740zM655 1575q-136 0 -220 73t-85 195h152q0 -57 40 -92t113 -35t113.5 35t42.5 92h152q-1 -122 -88.5 -195t-219.5 -73z" />
    <glyph glyph-name="ebreve" unicode="&#x115;" horiz-adv-x="1110" 
d="M1018 205q-57 -104 -172 -163.5t-262 -59.5q-214 0 -357 143t-143 387q0 117 37.5 215.5t102.5 165.5t153.5 104t189.5 37q201 0 324.5 -127.5t134.5 -343.5q4 -82 4 -96h-737q3 -145 90 -229q90 -84 209 -84q88 0 162 40.5t116 114.5zM563 862q-105 0 -180.5 -63
t-85.5 -176h520q-11 116 -82.5 177.5t-171.5 61.5zM565 1169q-117 0 -192 72.5t-76 192.5h149q0 -57 31.5 -91t87.5 -34t88.5 34.5t32.5 90.5h150q-1 -120 -79 -192.5t-192 -72.5z" />
    <glyph glyph-name="Edotaccent" unicode="&#x116;" horiz-adv-x="1230" 
d="M1135 195v-195h-959v1434h952v-195h-733v-334h682v-194h-682v-516h740zM655 1610q-54 0 -90.5 36t-36.5 91t36.5 92t90.5 37q55 0 92 -37t37 -92t-36.5 -91t-92.5 -36z" />
    <glyph glyph-name="edotaccent" unicode="&#x117;" horiz-adv-x="1110" 
d="M1018 205q-57 -104 -172 -163.5t-262 -59.5q-214 0 -357 143t-143 387q0 117 37.5 215.5t102.5 165.5t153.5 104t189.5 37q201 0 324.5 -127.5t134.5 -343.5q4 -82 4 -96h-737q3 -145 90 -229q90 -84 209 -84q88 0 162 40.5t116 114.5zM563 862q-105 0 -180.5 -63
t-85.5 -176h520q-11 116 -82.5 177.5t-171.5 61.5zM565 1200q-54 0 -90.5 36t-36.5 91t36.5 92t90.5 37q55 0 92 -37t37 -92t-36.5 -91t-92.5 -36z" />
    <glyph glyph-name="Eogonek" unicode="&#x118;" horiz-adv-x="1230" 
d="M1135 195v-195h-959v1434h952v-195h-733v-334h682v-194h-682v-516h740zM981 -414q-85 0 -145 44.5t-60 127.5q0 89 64 162t182 139l113 -59q-81 -36 -138 -91t-57 -114q0 -34 20 -49.5t50 -15.5q51 0 90 39l78 -103q-36 -37 -88 -58.5t-109 -21.5z" />
    <glyph glyph-name="eogonek" unicode="&#x119;" horiz-adv-x="1110" 
d="M985 -334q-80 -80 -199 -80q-84 0 -143 47t-59 131q0 113 86 224q-81 -6 -86 -6q-214 0 -357 143t-143 387q0 117 37.5 215.5t102.5 165.5t153.5 104t189.5 37q201 0 324.5 -127.5t134.5 -343.5q4 -82 4 -96h-737q3 -145 90 -229q90 -84 209 -84q88 0 162 40.5t116 114.5
l148 -104q-40 -75 -121 -131q-149 -137 -149 -271q0 -37 19 -55t50 -18q45 0 90 39zM563 862q-105 0 -180.5 -63t-85.5 -176h520q-11 116 -82.5 177.5t-171.5 61.5z" />
    <glyph glyph-name="Ecaron" unicode="&#x11a;" horiz-adv-x="1230" 
d="M1135 195v-195h-959v1434h952v-195h-733v-334h682v-194h-682v-516h740zM944 1884v-162l-285 -161l-280 161v162l285 -147z" />
    <glyph glyph-name="ecaron" unicode="&#x11b;" horiz-adv-x="1110" 
d="M1018 205q-57 -104 -172 -163.5t-262 -59.5q-214 0 -357 143t-143 387q0 117 37.5 215.5t102.5 165.5t153.5 104t189.5 37q201 0 324.5 -127.5t134.5 -343.5q4 -82 4 -96h-737q3 -145 90 -229q90 -84 209 -84q88 0 162 40.5t116 114.5zM563 862q-105 0 -180.5 -63
t-85.5 -176h520q-11 116 -82.5 177.5t-171.5 61.5zM829 1483v-162l-264 -156l-260 156v162l266 -142z" />
    <glyph glyph-name="Gcircumflex" unicode="&#x11c;" horiz-adv-x="1503" 
d="M1409 631q0 -199 -87.5 -349t-231 -226t-320.5 -76q-144 0 -268.5 54t-214.5 150t-141.5 235.5t-51.5 303.5q0 213 87 381t240.5 261t346.5 93q216 0 379 -100q166 -100 231 -307l-209 -66q-35 112 -140.5 190t-260.5 78q-199 0 -322.5 -151t-123.5 -379
q0 -236 124.5 -388.5t323.5 -152.5q159 0 271.5 86.5t138.5 229.5h-392v190h621v-57zM485 1540v162l285 162l281 -162v-162l-285 148z" />
    <glyph glyph-name="gcircumflex" unicode="&#x11d;" horiz-adv-x="1052" 
d="M969 -113q0 -136 -116 -217.5t-312 -81.5h-70q-182 0 -301 70t-119 205q0 85 54.5 145t150.5 90q-74 46 -74 121q0 92 105 150q-84 46 -132.5 124.5t-48.5 180.5q0 107 56 189.5t146.5 124.5t199.5 42q40 0 124 -11t167 -11h207v-162l-158 2q53 -82 53 -174
q0 -163 -112 -261t-281 -98q-70 0 -99.5 -23t-29.5 -52q0 -67 119 -70l151 -6q157 -6 238.5 -81t81.5 -196zM301 674q0 -87 58 -140t147 -53t146 53t57 140q0 84 -57.5 137t-145.5 53q-89 0 -147 -53t-58 -137zM475 -250h70q109 0 167 34t58 95t-51 93t-150 32h-92
q-229 -3 -229 -129q0 -61 60.5 -93t166.5 -32zM264 1157v162l264 156l260 -156v-162l-266 141z" />
    <glyph glyph-name="Gbreve" unicode="&#x11e;" horiz-adv-x="1503" 
d="M1409 631q0 -199 -87.5 -349t-231 -226t-320.5 -76q-144 0 -268.5 54t-214.5 150t-141.5 235.5t-51.5 303.5q0 213 87 381t240.5 261t346.5 93q216 0 379 -100q166 -100 231 -307l-209 -66q-35 112 -140.5 190t-260.5 78q-199 0 -322.5 -151t-123.5 -379
q0 -236 124.5 -388.5t323.5 -152.5q159 0 271.5 86.5t138.5 229.5h-392v190h621v-57zM768 1575q-136 0 -220 73t-85 195h151q0 -57 40.5 -92t113.5 -35t113.5 35t42.5 92h151q-1 -122 -88 -195t-219 -73z" />
    <glyph glyph-name="gbreve" unicode="&#x11f;" horiz-adv-x="1052" 
d="M969 -113q0 -136 -116 -217.5t-312 -81.5h-70q-182 0 -301 70t-119 205q0 85 54.5 145t150.5 90q-74 46 -74 121q0 92 105 150q-84 46 -132.5 124.5t-48.5 180.5q0 107 56 189.5t146.5 124.5t199.5 42q40 0 124 -11t167 -11h207v-162l-158 2q53 -82 53 -174
q0 -163 -112 -261t-281 -98q-70 0 -99.5 -23t-29.5 -52q0 -67 119 -70l151 -6q157 -6 238.5 -81t81.5 -196zM301 674q0 -87 58 -140t147 -53t146 53t57 140q0 84 -57.5 137t-145.5 53q-89 0 -147 -53t-58 -137zM475 -250h70q109 0 167 34t58 95t-51 93t-150 32h-92
q-229 -3 -229 -129q0 -61 60.5 -93t166.5 -32zM526 1167q-117 0 -192 72.5t-76 192.5h150q0 -57 31 -91t87 -34t88.5 34.5t32.5 90.5h150q-1 -120 -79 -192.5t-192 -72.5z" />
    <glyph glyph-name="Gdotaccent" unicode="&#x120;" horiz-adv-x="1503" 
d="M1409 631q0 -199 -87.5 -349t-231 -226t-320.5 -76q-144 0 -268.5 54t-214.5 150t-141.5 235.5t-51.5 303.5q0 213 87 381t240.5 261t346.5 93q216 0 379 -100q166 -100 231 -307l-209 -66q-35 112 -140.5 190t-260.5 78q-199 0 -322.5 -151t-123.5 -379
q0 -236 124.5 -388.5t323.5 -152.5q159 0 271.5 86.5t138.5 229.5h-392v190h621v-57zM768 1610q-54 0 -90.5 36t-36.5 91t36.5 92t90.5 37q56 0 92.5 -37t36.5 -92t-36.5 -91t-92.5 -36z" />
    <glyph glyph-name="gdotaccent" unicode="&#x121;" horiz-adv-x="1052" 
d="M969 -113q0 -136 -116 -217.5t-312 -81.5h-70q-182 0 -301 70t-119 205q0 85 54.5 145t150.5 90q-74 46 -74 121q0 92 105 150q-84 46 -132.5 124.5t-48.5 180.5q0 107 56 189.5t146.5 124.5t199.5 42q40 0 124 -11t167 -11h207v-162l-158 2q53 -82 53 -174
q0 -163 -112 -261t-281 -98q-70 0 -99.5 -23t-29.5 -52q0 -67 119 -70l151 -6q157 -6 238.5 -81t81.5 -196zM301 674q0 -87 58 -140t147 -53t146 53t57 140q0 84 -57.5 137t-145.5 53q-89 0 -147 -53t-58 -137zM475 -250h70q109 0 167 34t58 95t-51 93t-150 32h-92
q-229 -3 -229 -129q0 -61 60.5 -93t166.5 -32zM524 1198q-54 0 -90.5 36t-36.5 91t36.5 92t90.5 37q56 0 92.5 -37t36.5 -92t-36.5 -91t-92.5 -36z" />
    <glyph glyph-name="Gcommaaccent" unicode="&#x122;" horiz-adv-x="1503" 
d="M1409 631q0 -199 -87.5 -349t-231 -226t-320.5 -76q-144 0 -268.5 54t-214.5 150t-141.5 235.5t-51.5 303.5q0 213 87 381t240.5 261t346.5 93q216 0 379 -100q166 -100 231 -307l-209 -66q-35 112 -140.5 190t-260.5 78q-199 0 -322.5 -151t-123.5 -379
q0 -236 124.5 -388.5t323.5 -152.5q159 0 271.5 86.5t138.5 229.5h-392v190h621v-57zM670 -487l61 151q-30 9 -55 38.5t-25 70.5q0 49 36.5 82.5t82.5 33.5q50 0 84.5 -34t34.5 -82q0 -53 -37 -135l-55 -125h-127z" />
    <glyph glyph-name="gcommaaccent" unicode="&#x123;" horiz-adv-x="1052" 
d="M969 -113q0 -136 -116 -217.5t-312 -81.5h-70q-182 0 -301 70t-119 205q0 85 54.5 145t150.5 90q-74 46 -74 121q0 92 105 150q-84 46 -132.5 124.5t-48.5 180.5q0 107 56 189.5t146.5 124.5t199.5 42q40 0 124 -11t167 -11h207v-162l-158 2q53 -82 53 -174
q0 -163 -112 -261t-281 -98q-70 0 -99.5 -23t-29.5 -52q0 -67 119 -70l151 -6q157 -6 238.5 -81t81.5 -196zM301 674q0 -87 58 -140t147 -53t146 53t57 140q0 84 -57.5 137t-145.5 53q-89 0 -147 -53t-58 -137zM475 -250h70q109 0 167 34t58 95t-51 93t-150 32h-92
q-229 -3 -229 -129q0 -61 60.5 -93t166.5 -32zM629 1524l-62 -152q30 -9 55 -38t25 -70q0 -49 -36.5 -83t-82.5 -34q-50 0 -84 34.5t-34 82.5q0 55 36 135l56 125h127z" />
    <glyph glyph-name="Hcircumflex" unicode="&#x124;" horiz-adv-x="1501" 
d="M1106 0v750h-711v-750h-219v1434h219v-490h711v490h219v-1434h-219zM467 1540v162l285 162l280 -162v-162l-284 148z" />
    <glyph glyph-name="hcircumflex" unicode="&#x125;" horiz-adv-x="1191" 
d="M618 844q-80 0 -145.5 -50t-97.5 -137v-657h-209v1470h209v-593q98 155 299 155q167 0 266.5 -104t99.5 -305v-623h-206v594q0 125 -57 187.5t-159 62.5zM369 1573v162l264 155l260 -155v-162l-266 141z" />
    <glyph glyph-name="Hbar" unicode="&#x126;" horiz-adv-x="1507" 
d="M1110 0v645h-711v-645h-219v1053h-143v155h143v226h219v-226h711v226h219v-226h144v-155h-144v-1053h-219zM399 840h711v213h-711v-213z" />
    <glyph glyph-name="hbar" unicode="&#x127;" horiz-adv-x="1191" 
d="M618 844q-80 0 -145.5 -50t-97.5 -137v-657h-209v1180h-182v137h182v153h209v-153h297v-137h-297v-303q98 155 299 155q167 0 266.5 -104t99.5 -305v-623h-206v594q0 125 -57 187.5t-159 62.5z" />
    <glyph glyph-name="Itilde" unicode="&#x128;" horiz-adv-x="571" 
d="M176 0v1434h219v-1434h-219zM397 1587q-43 0 -84.5 20.5t-75.5 41t-57 20.5q-56 0 -67 -74l-123 21q2 86 53.5 143.5t130.5 57.5q42 0 83 -21t75 -42t59 -21q31 0 47.5 21t18.5 52l125 -18q-2 -87 -54 -144t-131 -57z" />
    <glyph glyph-name="itilde" unicode="&#x129;" 
d="M166 0v1008h209v-1008h-209zM383 1178q-43 0 -84.5 20.5t-75.5 41t-57 20.5q-57 0 -68 -74l-123 20q2 86 54 143.5t131 57.5q42 0 83 -21t75 -42t59 -21q30 0 46.5 21t18.5 53l125 -19q-2 -87 -53.5 -143.5t-130.5 -56.5z" />
    <glyph glyph-name="Imacron" unicode="&#x12a;" horiz-adv-x="571" 
d="M176 0v1434h219v-1434h-219zM41 1642v146h491v-146h-491z" />
    <glyph glyph-name="imacron" unicode="&#x12b;" 
d="M166 0v1008h209v-1008h-209zM31 1233v143h481v-143h-481z" />
    <glyph glyph-name="Ibreve" unicode="&#x12c;" horiz-adv-x="571" 
d="M176 0v1434h219v-1434h-219zM287 1581q-115 0 -188 70.5t-74 191.5h149q0 -57 29.5 -91t83.5 -34t83 34t29 91h148q-1 -120 -74.5 -191t-185.5 -71z" />
    <glyph glyph-name="ibreve" unicode="&#x12d;" 
d="M166 0v1008h209v-1008h-209zM270 1171q-115 0 -188 71t-74 192h150q0 -57 29 -91t83 -34t83.5 34t29.5 91h147q-1 -120 -75 -191.5t-185 -71.5z" />
    <glyph glyph-name="Iogonek" unicode="&#x12e;" horiz-adv-x="571" 
d="M176 0v1434h219v-1434h-219zM242 -414q-85 0 -145 44.5t-60 127.5q0 89 64 162t182 139l112 -59q-81 -35 -137.5 -90.5t-56.5 -114.5q0 -34 19.5 -49.5t49.5 -15.5q51 0 90 39l78 -103q-77 -80 -196 -80z" />
    <glyph glyph-name="iogonek" unicode="&#x12f;" 
d="M270 1194q-56 0 -93.5 38t-37.5 93q0 57 37.5 94t93.5 37t93.5 -37t37.5 -94q0 -55 -37.5 -93t-93.5 -38zM166 0v1008h209v-1008h-209zM221 -414q-85 0 -145 44.5t-60 127.5q0 89 64 162t182 139l113 -59q-81 -36 -138 -91t-57 -114q0 -34 20 -49.5t50 -15.5q51 0 90 39
l78 -103q-36 -37 -88 -58.5t-109 -21.5z" />
    <glyph glyph-name="Idot" unicode="&#x130;" horiz-adv-x="571" 
d="M176 0v1434h219v-1434h-219zM285 1610q-54 0 -90.5 36t-36.5 91t36.5 92t90.5 37q55 0 92 -37t37 -92t-36.5 -91t-92.5 -36z" />
    <glyph glyph-name="dotlessi" unicode="&#x131;" 
d="M166 0v1008h209v-1008h-209z" />
    <glyph glyph-name="IJ" unicode="&#x132;" horiz-adv-x="1331" 
d="M805 -16q-146 0 -252 75l113 179q65 -52 137 -52q145 0 145 197v1051h219v-1055q0 -197 -95 -296t-267 -99zM176 0v1434h219v-1434h-219z" />
    <glyph glyph-name="ij" unicode="&#x133;" horiz-adv-x="1081" 
d="M270 1194q-56 0 -93.5 38t-37.5 93q0 57 37.5 94t93.5 37t93.5 -37t37.5 -94q0 -55 -37.5 -93t-93.5 -38zM166 0v1008h209v-1008h-209zM811 1194q-55 0 -93 38t-38 93q0 57 37.5 94t93.5 37t93.5 -37t37.5 -94q0 -55 -38 -93t-93 -38zM915 1008v-1127
q0 -146 -81.5 -220.5t-215.5 -74.5q-81 0 -151.5 34.5t-108.5 94.5l136 123q43 -69 112 -69q44 0 72.5 28t28.5 82v1129h208z" />
    <glyph glyph-name="Jcircumflex" unicode="&#x134;" horiz-adv-x="1064" 
d="M467 -18q-187 0 -305 104.5t-144 304.5l211 41q31 -248 242 -248q92 0 152.5 64.5t60.5 187.5v998h219v-998q0 -216 -120.5 -335t-315.5 -119zM512 1540v162l285 162l280 -162v-162l-284 148z" />
    <glyph glyph-name="jcircumflex" unicode="&#x135;" 
d="M375 1008v-1127q0 -146 -81.5 -220.5t-215.5 -74.5q-81 0 -151.5 34.5t-108.5 94.5l135 123q43 -69 113 -69q44 0 72 28t28 82v1129h209zM8 1159v162l264 156l260 -156v-162l-266 141z" />
    <glyph glyph-name="Kcommaaccent" unicode="&#x136;" horiz-adv-x="1316" 
d="M1044 0l-462 807l-187 -178v-629h-219v1434h219v-549l582 549h293l-516 -478l549 -956h-259zM582 -487l61 151q-30 9 -55 38.5t-25 70.5q0 49 36.5 82.5t82.5 33.5q50 0 84.5 -34t34.5 -82q0 -53 -37 -135l-55 -125h-127z" />
    <glyph glyph-name="kcommaaccent" unicode="&#x137;" horiz-adv-x="1085" 
d="M817 0l-319 551l-127 -117v-434h-205v1470h205v-808l401 346h279l-394 -332l402 -676h-242zM473 -487l62 151q-30 9 -55 38.5t-25 70.5q0 49 36 82.5t82 33.5q50 0 84.5 -34t34.5 -82q0 -53 -37 -135l-55 -125h-127z" />
    <glyph glyph-name="kgreenlandic" unicode="&#x138;" horiz-adv-x="1075" 
d="M817 0l-317 547l-129 -119v-428h-205v1008h205v-351l401 351h279l-392 -334l400 -674h-242z" />
    <glyph glyph-name="Lacute" unicode="&#x139;" horiz-adv-x="1091" 
d="M176 0v1434h219v-1239h654v-195h-873zM190 1567v4l144 289h231v-5l-205 -288h-170z" />
    <glyph glyph-name="lacute" unicode="&#x13a;" 
d="M166 0v1470h209v-1470h-209zM174 1550v4l143 289h232v-4l-205 -289h-170z" />
    <glyph glyph-name="Lcommaaccent" unicode="&#x13b;" horiz-adv-x="1091" 
d="M176 0v1434h219v-1239h654v-195h-873zM524 -487l62 151q-30 9 -55 38.5t-25 70.5q0 49 36.5 82.5t82.5 33.5q50 0 84 -34t34 -82q0 -55 -36 -135l-56 -125h-127z" />
    <glyph glyph-name="lcommaaccent" unicode="&#x13c;" 
d="M166 0v1470h209v-1470h-209zM168 -487l61 151q-30 9 -54.5 38.5t-24.5 70.5q0 49 36 82.5t82 33.5q50 0 84.5 -34t34.5 -82q0 -53 -37 -135l-55 -125h-127z" />
    <glyph glyph-name="Lcaron" unicode="&#x13d;" horiz-adv-x="1091" 
d="M176 0v1434h219v-1239h654v-195h-873zM608 1069l62 152q-30 9 -55 38t-25 70q0 49 36.5 83t82.5 34q50 0 84 -34.5t34 -82.5q0 -55 -36 -135l-56 -125h-127z" />
    <glyph glyph-name="lcaron" unicode="&#x13e;" 
d="M487 1135l88 335h187l-100 -335h-175zM166 0v1470h209v-1470h-209z" />
    <glyph glyph-name="Ldot" unicode="&#x13f;" horiz-adv-x="1093" 
d="M176 0v1434h219v-1239h654v-195h-873zM805 623q-60 0 -100.5 41.5t-40.5 101.5q0 58 41 99.5t100 41.5q57 0 99 -42t42 -99q0 -60 -42 -101.5t-99 -41.5z" />
    <glyph glyph-name="ldot" unicode="&#x140;" horiz-adv-x="804" 
d="M166 0v1470h209v-1470h-209zM633 573q-60 0 -100.5 42t-40.5 102q0 58 41 99.5t100 41.5q57 0 99 -42t42 -99q0 -60 -42 -102t-99 -42z" />
    <glyph glyph-name="Lslash" unicode="&#x141;" horiz-adv-x="1110" 
d="M1065 195v-195h-872v428l-154 -82v182l154 80v826h219v-727l397 211v-183l-397 -209v-331h653z" />
    <glyph glyph-name="lslash" unicode="&#x142;" horiz-adv-x="593" 
d="M563 805l-164 -86v-719h-209v606l-159 -84v183l159 83v682h209v-571l164 86v-180z" />
    <glyph glyph-name="Nacute" unicode="&#x143;" horiz-adv-x="1497" 
d="M1110 0l-719 1053v-1053h-215v1434h211l721 -1061v1061h213v-1434h-211zM653 1567v4l144 289h231v-5l-205 -288h-170z" />
    <glyph glyph-name="nacute" unicode="&#x144;" horiz-adv-x="1191" 
d="M618 844q-80 0 -145.5 -50t-97.5 -137v-657h-209v1008h209v-131q98 155 299 155q167 0 266.5 -104t99.5 -305v-623h-206v594q0 125 -57 187.5t-159 62.5zM528 1157v4l144 289h231v-4l-205 -289h-170z" />
    <glyph glyph-name="Ncommaaccent" unicode="&#x145;" horiz-adv-x="1497" 
d="M1110 0l-719 1053v-1053h-215v1434h211l721 -1061v1061h213v-1434h-211zM649 -487l62 151q-30 9 -55 38.5t-25 70.5q0 49 36.5 82.5t82.5 33.5q50 0 84 -34t34 -82q0 -53 -37 -135l-55 -125h-127z" />
    <glyph glyph-name="ncommaaccent" unicode="&#x146;" horiz-adv-x="1191" 
d="M618 844q-80 0 -145.5 -50t-97.5 -137v-657h-209v1008h209v-131q98 155 299 155q167 0 266.5 -104t99.5 -305v-623h-206v594q0 125 -57 187.5t-159 62.5zM496 -487l61 151q-30 9 -55 38.5t-25 70.5q0 49 36.5 82.5t82.5 33.5q50 0 84.5 -34t34.5 -82q0 -53 -37 -135
l-55 -125h-127z" />
    <glyph glyph-name="Ncaron" unicode="&#x147;" horiz-adv-x="1497" 
d="M1110 0l-719 1053v-1053h-215v1434h211l721 -1061v1061h213v-1434h-211zM1036 1884v-162l-284 -161l-281 161v162l285 -147z" />
    <glyph glyph-name="ncaron" unicode="&#x148;" horiz-adv-x="1191" 
d="M618 844q-80 0 -145.5 -50t-97.5 -137v-657h-209v1008h209v-131q98 155 299 155q167 0 266.5 -104t99.5 -305v-623h-206v594q0 125 -57 187.5t-159 62.5zM885 1483v-162l-264 -156l-261 156v162l267 -142z" />
    <glyph glyph-name="Eng" unicode="&#x14a;" horiz-adv-x="1497" 
d="M1108 1434h213v-1563q0 -145 -81 -218t-210 -73q-78 0 -145.5 31.5t-104.5 89.5l135 125q41 -62 103 -62q40 0 65 26t25 79v133l-717 1051v-1053h-215v1434h211l721 -1061v1061z" />
    <glyph glyph-name="eng" unicode="&#x14b;" horiz-adv-x="1191" 
d="M1040 -43q0 -164 -81 -256t-244 -102l-21 186q140 14 140 184v625q0 125 -57 187.5t-159 62.5q-80 0 -145.5 -50t-97.5 -137v-657h-209v1008h209v-131q98 155 299 155q167 0 266.5 -104t99.5 -305v-666z" />
    <glyph glyph-name="Omacron" unicode="&#x14c;" horiz-adv-x="1546" 
d="M772 -20q-143 0 -267.5 53.5t-215.5 149t-143 235.5t-52 305q0 157 51.5 294t141 233.5t215.5 152t270 55.5q194 0 349.5 -93.5t243 -261.5t87.5 -380q0 -164 -53 -304t-144.5 -235.5t-216.5 -149.5t-266 -54zM772 184q200 0 326.5 153t126.5 386q0 146 -55.5 266
t-159.5 192t-238 72q-133 0 -236.5 -71t-158.5 -191.5t-55 -267.5q0 -152 56 -274.5t159.5 -193.5t234.5 -71zM528 1642v146h492v-146h-492z" />
    <glyph glyph-name="omacron" unicode="&#x14d;" horiz-adv-x="1155" 
d="M578 -20q-211 0 -352.5 146.5t-141.5 381.5q0 119 39 218.5t106.5 166.5t157.5 104t191 37q211 0 353 -144.5t142 -381.5q0 -117 -39 -216.5t-106 -167.5t-158 -106t-192 -38zM578 166q124 0 203 92.5t79 249.5q0 155 -80.5 246.5t-201.5 91.5q-123 0 -203 -90.5
t-80 -247.5q0 -156 80.5 -249t202.5 -93zM338 1233v143h481v-143h-481z" />
    <glyph glyph-name="Obreve" unicode="&#x14e;" horiz-adv-x="1546" 
d="M772 -20q-143 0 -267.5 53.5t-215.5 149t-143 235.5t-52 305q0 157 51.5 294t141 233.5t215.5 152t270 55.5q194 0 349.5 -93.5t243 -261.5t87.5 -380q0 -164 -53 -304t-144.5 -235.5t-216.5 -149.5t-266 -54zM772 184q200 0 326.5 153t126.5 386q0 146 -55.5 266
t-159.5 192t-238 72q-133 0 -236.5 -71t-158.5 -191.5t-55 -267.5q0 -152 56 -274.5t159.5 -193.5t234.5 -71zM772 1575q-136 0 -220 73t-85 195h151q0 -57 40.5 -92t113.5 -35t113.5 35t42.5 92h151q-1 -122 -88 -195t-219 -73z" />
    <glyph glyph-name="obreve" unicode="&#x14f;" horiz-adv-x="1155" 
d="M578 -20q-211 0 -352.5 146.5t-141.5 381.5q0 119 39 218.5t106.5 166.5t157.5 104t191 37q211 0 353 -144.5t142 -381.5q0 -117 -39 -216.5t-106 -167.5t-158 -106t-192 -38zM578 166q124 0 203 92.5t79 249.5q0 155 -80.5 246.5t-201.5 91.5q-123 0 -203 -90.5
t-80 -247.5q0 -156 80.5 -249t202.5 -93zM578 1169q-117 0 -192.5 72.5t-76.5 192.5h150q0 -57 31.5 -91t87.5 -34t88 34.5t32 90.5h150q-1 -120 -78.5 -192.5t-191.5 -72.5z" />
    <glyph glyph-name="Ohungarumlaut" unicode="&#x150;" horiz-adv-x="1546" 
d="M772 -20q-143 0 -267.5 53.5t-215.5 149t-143 235.5t-52 305q0 157 51.5 294t141 233.5t215.5 152t270 55.5q194 0 349.5 -93.5t243 -261.5t87.5 -380q0 -164 -53 -304t-144.5 -235.5t-216.5 -149.5t-266 -54zM772 184q200 0 326.5 153t126.5 386q0 146 -55.5 266
t-159.5 192t-238 72q-133 0 -236.5 -71t-158.5 -191.5t-55 -267.5q0 -152 56 -274.5t159.5 -193.5t234.5 -71zM555 1567l135 293h180l-174 -293h-141zM834 1567l174 293h192l-219 -293h-147z" />
    <glyph glyph-name="ohungarumlaut" unicode="&#x151;" horiz-adv-x="1155" 
d="M578 -20q-211 0 -352.5 146.5t-141.5 381.5q0 119 39 218.5t106.5 166.5t157.5 104t191 37q211 0 353 -144.5t142 -381.5q0 -117 -39 -216.5t-106 -167.5t-158 -106t-192 -38zM578 166q124 0 203 92.5t79 249.5q0 155 -80.5 246.5t-201.5 91.5q-123 0 -203 -90.5
t-80 -247.5q0 -156 80.5 -249t202.5 -93zM360 1157l136 293h180l-174 -293h-142zM639 1157l174 293h193l-220 -293h-147z" />
    <glyph glyph-name="OE" unicode="&#x152;" horiz-adv-x="2004" 
d="M94 723q0 205 86.5 367.5t239.5 253t344 90.5h1141v-195h-734v-334h682v-194h-682v-516h740v-195h-1147q-142 0 -266 52.5t-213 146t-140 229t-51 295.5zM764 199h188v1036h-188q-132 0 -234 -69t-155 -185t-53 -258q0 -147 54 -266t155.5 -188.5t232.5 -69.5z" />
    <glyph glyph-name="oe" unicode="&#x153;" horiz-adv-x="1873" 
d="M1782 205q-58 -104 -173 -164.5t-261 -60.5q-125 0 -228 54.5t-164 153.5q-62 -99 -162.5 -153.5t-222.5 -54.5q-210 0 -348.5 146t-138.5 382q0 119 38.5 218.5t104.5 166.5t155 104t189 37q123 0 223 -53.5t160 -151.5q62 98 159.5 151.5t217.5 53.5q201 0 324 -127.5
t135 -343.5q4 -82 4 -96h-735q3 -145 90 -229q90 -84 207 -84q87 0 160.5 40.5t117.5 114.5zM1327 862q-104 0 -179 -63t-85 -176h516q-10 116 -81 177.5t-171 61.5zM571 162q121 0 200 94t79 252q0 156 -79.5 250t-199.5 94q-121 0 -198.5 -92t-77.5 -252q0 -157 78 -251.5
t198 -94.5z" />
    <glyph glyph-name="Racute" unicode="&#x154;" horiz-adv-x="1288" 
d="M1008 0l-377 649h-238v-649h-217v1434h559q185 0 308.5 -105.5t123.5 -279.5q0 -171 -112 -283q-67 -67 -185 -98l394 -668h-256zM393 1239v-397h330q98 0 157.5 53t59.5 152q0 88 -63 140t-160 52h-324zM487 1567v4l144 289h231v-5l-205 -288h-170z" />
    <glyph glyph-name="racute" unicode="&#x155;" horiz-adv-x="772" 
d="M551 827q-59 0 -104.5 -39.5t-71.5 -99.5v-688h-209v1008h209v-117q35 59 90 96t125 37q99 0 170 -49l-80 -189q-59 41 -129 41zM324 1157v4l143 289h231v-4l-204 -289h-170z" />
    <glyph glyph-name="Rcommaaccent" unicode="&#x156;" horiz-adv-x="1288" 
d="M1008 0l-377 649h-238v-649h-217v1434h559q185 0 308.5 -105.5t123.5 -279.5q0 -171 -112 -283q-67 -67 -185 -98l394 -668h-256zM393 1239v-397h330q98 0 157.5 53t59.5 152q0 88 -63 140t-160 52h-324zM567 -487l62 151q-30 9 -55 38.5t-25 70.5q0 49 36.5 82.5
t82.5 33.5q50 0 84 -34t34 -82q0 -55 -36 -135l-56 -125h-127z" />
    <glyph glyph-name="rcommaaccent" unicode="&#x157;" horiz-adv-x="772" 
d="M551 827q-59 0 -104.5 -39.5t-71.5 -99.5v-688h-209v1008h209v-117q35 59 90 96t125 37q99 0 170 -49l-80 -189q-59 41 -129 41zM168 -487l61 151q-30 9 -54.5 38.5t-24.5 70.5q0 49 36 82.5t82 33.5q50 0 84.5 -34t34.5 -82q0 -53 -37 -135l-55 -125h-127z" />
    <glyph glyph-name="Rcaron" unicode="&#x158;" horiz-adv-x="1288" 
d="M1008 0l-377 649h-238v-649h-217v1434h559q185 0 308.5 -105.5t123.5 -279.5q0 -171 -112 -283q-67 -67 -185 -98l394 -668h-256zM393 1239v-397h330q98 0 157.5 53t59.5 152q0 88 -63 140t-160 52h-324zM870 1884v-162l-284 -161l-281 161v162l285 -147z" />
    <glyph glyph-name="rcaron" unicode="&#x159;" horiz-adv-x="772" 
d="M551 827q-59 0 -104.5 -39.5t-71.5 -99.5v-688h-209v1008h209v-117q35 59 90 96t125 37q99 0 170 -49l-80 -189q-59 41 -129 41zM682 1483v-162l-264 -156l-260 156v162l266 -142z" />
    <glyph glyph-name="Sacute" unicode="&#x15a;" horiz-adv-x="1232" 
d="M618 -20q-108 0 -200.5 28.5t-169.5 88t-125.5 161.5t-56.5 238l215 18q12 -171 105 -258.5t235 -87.5q122 0 208 60t86 161q0 95 -75.5 154.5t-225.5 103.5l-127 39q-186 57 -269 146.5t-83 230.5q0 172 135.5 283.5t347.5 111.5q219 0 357.5 -114t142.5 -302v-16
l-213 -20v12q-3 136 -88 194q-85 60 -199 60q-117 0 -192.5 -55.5t-75.5 -143.5q0 -74 54 -117t198 -88l131 -39q209 -63 306.5 -165t97.5 -261q0 -188 -147 -305.5t-372 -117.5zM530 1567v4l144 289h231v-5l-205 -288h-170z" />
    <glyph glyph-name="sacute" unicode="&#x15b;" horiz-adv-x="976" 
d="M496 -20q-161 0 -276.5 71.5t-158.5 214.5l179 62q32 -88 98.5 -135.5t157.5 -47.5q86 0 141 35.5t55 100.5q0 35 -17 60t-51.5 41t-71 25t-89.5 17q-156 27 -256 88q-101 64 -101 211q0 142 110 227.5t278 85.5q157 0 256.5 -69t136.5 -185l-178 -57q-49 147 -215 147
q-85 0 -137 -39t-52 -102q0 -71 66 -92q70 -23 159 -37q152 -27 258 -92q105 -65 105 -219q0 -142 -113 -226.5t-284 -84.5zM397 1157v4l144 289h231v-4l-205 -289h-170z" />
    <glyph glyph-name="Scircumflex" unicode="&#x15c;" horiz-adv-x="1232" 
d="M618 -20q-108 0 -200.5 28.5t-169.5 88t-125.5 161.5t-56.5 238l215 18q12 -171 105 -258.5t235 -87.5q122 0 208 60t86 161q0 95 -75.5 154.5t-225.5 103.5l-127 39q-186 57 -269 146.5t-83 230.5q0 172 135.5 283.5t347.5 111.5q219 0 357.5 -114t142.5 -302v-16
l-213 -20v12q-3 136 -88 194q-85 60 -199 60q-117 0 -192.5 -55.5t-75.5 -143.5q0 -74 54 -117t198 -88l131 -39q209 -63 306.5 -165t97.5 -261q0 -188 -147 -305.5t-372 -117.5zM342 1540v162l285 162l280 -162v-162l-284 148z" />
    <glyph glyph-name="scircumflex" unicode="&#x15d;" horiz-adv-x="976" 
d="M496 -20q-161 0 -276.5 71.5t-158.5 214.5l179 62q32 -88 98.5 -135.5t157.5 -47.5q86 0 141 35.5t55 100.5q0 35 -17 60t-51.5 41t-71 25t-89.5 17q-156 27 -256 88q-101 64 -101 211q0 142 110 227.5t278 85.5q157 0 256.5 -69t136.5 -185l-178 -57q-49 147 -215 147
q-85 0 -137 -39t-52 -102q0 -71 66 -92q70 -23 159 -37q152 -27 258 -92q105 -65 105 -219q0 -142 -113 -226.5t-284 -84.5zM231 1159v162l265 156l260 -156v-162l-267 141z" />
    <glyph glyph-name="Scedilla" unicode="&#x15e;" horiz-adv-x="1232" 
d="M618 -20q-108 0 -200.5 28.5t-169.5 88t-125.5 161.5t-56.5 238l215 18q12 -171 105 -258.5t235 -87.5q122 0 208 60t86 161q0 95 -75.5 154.5t-225.5 103.5l-127 39q-186 57 -269 146.5t-83 230.5q0 172 135.5 283.5t347.5 111.5q219 0 357.5 -114t142.5 -302v-16
l-213 -20v12q-3 136 -88 194q-85 60 -199 60q-117 0 -192.5 -55.5t-75.5 -143.5q0 -74 54 -117t198 -88l131 -39q209 -63 306.5 -165t97.5 -261q0 -188 -147 -305.5t-372 -117.5zM621 -436q-89 0 -156 22l31 117q67 -25 120 -25q40 0 64.5 17.5t24.5 48.5q0 30 -27 48
t-72 18q-16 0 -45 -4t-35 -5l52 236h120l-34 -125q78 -2 130 -45t52 -121q0 -89 -62 -135.5t-163 -46.5z" />
    <glyph glyph-name="scedilla" unicode="&#x15f;" horiz-adv-x="976" 
d="M496 -20q-161 0 -276.5 71.5t-158.5 214.5l179 62q32 -88 98.5 -135.5t157.5 -47.5q86 0 141 35.5t55 100.5q0 35 -17 60t-51.5 41t-71 25t-89.5 17q-156 27 -256 88q-101 64 -101 211q0 142 110 227.5t278 85.5q157 0 256.5 -69t136.5 -185l-178 -57q-49 147 -215 147
q-85 0 -137 -39t-52 -102q0 -71 66 -92q70 -23 159 -37q152 -27 258 -92q105 -65 105 -219q0 -142 -113 -226.5t-284 -84.5zM489 -436q-88 0 -155 22l31 117q67 -25 120 -25q39 0 63.5 17.5t24.5 48.5t-26.5 48.5t-71.5 17.5q-16 0 -45 -4t-35 -5l51 236h121l-35 -125
q78 -2 130.5 -45t52.5 -121q0 -89 -62.5 -135.5t-163.5 -46.5z" />
    <glyph glyph-name="Scaron" unicode="&#x160;" horiz-adv-x="1232" 
d="M618 -20q-108 0 -200.5 28.5t-169.5 88t-125.5 161.5t-56.5 238l215 18q12 -171 105 -258.5t235 -87.5q122 0 208 60t86 161q0 95 -75.5 154.5t-225.5 103.5l-127 39q-186 57 -269 146.5t-83 230.5q0 172 135.5 283.5t347.5 111.5q219 0 357.5 -114t142.5 -302v-16
l-213 -20v12q-3 136 -88 194q-85 60 -199 60q-117 0 -192.5 -55.5t-75.5 -143.5q0 -74 54 -117t198 -88l131 -39q209 -63 306.5 -165t97.5 -261q0 -188 -147 -305.5t-372 -117.5zM913 1884v-162l-284 -161l-281 161v162l285 -147z" />
    <glyph glyph-name="scaron" unicode="&#x161;" horiz-adv-x="976" 
d="M496 -20q-161 0 -276.5 71.5t-158.5 214.5l179 62q32 -88 98.5 -135.5t157.5 -47.5q86 0 141 35.5t55 100.5q0 35 -17 60t-51.5 41t-71 25t-89.5 17q-156 27 -256 88q-101 64 -101 211q0 142 110 227.5t278 85.5q157 0 256.5 -69t136.5 -185l-178 -57q-49 147 -215 147
q-85 0 -137 -39t-52 -102q0 -71 66 -92q70 -23 159 -37q152 -27 258 -92q105 -65 105 -219q0 -142 -113 -226.5t-284 -84.5zM756 1483v-162l-264 -156l-261 156v162l267 -142z" />
    <glyph glyph-name="Tcaron" unicode="&#x164;" horiz-adv-x="1177" 
d="M1137 1239h-439v-1239h-219v1239h-438v195h1096v-195zM877 1884v-162l-285 -161l-281 161v162l285 -147z" />
    <glyph glyph-name="tcaron" unicode="&#x165;" horiz-adv-x="751" 
d="M545 1153l82 317h186l-94 -317h-174zM727 84q-87 -100 -248 -100q-130 0 -207 72.5t-77 224.5v550h-154v177h156v290h202v-290h297v-177h-297v-534q0 -72 31.5 -103.5t81.5 -31.5q61 0 115 51z" />
    <glyph glyph-name="Tbar" unicode="&#x166;" horiz-adv-x="1177" 
d="M975 645h-277v-645h-219v645h-276v178h276v416h-438v195h1096v-195h-439v-416h277v-178z" />
    <glyph glyph-name="tbar" unicode="&#x167;" horiz-adv-x="780" 
d="M739 84q-87 -100 -247 -100q-130 0 -207.5 72.5t-77.5 224.5v217h-154v164h154v169h-154v177h156v290h203v-290h297v-177h-297v-169h295v-164h-295v-201q0 -135 112 -135q61 0 115 51z" />
    <glyph glyph-name="Utilde" unicode="&#x168;" horiz-adv-x="1404" 
d="M702 -20q-245 0 -394.5 144.5t-149.5 405.5v904h219v-897q0 -164 88.5 -258.5t236.5 -94.5q149 0 237.5 94t88.5 257v899h219v-902q0 -262 -151 -407t-394 -145zM815 1587q-43 0 -84.5 20.5t-75.5 41t-57 20.5q-57 0 -68 -74l-122 21q2 86 53.5 143.5t130.5 57.5
q42 0 83 -21t75 -42t59 -21q30 0 46.5 20.5t18.5 52.5l125 -18q-2 -87 -53.5 -144t-130.5 -57z" />
    <glyph glyph-name="utilde" unicode="&#x169;" horiz-adv-x="1179" 
d="M805 0v131q-48 -68 -123 -109.5t-172 -41.5q-161 0 -259.5 100t-98.5 293v635h206v-605q0 -118 57.5 -176.5t153.5 -58.5q75 0 139.5 49t96.5 133v658h209v-1008h-209zM694 1178q-43 0 -84.5 20.5t-75.5 41t-57 20.5q-56 0 -67 -74l-123 20q2 86 53.5 143.5t130.5 57.5
q42 0 83 -21t75 -42t59 -21q31 0 47.5 21t18.5 53l125 -19q-2 -87 -54 -143.5t-131 -56.5z" />
    <glyph glyph-name="Umacron" unicode="&#x16a;" horiz-adv-x="1404" 
d="M702 -20q-245 0 -394.5 144.5t-149.5 405.5v904h219v-897q0 -164 88.5 -258.5t236.5 -94.5q149 0 237.5 94t88.5 257v899h219v-902q0 -262 -151 -407t-394 -145zM457 1642v146h491v-146h-491z" />
    <glyph glyph-name="umacron" unicode="&#x16b;" horiz-adv-x="1179" 
d="M805 0v131q-48 -68 -123 -109.5t-172 -41.5q-161 0 -259.5 100t-98.5 293v635h206v-605q0 -118 57.5 -176.5t153.5 -58.5q75 0 139.5 49t96.5 133v658h209v-1008h-209zM342 1233v143h481v-143h-481z" />
    <glyph glyph-name="Ubreve" unicode="&#x16c;" horiz-adv-x="1404" 
d="M702 -20q-245 0 -394.5 144.5t-149.5 405.5v904h219v-897q0 -164 88.5 -258.5t236.5 -94.5q149 0 237.5 94t88.5 257v899h219v-902q0 -262 -151 -407t-394 -145zM702 1575q-136 0 -220 73t-85 195h152q0 -57 40 -92t113 -35t113.5 35t42.5 92h152q-1 -122 -88.5 -195
t-219.5 -73z" />
    <glyph glyph-name="ubreve" unicode="&#x16d;" horiz-adv-x="1179" 
d="M805 0v131q-48 -68 -123 -109.5t-172 -41.5q-161 0 -259.5 100t-98.5 293v635h206v-605q0 -118 57.5 -176.5t153.5 -58.5q75 0 139.5 49t96.5 133v658h209v-1008h-209zM582 1169q-117 0 -192.5 72.5t-76.5 192.5h150q0 -57 31.5 -91t87.5 -34t88 34.5t32 90.5h150
q-1 -120 -78.5 -192.5t-191.5 -72.5z" />
    <glyph glyph-name="Uring" unicode="&#x16e;" horiz-adv-x="1404" 
d="M702 -20q-245 0 -394.5 144.5t-149.5 405.5v904h219v-897q0 -164 88.5 -258.5t236.5 -94.5q149 0 237.5 94t88.5 257v899h219v-902q0 -262 -151 -407t-394 -145zM705 1542q-75 0 -128 50.5t-53 125.5t53 126.5t128 51.5t127.5 -51.5t52.5 -126.5q0 -74 -53 -125t-127 -51
zM705 1640q31 0 54 23t23 55t-23 56t-54 24q-33 0 -55.5 -22.5t-22.5 -57.5q0 -32 23 -55t55 -23z" />
    <glyph glyph-name="uring" unicode="&#x16f;" horiz-adv-x="1179" 
d="M805 0v131q-48 -68 -123 -109.5t-172 -41.5q-161 0 -259.5 100t-98.5 293v635h206v-605q0 -118 57.5 -176.5t153.5 -58.5q75 0 139.5 49t96.5 133v658h209v-1008h-209zM584 1133q-75 0 -128 50.5t-53 125.5t53 126.5t128 51.5t127.5 -51.5t52.5 -126.5q0 -74 -53 -125
t-127 -51zM584 1231q31 0 54.5 23t23.5 55t-23.5 56t-54.5 24q-33 0 -55.5 -22.5t-22.5 -57.5q0 -32 23 -55t55 -23z" />
    <glyph glyph-name="Uhungarumlaut" unicode="&#x170;" horiz-adv-x="1404" 
d="M702 -20q-245 0 -394.5 144.5t-149.5 405.5v904h219v-897q0 -164 88.5 -258.5t236.5 -94.5q149 0 237.5 94t88.5 257v899h219v-902q0 -262 -151 -407t-394 -145zM485 1567l136 293h180l-174 -293h-142zM764 1567l174 293h192l-219 -293h-147z" />
    <glyph glyph-name="uhungarumlaut" unicode="&#x171;" horiz-adv-x="1179" 
d="M805 0v131q-48 -68 -123 -109.5t-172 -41.5q-161 0 -259.5 100t-98.5 293v635h206v-605q0 -118 57.5 -176.5t153.5 -58.5q75 0 139.5 49t96.5 133v658h209v-1008h-209zM365 1157l135 293h180l-174 -293h-141zM643 1157l174 293h193l-219 -293h-148z" />
    <glyph glyph-name="Uogonek" unicode="&#x172;" horiz-adv-x="1404" 
d="M1067 -334q-36 -37 -88 -58.5t-109 -21.5q-86 0 -145 46t-59 132q0 121 94 218q-18 -2 -58 -2q-245 0 -394.5 144.5t-149.5 405.5v904h219v-897q0 -164 88.5 -258.5t236.5 -94.5q149 0 237.5 94t88.5 257v899h219v-902q0 -164 -63 -287t-176 -190q-81 -58 -130 -119
t-49 -135q0 -36 20.5 -53.5t49.5 -17.5q51 0 90 39z" />
    <glyph glyph-name="uogonek" unicode="&#x173;" horiz-adv-x="1179" 
d="M805 0v131q-48 -68 -123 -109.5t-172 -41.5q-161 0 -259.5 100t-98.5 293v635h206v-605q0 -118 57.5 -176.5t153.5 -58.5q75 0 139.5 49t96.5 133v658h209v-1008h-209zM860 -414q-85 0 -145 44.5t-60 127.5q0 89 64 162t182 139l113 -59q-81 -36 -138 -91t-57 -114
q0 -34 20 -49.5t50 -15.5q51 0 90 39l78 -103q-36 -37 -88 -58.5t-109 -21.5z" />
    <glyph glyph-name="Wcircumflex" unicode="&#x174;" horiz-adv-x="1773" 
d="M1171 0l-284 803l-287 -803h-225l-328 1434h219l252 -1131l299 852h148l299 -856l252 1135h210l-329 -1434h-226zM604 1538v162l285 162l280 -162v-162l-284 148z" />
    <glyph glyph-name="wcircumflex" unicode="&#x175;" horiz-adv-x="1378" 
d="M903 0l-215 508l-213 -508h-162l-272 1008h205l182 -693l182 447h166l178 -447l187 693h196l-272 -1008h-162zM428 1159v162l264 156l260 -156v-162l-266 141z" />
    <glyph glyph-name="Ycircumflex" unicode="&#x176;" horiz-adv-x="1171" 
d="M1163 1434l-469 -715v-719h-219v721l-467 713h260l324 -508l323 508h248zM303 1538v162l285 162l280 -162v-162l-284 148z" />
    <glyph glyph-name="ycircumflex" unicode="&#x177;" horiz-adv-x="958" 
d="M944 1008l-598 -1397h-209l242 563l-363 834h217l254 -607l246 607h211zM223 1159v162l264 156l261 -156v-162l-267 141z" />
    <glyph glyph-name="Ydieresis" unicode="&#x178;" horiz-adv-x="1171" 
d="M1163 1434l-469 -715v-719h-219v721l-467 713h260l324 -508l323 508h248zM385 1606q-50 0 -83.5 33.5t-33.5 82.5q0 50 34 83.5t83 33.5t83 -33.5t34 -83.5q0 -49 -33.5 -82.5t-83.5 -33.5zM786 1606q-48 0 -82 33.5t-34 82.5t34 83t82 34q50 0 84.5 -34t34.5 -83
t-34.5 -82.5t-84.5 -33.5z" />
    <glyph glyph-name="Zacute" unicode="&#x179;" horiz-adv-x="1185" 
d="M1120 195v-195h-1061v141l772 1098h-731v195h1014v-142l-770 -1097h776zM496 1567v4l143 289h231v-5l-204 -288h-170z" />
    <glyph glyph-name="zacute" unicode="&#x17a;" horiz-adv-x="933" 
d="M860 176v-176h-788v115l510 716h-498v177h768v-115l-510 -717h518zM365 1157v4l143 289h231v-4l-204 -289h-170z" />
    <glyph glyph-name="Zdotaccent" unicode="&#x17b;" horiz-adv-x="1185" 
d="M1120 195v-195h-1061v141l772 1098h-731v195h1014v-142l-770 -1097h776zM590 1610q-54 0 -90.5 36t-36.5 91t36.5 92t90.5 37q56 0 92.5 -37t36.5 -92t-36.5 -91t-92.5 -36z" />
    <glyph glyph-name="zdotaccent" unicode="&#x17c;" horiz-adv-x="933" 
d="M860 176v-176h-788v115l510 716h-498v177h768v-115l-510 -717h518zM461 1200q-54 0 -90.5 36t-36.5 91t36.5 92t90.5 37q55 0 92 -37t37 -92t-36.5 -91t-92.5 -36z" />
    <glyph glyph-name="Zcaron" unicode="&#x17d;" horiz-adv-x="1185" 
d="M1120 195v-195h-1061v141l772 1098h-731v195h1014v-142l-770 -1097h776zM879 1884v-162l-285 -161l-281 161v162l285 -147z" />
    <glyph glyph-name="zcaron" unicode="&#x17e;" horiz-adv-x="933" 
d="M860 176v-176h-788v115l510 716h-498v177h768v-115l-510 -717h518zM723 1483v-162l-264 -156l-260 156v162l266 -142z" />
    <glyph glyph-name="florin" unicode="&#x192;" horiz-adv-x="942" 
d="M387 -94q-54 -316 -328 -316q-161 0 -241 107l139 127q41 -55 102 -55q49 0 78.5 32t42.5 105l164 925h-180v177h211l26 153q54 318 326 318q156 0 242 -107l-138 -127q-51 55 -104 55q-98 0 -119 -139l-26 -153h206v-177h-237z" />
    <glyph glyph-name="Icaron" unicode="&#x1cf;" horiz-adv-x="571" 
d="M176 0v1434h219v-1434h-219zM573 1884v-162l-284 -161l-281 161v162l285 -147z" />
    <glyph glyph-name="icaron" unicode="&#x1d0;" 
d="M166 0v1008h209v-1008h-209zM532 1483v-162l-264 -156l-260 156v162l266 -142z" />
    <glyph glyph-name="Aringacute" unicode="&#x1fa;" horiz-adv-x="1351" 
d="M1083 0l-170 492h-483l-172 -492h-223l514 1434h254l514 -1434h-234zM670 1217l-183 -533h367l-182 533h-2zM676 1542q-75 0 -127.5 50.5t-52.5 125.5t52.5 126.5t127.5 51.5t127.5 -51.5t52.5 -126.5q0 -74 -53 -125t-127 -51zM676 1640q31 0 54.5 23t23.5 55t-23.5 56
t-54.5 24q-33 0 -55.5 -22.5t-22.5 -57.5q0 -32 23 -55t55 -23zM582 1982v5l143 288h231v-4l-204 -289h-170z" />
    <glyph glyph-name="aringacute" unicode="&#x1fb;" horiz-adv-x="1085" 
d="M717 92q-134 -108 -285 -108q-65 0 -125.5 21t-108.5 59t-77 98t-29 131q0 126 86 201.5t275 126.5l276 71q-6 78 -64.5 121t-148.5 43q-84 0 -145 -37.5t-92 -105.5l-177 73q49 119 165.5 183.5t262.5 64.5q173 0 289 -90q115 -89 115 -274v-670h-201l-2 104zM299 303
q0 -69 51.5 -108t118.5 -39q56 0 104 19t109 67l47 32v256l-201 -53q-124 -34 -176.5 -71t-52.5 -103zM537 1133q-75 0 -128 50.5t-53 125.5t53 126.5t128 51.5t127.5 -51.5t52.5 -126.5q0 -74 -53 -125t-127 -51zM537 1231q31 0 54 23t23 55t-23 56t-54 24
q-33 0 -55.5 -22.5t-22.5 -57.5q0 -32 23 -55t55 -23zM442 1573v4l144 289h231v-4l-205 -289h-170z" />
    <glyph glyph-name="AEacute" unicode="&#x1fc;" horiz-adv-x="1896" 
d="M930 0l-25 512h-416l-247 -512h-234l715 1434h1071v-195h-711l17 -334h645v-194h-635l27 -516h665v-195h-872zM842 1239l-260 -539h313l-27 539h-26zM1149 1563v4l143 288h232v-4l-205 -288h-170z" />
    <glyph glyph-name="aeacute" unicode="&#x1fd;" horiz-adv-x="1748" 
d="M1657 205q-57 -104 -172 -163.5t-262 -59.5q-113 0 -213 43.5t-168 124.5l-74 -52q-168 -114 -340 -114q-64 0 -124 21t-107.5 59t-76 98t-28.5 131q0 126 86.5 201.5t274.5 123.5l274 72q-6 80 -63.5 123t-147.5 43q-84 0 -145 -37.5t-92 -105.5l-177 73
q49 119 165.5 183.5t262.5 64.5q106 0 191.5 -38t136.5 -107q139 145 348 145q201 0 324.5 -127.5t134.5 -343.5q4 -82 4 -96h-737q3 -145 90 -229q90 -84 209 -84q88 0 162 40.5t116 114.5zM1202 862q-105 0 -180.5 -63t-85.5 -176h520q-11 116 -82.5 177.5t-171.5 61.5z
M299 303q0 -70 50 -108.5t118 -38.5q103 0 225 86l70 47q-39 103 -39 223v14l-195 -51q-124 -34 -176.5 -71t-52.5 -101zM780 1157v4l144 289h231v-4l-205 -289h-170z" />
    <glyph glyph-name="Oslashacute" unicode="&#x1fe;" horiz-adv-x="1546" 
d="M772 -20q-184 0 -332 83l-108 -165h-195l174 264q-102 99 -159.5 243t-57.5 318q0 157 51.5 294t141 233.5t215.5 152t270 55.5q183 0 336 -86l106 164h195l-172 -262q102 -100 158.5 -242t56.5 -309q0 -164 -53 -304t-144.5 -235.5t-216.5 -149.5t-266 -54zM322 723
q0 -219 114 -371l553 842q-89 59 -217 59q-133 0 -236.5 -71t-158.5 -191.5t-55 -267.5zM1225 723q0 216 -113 360l-553 -841q98 -58 213 -58q200 0 326.5 153t126.5 386zM655 1567v4l144 289h231v-5l-205 -288h-170z" />
    <glyph glyph-name="oslashacute" unicode="&#x1ff;" horiz-adv-x="1155" 
d="M578 -20q-116 0 -216 47l-79 -129h-160l127 204q-77 71 -121.5 175.5t-44.5 230.5q0 119 39 218.5t106.5 166.5t157.5 104t191 37q119 0 219 -47l75 123h160l-123 -199q77 -71 120.5 -174t43.5 -229q0 -117 -39 -216.5t-106 -167.5t-158 -106t-192 -38zM295 508
q0 -137 63 -229l336 542q-55 25 -116 25q-123 0 -203 -90.5t-80 -247.5zM860 508q0 137 -61 223l-336 -541q53 -24 115 -24q124 0 203 92.5t79 249.5zM475 1157v4l143 289h232v-4l-205 -289h-170z" />
    <glyph glyph-name="Scommaaccent" unicode="&#x218;" horiz-adv-x="1232" 
d="M618 -20q-108 0 -200.5 28.5t-169.5 88t-125.5 161.5t-56.5 238l215 18q12 -171 105 -258.5t235 -87.5q122 0 208 60t86 161q0 95 -75.5 154.5t-225.5 103.5l-127 39q-186 57 -269 146.5t-83 230.5q0 172 135.5 283.5t347.5 111.5q219 0 357.5 -114t142.5 -302v-16
l-213 -20v12q-3 136 -88 194q-85 60 -199 60q-117 0 -192.5 -55.5t-75.5 -143.5q0 -74 54 -117t198 -88l131 -39q209 -63 306.5 -165t97.5 -261q0 -188 -147 -305.5t-372 -117.5zM524 -487l62 151q-30 9 -55 38.5t-25 70.5q0 49 36.5 82.5t82.5 33.5q50 0 84 -34t34 -82
q0 -55 -36 -135l-56 -125h-127z" />
    <glyph glyph-name="scommaaccent" unicode="&#x219;" horiz-adv-x="976" 
d="M496 -20q-161 0 -276.5 71.5t-158.5 214.5l179 62q32 -88 98.5 -135.5t157.5 -47.5q86 0 141 35.5t55 100.5q0 35 -17 60t-51.5 41t-71 25t-89.5 17q-156 27 -256 88q-101 64 -101 211q0 142 110 227.5t278 85.5q157 0 256.5 -69t136.5 -185l-178 -57q-49 147 -215 147
q-85 0 -137 -39t-52 -102q0 -71 66 -92q70 -23 159 -37q152 -27 258 -92q105 -65 105 -219q0 -142 -113 -226.5t-284 -84.5zM393 -487l62 151q-30 9 -55 38.5t-25 70.5q0 49 36.5 82.5t82.5 33.5q50 0 84 -34t34 -82q0 -53 -37 -135l-55 -125h-127z" />
    <glyph glyph-name="Tcommaaccent" unicode="&#x21a;" horiz-adv-x="1177" 
d="M1137 1239h-439v-1239h-219v1239h-438v195h1096v-195zM487 -487l62 151q-30 9 -55 38.5t-25 70.5q0 49 36.5 82.5t82.5 33.5q50 0 84.5 -34t34.5 -82q0 -53 -37 -135l-56 -125h-127z" />
    <glyph glyph-name="tcommaaccent" unicode="&#x21b;" horiz-adv-x="751" 
d="M727 84q-87 -100 -248 -100q-130 0 -207 72.5t-77 224.5v550h-154v177h156v290h202v-290h297v-177h-297v-534q0 -72 31.5 -103.5t81.5 -31.5q61 0 115 51zM330 -487l61 151q-30 9 -55 38.5t-25 70.5q0 49 36.5 82.5t82.5 33.5q50 0 84.5 -34t34.5 -82q0 -53 -37 -135
l-55 -125h-127z" />
    <glyph glyph-name="dotlessj" unicode="&#x237;" 
d="M375 1008v-1127q0 -146 -81.5 -220.5t-215.5 -74.5q-81 0 -151.5 34.5t-108.5 94.5l135 123q43 -69 113 -69q44 0 72 28t28 82v1129h209z" />
    <glyph glyph-name="circumflex" unicode="&#x2c6;" horiz-adv-x="802" 
d="M119 1130v162l284 162l281 -162v-162l-285 148z" />
    <glyph glyph-name="caron" unicode="&#x2c7;" horiz-adv-x="802" 
d="M684 1475v-162l-285 -162l-280 162v162l284 -148z" />
    <glyph glyph-name="breve" unicode="&#x2d8;" horiz-adv-x="765" 
d="M383 1165q-136 0 -220 73.5t-85 195.5h151q0 -57 40.5 -92t113.5 -35t113.5 35t42.5 92h151q-1 -122 -88 -195.5t-219 -73.5z" />
    <glyph glyph-name="dotaccent" unicode="&#x2d9;" horiz-adv-x="440" 
d="M219 1200q-54 0 -90.5 36t-36.5 91t36.5 92t90.5 37q55 0 92 -37t37 -92t-36.5 -91t-92.5 -36z" />
    <glyph glyph-name="ring" unicode="&#x2da;" horiz-adv-x="563" 
d="M283 1133q-75 0 -128 50.5t-53 125.5t53 126.5t128 51.5t127.5 -51.5t52.5 -126.5q0 -74 -53 -125t-127 -51zM283 1231q31 0 54 23t23 55t-23 56t-54 24q-33 0 -55.5 -22.5t-22.5 -57.5q0 -32 23 -55t55 -23z" />
    <glyph glyph-name="ogonek" unicode="&#x2db;" horiz-adv-x="563" 
d="M297 -414q-85 0 -145 44.5t-60 127.5q0 89 64 162t182 139l113 -59q-81 -36 -138 -91t-57 -114q0 -34 20 -49.5t50 -15.5q51 0 90 39l78 -103q-36 -37 -88 -58.5t-109 -21.5z" />
    <glyph glyph-name="tilde" unicode="&#x2dc;" horiz-adv-x="776" 
d="M500 1178q-43 0 -84.5 20.5t-75.5 41t-57 20.5q-57 0 -68 -74l-123 20q2 86 53.5 143.5t130.5 57.5q42 0 83 -21t75.5 -42t59.5 -21q30 0 46.5 21t18.5 53l125 -19q-2 -87 -53.5 -143.5t-130.5 -56.5z" />
    <glyph glyph-name="hungarumlaut" unicode="&#x2dd;" horiz-adv-x="774" 
d="M92 1157l135 293h181l-175 -293h-141zM371 1157l174 293h192l-219 -293h-147z" />
    <glyph glyph-name="uni0401" unicode="&#x401;" horiz-adv-x="1230" 
d="M1135 195v-195h-959v1434h952v-195h-733v-334h682v-194h-682v-516h740zM455 1608q-50 0 -83.5 33.5t-33.5 82.5q0 50 34 83.5t83 33.5t82.5 -33.5t33.5 -83.5t-33.5 -83t-82.5 -33zM856 1608q-48 0 -82.5 33.5t-34.5 82.5t34.5 83t82.5 34q50 0 84.5 -34t34.5 -83
t-34.5 -82.5t-84.5 -33.5z" />
    <glyph glyph-name="uni0402" unicode="&#x402;" horiz-adv-x="1617" 
d="M1499 272q0 -151 -88 -221q-87 -69 -209 -69q-81 0 -149 31t-105 91l139 129q41 -63 103 -63q36 0 63 26t27 78v203q0 92 -60 146.5t-165 54.5h-353v-678h-219v1239h-438v195h1096v-195h-439v-356h375q181 0 301 -99q121 -100 121 -301v-211z" />
    <glyph glyph-name="uni0403" unicode="&#x403;" horiz-adv-x="1075" 
d="M176 0v1434h852v-195h-633v-1239h-219zM508 1567v4l143 289h232v-5l-205 -288h-170z" />
    <glyph glyph-name="uni0404" unicode="&#x404;" horiz-adv-x="1419" 
d="M1346 440q-24 -146 -116 -252.5t-220.5 -157t-278.5 -50.5q-138 0 -254 48.5t-201 140.5t-132.5 234t-47.5 320q0 175 48.5 315.5t134.5 231.5t204.5 139.5t259.5 48.5q201 0 349.5 -96t214.5 -268l-201 -68q-41 105 -134 169.5t-233 64.5q-169 0 -286 -111
q-114 -111 -129 -293h690v-192h-697q9 -225 123 -357q116 -131 297 -131q160 0 263.5 86t134.5 223z" />
    <glyph glyph-name="uni0405" unicode="&#x405;" horiz-adv-x="1232" 
d="M618 -20q-108 0 -200.5 28.5t-169.5 88t-125.5 161.5t-56.5 238l215 18q12 -171 105 -258.5t235 -87.5q122 0 208 60t86 161q0 95 -75.5 154.5t-225.5 103.5l-127 39q-186 57 -269 146.5t-83 230.5q0 172 135.5 283.5t347.5 111.5q219 0 357.5 -114t142.5 -302v-16
l-213 -20v12q-3 136 -88 194q-85 60 -199 60q-117 0 -192.5 -55.5t-75.5 -143.5q0 -74 54 -117t198 -88l131 -39q209 -63 306.5 -165t97.5 -261q0 -188 -147 -305.5t-372 -117.5z" />
    <glyph glyph-name="uni0406" unicode="&#x406;" horiz-adv-x="571" 
d="M176 0v1434h219v-1434h-219z" />
    <glyph glyph-name="uni0407" unicode="&#x407;" horiz-adv-x="571" 
d="M176 0v1434h219v-1434h-219zM86 1608q-50 0 -83.5 33.5t-33.5 82.5q0 50 33.5 83.5t83.5 33.5t83.5 -33.5t33.5 -83.5q0 -49 -33.5 -82.5t-83.5 -33.5zM487 1608q-48 0 -82 33.5t-34 82.5t34 83t82 34q50 0 84.5 -34t34.5 -83t-34.5 -82.5t-84.5 -33.5z" />
    <glyph glyph-name="uni0408" unicode="&#x408;" horiz-adv-x="1064" 
d="M467 -18q-187 0 -305 104.5t-144 304.5l211 41q31 -248 242 -248q92 0 152.5 64.5t60.5 187.5v998h219v-998q0 -216 -120.5 -335t-315.5 -119z" />
    <glyph glyph-name="uni0409" unicode="&#x409;" horiz-adv-x="2103" 
d="M510 1047q-8 -246 -23 -418.5t-43 -291t-58.5 -187t-85 -105t-107.5 -47t-138 -10.5v213q48 0 78.5 10t58.5 43t44.5 88.5t29.5 152.5t20 228.5t11 323.5l10 387h948v-482h252q227 0 371 -123q143 -119 143 -352q0 -232 -143 -354q-141 -123 -367 -123h-475v1239h-520z
M1255 195h258q126 0 205.5 76t79.5 208q0 134 -83 206.5t-212 72.5h-248v-563z" />
    <glyph glyph-name="uni040A" unicode="&#x40a;" horiz-adv-x="2172" 
d="M1106 0v748h-711v-748h-219v1434h219v-490h711v490h219v-482h252q227 0 371 -123q143 -119 143 -352q0 -232 -143 -354q-141 -123 -367 -123h-475zM1325 195h258q127 0 206 76t79 208q0 134 -83 206.5t-212 72.5h-248v-563z" />
    <glyph glyph-name="uni040B" unicode="&#x40b;" horiz-adv-x="1622" 
d="M1055 678h-353v-678h-219v1239h-438v195h1096v-195h-439v-356h375q181 0 301 -99q121 -100 121 -301v-483h-219v477q0 92 -60 146.5t-165 54.5z" />
    <glyph glyph-name="uni040C" unicode="&#x40c;" horiz-adv-x="1312" 
d="M553 1567v4l143 289h232v-5l-205 -288h-170zM1034 0l-477 721h-162v-721h-219v1434h219v-519h166l430 519h264l-514 -607l555 -827h-262z" />
    <glyph glyph-name="uni040E" unicode="&#x40e;" horiz-adv-x="1277" 
d="M780 299q-81 -190 -168 -254q-89 -65 -200 -65q-156 0 -267 108l125 156q66 -66 140 -66q52 0 93 38t83 136l12 29l-547 1053h240l409 -807l340 807h226zM651 1575q-136 0 -220 73t-85 195h152q0 -57 40 -92t113 -35t113.5 35t42.5 92h151q-1 -122 -88 -195t-219 -73z
" />
    <glyph glyph-name="uni040F" unicode="&#x40f;" horiz-adv-x="1482" 
d="M1307 0h-457v-287h-217v287h-457v1434h219v-1239h692v1239h220v-1434z" />
    <glyph glyph-name="uni0410" unicode="&#x410;" horiz-adv-x="1351" 
d="M1083 0l-170 492h-483l-172 -492h-223l514 1434h254l514 -1434h-234zM670 1217l-183 -533h367l-182 533h-2z" />
    <glyph glyph-name="uni0411" unicode="&#x411;" horiz-adv-x="1277" 
d="M176 0v1434h903v-195h-684v-358h279q227 0 364 -113q142 -115 142 -328q0 -212 -142 -327q-140 -113 -366 -113h-496zM395 195h285q124 0 201 65.5t77 181.5q0 118 -82.5 181t-207.5 63h-273v-491z" />
    <glyph glyph-name="uni0412" unicode="&#x412;" horiz-adv-x="1294" 
d="M1194 436q0 -208 -138.5 -322t-379.5 -114h-500v1434h520q205 0 326 -95t121 -260q0 -96 -49 -171.5t-129 -114.5q103 -40 166 -133.5t63 -223.5zM395 1247v-370h336q82 0 137.5 50.5t55.5 135.5q0 100 -72 141q-70 43 -158 43h-299zM395 186h295q126 0 204.5 67.5
t78.5 186.5q0 124 -82.5 189t-212.5 65h-283v-508z" />
    <glyph glyph-name="uni0413" unicode="&#x413;" horiz-adv-x="1075" 
d="M176 0v1434h852v-195h-633v-1239h-219z" />
    <glyph glyph-name="uni0414" unicode="&#x414;" horiz-adv-x="1544" 
d="M74 -287v482h41q42 0 70 11.5t52.5 46t39.5 91.5t26.5 155t18 228.5t10.5 319.5l8 387h977v-1239h149v-482h-219v287h-954v-287h-219zM545 1047q-9 -372 -43 -568q-30 -196 -94 -284h690v1044h-547z" />
    <glyph glyph-name="uni0415" unicode="&#x415;" horiz-adv-x="1230" 
d="M1135 195v-195h-959v1434h952v-195h-733v-334h682v-194h-682v-516h740z" />
    <glyph glyph-name="uni0416" unicode="&#x416;" horiz-adv-x="1968" 
d="M877 0v721h-181l-430 -721h-243l503 829l-463 605h269l389 -519h156v519h217v-519h163l392 519h254l-463 -603l508 -831h-256l-432 721h-166v-721h-217z" />
    <glyph glyph-name="uni0417" unicode="&#x417;" horiz-adv-x="1273" 
d="M1176 430q0 -212 -145 -331t-384 -119q-85 0 -160 15.5t-145.5 52.5t-122.5 93t-86.5 142t-42.5 194l219 29q12 -184 111 -260q101 -78 227 -78q138 0 220.5 69t82.5 201q0 124 -81.5 189t-211.5 65h-254v187h322q85 0 141 49t56 137q0 56 -23 97.5t-64 64.5t-89.5 34
t-106.5 11q-132 0 -212 -57.5t-93 -176.5l-213 33q18 169 155 279t365 110q231 0 366.5 -102.5t135.5 -276.5q0 -105 -52 -181t-141 -116q104 -45 165 -135t61 -219z" />
    <glyph glyph-name="uni0418" unicode="&#x418;" horiz-adv-x="1503" 
d="M1108 0v1067l-729 -1067h-203v1434h219v-1069l731 1069h201v-1434h-219z" />
    <glyph glyph-name="uni0419" unicode="&#x419;" horiz-adv-x="1503" 
d="M748 1575q-136 0 -220.5 73t-85.5 195h152q0 -57 40.5 -92t113.5 -35t113 35t42 92h152q-1 -122 -88 -195t-219 -73zM1108 0v1067l-729 -1067h-203v1434h219v-1069l731 1069h201v-1434h-219z" />
    <glyph glyph-name="uni041A" unicode="&#x41a;" horiz-adv-x="1312" 
d="M1034 0l-477 721h-162v-721h-219v1434h219v-519h166l430 519h264l-514 -607l555 -827h-262z" />
    <glyph glyph-name="uni041B" unicode="&#x41b;" horiz-adv-x="1445" 
d="M55 -12v213q48 0 78.5 10t58.5 43t44.5 88.5t29.5 152.5t20 228.5t11 323.5l10 387h963v-1434h-219v1239h-535l-6 -192q-8 -246 -23 -418.5t-43 -291t-58.5 -187t-85 -105t-107.5 -47t-138 -10.5z" />
    <glyph glyph-name="uni041C" unicode="&#x41c;" horiz-adv-x="1671" 
d="M393 1102v-1102h-217v1434h221l443 -543l440 543h215v-1434h-217v1104l-399 -481h-88z" />
    <glyph glyph-name="uni041D" unicode="&#x41d;" horiz-adv-x="1501" 
d="M1106 0v750h-711v-750h-219v1434h219v-490h711v490h219v-1434h-219z" />
    <glyph glyph-name="uni041E" unicode="&#x41e;" horiz-adv-x="1546" 
d="M772 -20q-143 0 -267.5 53.5t-215.5 149t-143 235.5t-52 305q0 157 51.5 294t141 233.5t215.5 152t270 55.5q194 0 349.5 -93.5t243 -261.5t87.5 -380q0 -164 -53 -304t-144.5 -235.5t-216.5 -149.5t-266 -54zM772 184q200 0 326.5 153t126.5 386q0 146 -55.5 266
t-159.5 192t-238 72q-133 0 -236.5 -71t-158.5 -191.5t-55 -267.5q0 -152 56 -274.5t159.5 -193.5t234.5 -71z" />
    <glyph glyph-name="uni041F" unicode="&#x41f;" horiz-adv-x="1482" 
d="M176 0v1434h1131v-1434h-220v1239h-692v-1239h-219z" />
    <glyph glyph-name="uni0420" unicode="&#x420;" horiz-adv-x="1200" 
d="M707 637h-312v-637h-219v1434h539q185 0 305 -105q121 -103 121 -293q0 -97 -33.5 -173.5t-93 -125.5t-137.5 -74.5t-170 -25.5zM395 1239v-405h297q103 0 162 54t59 146t-61.5 148.5t-161.5 56.5h-295z" />
    <glyph glyph-name="uni0421" unicode="&#x421;" horiz-adv-x="1454" 
d="M762 -20q-140 0 -263 54.5t-212.5 151t-141 235.5t-51.5 302q0 157 51.5 294t140.5 233.5t212 152t262 55.5q220 0 377 -106t223 -312l-211 -61q-35 110 -127 190q-96 84 -262 84q-128 0 -229 -72t-155 -192.5t-54 -265.5q0 -151 54.5 -273.5t156 -194t229.5 -71.5
q171 0 274 103q104 104 131 252l217 -39q-20 -123 -78.5 -222.5t-142 -164t-186.5 -99t-215 -34.5z" />
    <glyph glyph-name="uni0422" unicode="&#x422;" horiz-adv-x="1183" 
d="M1141 1239h-439v-1239h-219v1239h-438v195h1096v-195z" />
    <glyph glyph-name="uni0423" unicode="&#x423;" horiz-adv-x="1277" 
d="M780 299q-81 -190 -168 -254q-89 -65 -200 -65q-156 0 -267 108l125 156q66 -66 140 -66q52 0 93 38t83 136l12 29l-547 1053h240l409 -807l340 807h226z" />
    <glyph glyph-name="uni0424" unicode="&#x424;" horiz-adv-x="1683" 
d="M1028 260h-78v-260h-219v260h-74q-262 0 -417.5 152t-155.5 393q0 114 38 211.5t109.5 170t181 113.5t244.5 41h74v195h219v-195h78q134 0 243 -41t180 -113.5t109.5 -170t38.5 -211.5q0 -241 -155.5 -393t-415.5 -152zM657 453h78v696h-78q-90 0 -160 -28t-112.5 -76.5
t-64 -109.5t-21.5 -130q0 -97 37.5 -175t120.5 -127.5t200 -49.5zM1028 1149h-82v-696h82q116 0 198.5 49.5t120 127.5t37.5 175q0 146 -91 245t-265 99z" />
    <glyph glyph-name="uni0425" unicode="&#x425;" horiz-adv-x="1257" 
d="M983 0l-356 590l-361 -590h-246l469 756l-430 678h254l316 -512l321 512h248l-430 -666l469 -768h-254z" />
    <glyph glyph-name="uni0426" unicode="&#x426;" horiz-adv-x="1533" 
d="M1237 -287v287h-1061v1434h219v-1239h692v1239h220v-1239h149v-482h-219z" />
    <glyph glyph-name="uni0427" unicode="&#x427;" horiz-adv-x="1331" 
d="M1155 1434v-1434h-219v637h-395q-190 0 -309 102t-119 297v398h219v-392q0 -92 60 -146t165 -54h379v592h219z" />
    <glyph glyph-name="uni0428" unicode="&#x428;" horiz-adv-x="2078" 
d="M1903 1434v-1434h-1727v1434h219v-1239h535v1239h219v-1239h534v1239h220z" />
    <glyph glyph-name="uni0429" unicode="&#x429;" horiz-adv-x="2129" 
d="M1833 -287v287h-1657v1434h219v-1239h535v1239h219v-1239h534v1239h220v-1239h149v-482h-219z" />
    <glyph glyph-name="uni042A" unicode="&#x42a;" horiz-adv-x="1390" 
d="M41 1239v195h502v-482h252q226 0 370 -123q144 -120 144 -352q0 -231 -144 -354q-141 -123 -366 -123h-475v1239h-283zM543 195h258q127 0 205.5 75.5t78.5 208.5q0 134 -82.5 206.5t-211.5 72.5h-248v-563z" />
    <glyph glyph-name="uni042B" unicode="&#x42b;" horiz-adv-x="1759" 
d="M1157 477q0 -232 -143 -354q-141 -123 -367 -123h-471v1434h219v-482h248q233 0 373.5 -125t140.5 -350zM1362 0v1434h219v-1434h-219zM395 195h254q126 0 205.5 76t79.5 208q0 134 -83 206.5t-212 72.5h-244v-563z" />
    <glyph glyph-name="uni042C" unicode="&#x42c;" horiz-adv-x="1243" 
d="M1161 477q0 -232 -143 -354q-141 -123 -367 -123h-475v1434h219v-482h252q227 0 371 -123q143 -119 143 -352zM395 195h258q127 0 206 76t79 208q0 134 -83 206.5t-212 72.5h-248v-563z" />
    <glyph glyph-name="uni042D" unicode="&#x42d;" horiz-adv-x="1419" 
d="M1325 723q0 -178 -49 -320t-135.5 -234t-204.5 -140.5t-258 -48.5q-107 0 -206.5 30t-182 86t-140 145t-75.5 199l211 45q31 -137 134 -223t261 -86q184 0 297 131q116 131 125 357h-696v192h690q-15 183 -131 293q-114 111 -283 111q-142 0 -235 -64.5t-134 -169.5
l-200 68q66 172 217 268t354 96q140 0 257 -47.5t202.5 -138t133.5 -231.5t48 -318z" />
    <glyph glyph-name="uni042E" unicode="&#x42e;" horiz-adv-x="2041" 
d="M1948 723q0 -164 -52.5 -303.5t-143 -235.5t-215 -150t-265.5 -54q-268 0 -454.5 178t-215.5 471h-207v-629h-219v1434h219v-617h207q29 284 215.5 462.5t454.5 178.5q193 0 347.5 -93.5t241.5 -261.5t87 -380zM1272 184q132 0 235 70.5t159 193t56 275.5
q0 145 -55.5 265.5t-159 192.5t-235.5 72t-235.5 -71t-158.5 -191.5t-55 -267.5q0 -152 56 -274.5t159 -193.5t234 -71z" />
    <glyph glyph-name="uni042F" unicode="&#x42f;" horiz-adv-x="1290" 
d="M895 0v639h-266l-344 -639h-244l367 659q-128 37 -205.5 135t-77.5 242q0 177 125.5 287.5t310.5 110.5h553v-1434h-219zM571 831h324v408h-324q-96 0 -158.5 -53.5t-62.5 -145.5q0 -99 62 -154t159 -55z" />
    <glyph glyph-name="uni0430" unicode="&#x430;" horiz-adv-x="1085" 
d="M717 92q-134 -108 -285 -108q-65 0 -125.5 21t-108.5 59t-77 98t-29 131q0 126 86 201.5t275 126.5l276 71q-6 78 -64.5 121t-148.5 43q-84 0 -145 -37.5t-92 -105.5l-177 73q49 119 165.5 183.5t262.5 64.5q173 0 289 -90q115 -89 115 -274v-670h-201l-2 104zM299 303
q0 -69 51.5 -108t118.5 -39q56 0 104 19t109 67l47 32v256l-201 -53q-124 -34 -176.5 -71t-52.5 -103z" />
    <glyph glyph-name="uni0431" unicode="&#x431;" horiz-adv-x="1183" 
d="M1098 508q0 -231 -139 -379.5t-355 -148.5q-80 0 -148.5 19t-131.5 66t-107.5 119t-71 184.5t-26.5 256.5q0 159 11.5 276t40 219t77.5 169.5t124.5 112t180.5 62.5l428 74l37 -182l-430 -78q-126 -21 -189 -102q-62 -80 -71 -277q51 59 133.5 95t173.5 36
q94 0 178.5 -37t147.5 -103.5t100 -165.5t37 -216zM330 506q0 -164 82 -252t192 -88q124 0 202.5 92.5t78.5 249.5q0 156 -77.5 247t-197.5 91q-114 0 -197 -77.5t-83 -221.5v-41z" />
    <glyph glyph-name="uni0432" unicode="&#x432;" horiz-adv-x="1075" 
d="M981 307q0 -145 -99.5 -226t-273.5 -81h-442v1008h469q147 0 229 -70t82 -188q0 -70 -33.5 -121.5t-89.5 -77.5q71 -27 114.5 -91.5t43.5 -152.5zM373 848v-230h241q61 0 94 31t33 86q0 52 -34 82.5t-95 30.5h-239zM373 160h229q80 0 125 41t45 110q0 70 -46 113t-126 43
h-227v-307z" />
    <glyph glyph-name="uni0433" unicode="&#x433;" horiz-adv-x="882" 
d="M166 0v1008h670v-177h-461v-831h-209z" />
    <glyph glyph-name="uni0434" unicode="&#x434;" horiz-adv-x="1247" 
d="M57 -266v442h43q35 0 58.5 8t43 32.5t30.5 59.5t19.5 100.5t13.5 144t9 200.5l11 287h766v-832h139v-442h-207v266h-719v-266h-207zM473 717q-11 -217 -29 -343.5t-53 -197.5h451v655h-363z" />
    <glyph glyph-name="uni0435" unicode="&#x435;" horiz-adv-x="1112" 
d="M1018 205q-57 -104 -172 -163.5t-262 -59.5q-214 0 -357 143t-143 387q0 117 37.5 215.5t102.5 165.5t153.5 104t189.5 37q201 0 324.5 -127.5t134.5 -343.5q4 -82 4 -96h-737q3 -145 90 -229q90 -84 209 -84q88 0 162 40.5t116 114.5zM563 862q-105 0 -180.5 -63
t-85.5 -176h520q-11 116 -82.5 177.5t-171.5 61.5z" />
    <glyph glyph-name="uni0436" unicode="&#x436;" horiz-adv-x="1525" 
d="M657 0v487h-118l-289 -487h-223l346 569l-297 439h231l232 -349h118v349h205v-349h123l229 349h228l-291 -430l348 -578h-233l-289 487h-115v-487h-205z" />
    <glyph glyph-name="uni0437" unicode="&#x437;" horiz-adv-x="1038" 
d="M938 297q0 -148 -115 -232.5t-313 -84.5q-375 0 -438 296l178 60q37 -182 258 -182q217 0 217 151q0 74 -55 112t-142 38h-204v159h241q64 0 103 30.5t39 88.5q0 127 -193 127q-101 0 -159.5 -30t-80.5 -107l-176 55q36 125 140 190.5t274 65.5q189 0 295 -75.5
t106 -210.5q0 -69 -36.5 -126t-96.5 -83q72 -31 115 -93t43 -149z" />
    <glyph glyph-name="uni0438" unicode="&#x438;" horiz-adv-x="1210" 
d="M840 0v686l-490 -686h-184v1008h205v-689l489 689h184v-1008h-204z" />
    <glyph glyph-name="uni0439" unicode="&#x439;" horiz-adv-x="1210" 
d="M840 0v686l-490 -686h-184v1008h205v-689l489 689h184v-1008h-204zM604 1165q-136 0 -220 73.5t-85 195.5h152q0 -57 40 -92t113 -35t113.5 35t42.5 92h151q-1 -122 -88 -195.5t-219 -73.5z" />
    <glyph glyph-name="uni043A" unicode="&#x43a;" horiz-adv-x="1073" 
d="M801 0l-324 487h-104v-487h-207v1008h207v-349h114l281 349h240l-351 -430l392 -578h-248z" />
    <glyph glyph-name="uni043B" unicode="&#x43b;" horiz-adv-x="1155" 
d="M63 -8v192q36 0 59 7t42 32t29.5 58t18.5 100t12.5 142t8.5 200l11 285h745v-1008h-209v831h-342l-6 -129q-5 -128 -12.5 -218t-19.5 -169.5t-31 -130t-45 -90.5t-64 -60.5t-85.5 -31t-111.5 -10.5z" />
    <glyph glyph-name="uni043C" unicode="&#x43c;" horiz-adv-x="1464" 
d="M676 293l-303 399v-692h-207v1008h201l366 -484l369 484h196v-1008h-206v696l-310 -403h-106z" />
    <glyph glyph-name="uni043D" unicode="&#x43d;" horiz-adv-x="1210" 
d="M836 0v487h-461v-487h-209v1008h209v-344h461v344h208v-1008h-208z" />
    <glyph glyph-name="uni043E" unicode="&#x43e;" horiz-adv-x="1155" 
d="M578 -20q-211 0 -352.5 146.5t-141.5 381.5q0 119 39 218.5t106.5 166.5t157.5 104t191 37q211 0 353 -144.5t142 -381.5q0 -117 -39 -216.5t-106 -167.5t-158 -106t-192 -38zM578 166q124 0 203 92.5t79 249.5q0 155 -80.5 246.5t-201.5 91.5q-123 0 -203 -90.5
t-80 -247.5q0 -156 80.5 -249t202.5 -93z" />
    <glyph glyph-name="uni043F" unicode="&#x43f;" horiz-adv-x="1208" 
d="M166 0v1008h876v-1008h-208v831h-459v-831h-209z" />
    <glyph glyph-name="uni0440" unicode="&#x440;" horiz-adv-x="1208" 
d="M670 -20q-186 0 -295 122v-491h-209v1397h196v-117q46 63 127.5 102t178.5 39q196 0 324 -143.5t128 -380.5q0 -236 -128 -382t-322 -146zM375 455q1 -134 77.5 -209.5t190.5 -75.5t189 90.5t75 247.5q0 156 -75 246t-191 90q-100 0 -184 -72q-79 -70 -82 -213v-104z" />
    <glyph glyph-name="uni0441" unicode="&#x441;" horiz-adv-x="1071" 
d="M567 -20q-95 0 -181 35.5t-154 100.5t-108 167t-40 225q0 99 26.5 184.5t73 147t108 106t132 66.5t145.5 22q162 0 276 -77t159 -209l-185 -74q-70 172 -248 172q-113 0 -194.5 -89.5t-81.5 -248.5t81.5 -249.5t194.5 -90.5q93 0 159 52t99 147l185 -74
q-49 -152 -167 -232.5t-280 -80.5z" />
    <glyph glyph-name="uni0442" unicode="&#x442;" horiz-adv-x="927" 
d="M47 831v177h836v-177h-314v-831h-209v831h-313z" />
    <glyph glyph-name="uni0443" unicode="&#x443;" horiz-adv-x="958" 
d="M944 1008l-598 -1397h-209l242 563l-363 834h217l254 -607l246 607h211z" />
    <glyph glyph-name="uni0444" unicode="&#x444;" horiz-adv-x="1511" 
d="M897 -16h-37v-373h-209v373h-37q-229 0 -379.5 148t-150.5 376t151 374t379 146h37v442h209v-442h37q149 0 270.5 -65.5t192 -184.5t70.5 -270q0 -228 -151 -376t-382 -148zM616 170h39v672h-39q-141 0 -231 -88.5t-90 -245.5q0 -156 90.5 -247t230.5 -91zM893 842h-37
v-672h37q143 0 233.5 91t90.5 247q0 157 -90 245.5t-234 88.5z" />
    <glyph glyph-name="uni0445" unicode="&#x445;" horiz-adv-x="1001" 
d="M743 0l-245 381l-248 -381h-223l342 514l-334 494h231l238 -357l233 357h224l-328 -488l342 -520h-232z" />
    <glyph glyph-name="uni0446" unicode="&#x446;" horiz-adv-x="1241" 
d="M1182 176v-442h-207v266h-809v1008h209v-832h459v832h208v-832h140z" />
    <glyph glyph-name="uni0447" unicode="&#x447;" horiz-adv-x="1085" 
d="M920 1008v-1008h-209v406h-260q-172 0 -261.5 79t-89.5 252v271h209v-271q0 -87 40 -121t108 -34h254v426h209z" />
    <glyph glyph-name="uni0448" unicode="&#x448;" horiz-adv-x="1665" 
d="M166 0v1008h207v-832h356v832h207v-832h356v832h207v-1008h-1333z" />
    <glyph glyph-name="uni0449" unicode="&#x449;" horiz-adv-x="1697" 
d="M1640 176v-442h-206v266h-1268v1008h207v-832h356v832h207v-832h356v832h207v-832h141z" />
    <glyph glyph-name="uni044A" unicode="&#x44a;" horiz-adv-x="1132" 
d="M31 831v177h454v-344h222q162 0 262 -88t100 -244t-98.5 -244t-259.5 -88h-435v831h-245zM485 172h199q77 0 125.5 42.5t48.5 115.5q0 77 -48.5 120.5t-125.5 43.5h-199v-322z" />
    <glyph glyph-name="uni044B" unicode="&#x44b;" horiz-adv-x="1503" 
d="M946 332q0 -156 -98 -244t-260 -88h-422v1008h209v-344h209q163 0 262.5 -87.5t99.5 -244.5zM1128 0v1008h209v-1008h-209zM375 172h190q77 0 124.5 42t47.5 116q0 77 -48 120.5t-124 43.5h-190v-322z" />
    <glyph glyph-name="uni044C" unicode="&#x44c;" horiz-adv-x="1021" 
d="M958 332q0 -156 -98.5 -244t-259.5 -88h-434v1008h209v-344h221q162 0 262 -88t100 -244zM375 172h198q77 0 126 42.5t49 115.5q0 77 -49 120.5t-126 43.5h-198v-322z" />
    <glyph glyph-name="uni044D" unicode="&#x44d;" horiz-adv-x="1081" 
d="M997 508q0 -129 -39 -231.5t-106 -166t-153.5 -97t-184.5 -33.5q-174 0 -291.5 75t-159.5 219l179 66q32 -92 102 -139t170 -47q112 0 188 75.5t89 223.5h-484v163h475q-22 120 -95 182t-171 62q-188 0 -260 -155l-174 69q50 123 164.5 191.5t273.5 68.5q97 0 182 -33
t151.5 -96t105 -165.5t38.5 -231.5z" />
    <glyph glyph-name="uni044E" unicode="&#x44e;" horiz-adv-x="1595" 
d="M1511 508q0 -117 -38.5 -216.5t-104.5 -167.5t-156 -106t-192 -38q-191 0 -324.5 121.5t-158.5 322.5h-162v-424h-209v1008h209v-406h162q29 198 163.5 315t319.5 117q137 0 248 -63t177 -184t66 -279zM1020 166q121 0 199.5 93t78.5 249t-78.5 247t-199.5 91t-201 -90.5
t-80 -247.5q0 -156 80.5 -249t200.5 -93z" />
    <glyph glyph-name="uni044F" unicode="&#x44f;" horiz-adv-x="1099" 
d="M725 0v385h-219l-197 -385h-229l227 414q-85 33 -136.5 105t-51.5 169q0 142 92 231t240 89h483v-1008h-209zM467 551h258v283h-260q-60 0 -101.5 -36.5t-41.5 -105.5q0 -68 42.5 -104.5t102.5 -36.5z" />
    <glyph glyph-name="uni0451" unicode="&#x451;" horiz-adv-x="1112" 
d="M1018 205q-57 -104 -172 -163.5t-262 -59.5q-214 0 -357 143t-143 387q0 117 37.5 215.5t102.5 165.5t153.5 104t189.5 37q201 0 324.5 -127.5t134.5 -343.5q4 -82 4 -96h-737q3 -145 90 -229q90 -84 209 -84q88 0 162 40.5t116 114.5zM563 862q-105 0 -180.5 -63
t-85.5 -176h520q-11 116 -82.5 177.5t-171.5 61.5zM365 1198q-49 0 -83 34t-34 83t34 83t83 34t82.5 -33.5t33.5 -83.5t-33.5 -83.5t-82.5 -33.5zM766 1198q-48 0 -82.5 34t-34.5 83t34.5 83t82.5 34q50 0 84.5 -34t34.5 -83t-34.5 -83t-84.5 -34z" />
    <glyph glyph-name="uni0452" unicode="&#x452;" horiz-adv-x="1191" 
d="M1040 -43q0 -164 -81 -256t-244 -102l-21 186q140 14 140 184v625q0 125 -57 187.5t-159 62.5q-80 0 -145.5 -50t-97.5 -137v-657h-209v1180h-182v137h182v153h209v-153h297v-137h-297v-303q98 155 299 155q167 0 266.5 -104t99.5 -305v-666z" />
    <glyph glyph-name="uni0453" unicode="&#x453;" horiz-adv-x="882" 
d="M166 0v1008h670v-177h-461v-831h-209zM412 1157v4l143 289h231v-4l-204 -289h-170z" />
    <glyph glyph-name="uni0454" unicode="&#x454;" horiz-adv-x="1081" 
d="M1018 274q-42 -144 -161 -219t-294 -75q-98 0 -183 33t-152 96t-105.5 166t-38.5 233q0 129 39 231.5t106 165.5t152.5 96t181.5 33q163 0 275.5 -68t160.5 -192l-174 -69q-72 155 -260 155q-99 0 -171.5 -61t-94.5 -183h473v-163h-481q13 -149 88.5 -224t187.5 -75
q100 0 170.5 47t102.5 139z" />
    <glyph glyph-name="uni0455" unicode="&#x455;" horiz-adv-x="976" 
d="M496 -20q-161 0 -276.5 71.5t-158.5 214.5l179 62q32 -88 98.5 -135.5t157.5 -47.5q86 0 141 35.5t55 100.5q0 35 -17 60t-51.5 41t-71 25t-89.5 17q-156 27 -256 88q-101 64 -101 211q0 142 110 227.5t278 85.5q157 0 256.5 -69t136.5 -185l-178 -57q-49 147 -215 147
q-85 0 -137 -39t-52 -102q0 -71 66 -92q70 -23 159 -37q152 -27 258 -92q105 -65 105 -219q0 -142 -113 -226.5t-284 -84.5z" />
    <glyph glyph-name="uni0456" unicode="&#x456;" 
d="M270 1194q-56 0 -93.5 38t-37.5 93q0 57 37.5 94t93.5 37t93.5 -37t37.5 -94q0 -55 -37.5 -93t-93.5 -38zM166 0v1008h209v-1008h-209z" />
    <glyph glyph-name="uni0457" unicode="&#x457;" 
d="M166 0v1008h209v-1008h-209zM113 1217q-43 0 -73 30t-30 74q0 43 30 72.5t73 29.5q44 0 74 -29.5t30 -72.5q0 -44 -30 -74t-74 -30zM428 1217q-44 0 -74 30t-30 74q0 43 30 72.5t74 29.5q43 0 72.5 -29.5t29.5 -72.5q0 -44 -29.5 -74t-72.5 -30z" />
    <glyph glyph-name="uni0458" unicode="&#x458;" 
d="M270 1194q-56 0 -93.5 38t-37.5 93q0 57 37.5 94t93.5 37t93.5 -37t37.5 -94q0 -55 -37.5 -93t-93.5 -38zM375 1008v-1127q0 -146 -81.5 -220.5t-215.5 -74.5q-81 0 -151.5 34.5t-108.5 94.5l135 123q43 -69 113 -69q44 0 72 28t28 82v1129h209z" />
    <glyph glyph-name="uni0459" unicode="&#x459;" horiz-adv-x="1634" 
d="M432 702q-5 -128 -12.5 -218t-19.5 -169.5t-31 -130t-45 -90.5t-64 -60.5t-85.5 -31t-111.5 -10.5v192q36 0 59 7t42 32t29.5 58t18.5 100t12.5 142t8.5 200l11 285h743v-344h221q163 0 263 -87.5t100 -244.5q0 -156 -98 -244t-261 -88h-432v831h-342zM987 172h199
q77 0 125.5 42.5t48.5 115.5q0 77 -48.5 120.5t-125.5 43.5h-199v-322z" />
    <glyph glyph-name="uni045A" unicode="&#x45a;" horiz-adv-x="1691" 
d="M836 0v483h-461v-483h-209v1008h209v-349h461v349h208v-344h222q162 0 262 -88t100 -244t-98.5 -244t-259.5 -88h-434zM1044 172h199q77 0 125.5 42.5t48.5 115.5q0 77 -48.5 120.5t-125.5 43.5h-199v-322z" />
    <glyph glyph-name="uni045B" unicode="&#x45b;" horiz-adv-x="1191" 
d="M618 844q-80 0 -145.5 -50t-97.5 -137v-657h-209v1180h-182v137h182v153h209v-153h297v-137h-297v-303q98 155 299 155q167 0 266.5 -104t99.5 -305v-623h-206v594q0 125 -57 187.5t-159 62.5z" />
    <glyph glyph-name="uni045C" unicode="&#x45c;" horiz-adv-x="1073" 
d="M801 0l-324 487h-104v-487h-207v1008h207v-349h114l281 349h240l-351 -430l392 -578h-248zM446 1157v4l144 289h231v-4l-205 -289h-170z" />
    <glyph glyph-name="uni045E" unicode="&#x45e;" horiz-adv-x="958" 
d="M483 1165q-136 0 -220 73.5t-85 195.5h152q0 -57 40 -92t113 -35t113.5 35t42.5 92h152q-1 -122 -88.5 -195.5t-219.5 -73.5zM944 1008l-598 -1397h-209l242 563l-363 834h217l254 -607l246 607h211z" />
    <glyph glyph-name="uni045F" unicode="&#x45f;" horiz-adv-x="1208" 
d="M1042 0h-333v-266h-209v266h-334v1008h209v-832h459v832h208v-1008z" />
    <glyph glyph-name="uni0490" unicode="&#x490;" horiz-adv-x="1081" 
d="M1028 1720v-481h-633v-1239h-219v1434h633v286h219z" />
    <glyph glyph-name="uni0491" unicode="&#x491;" horiz-adv-x="882" 
d="M836 1274v-443h-461v-831h-209v1008h463v266h207z" />
    <glyph glyph-name="Wgrave" unicode="&#x1e80;" horiz-adv-x="1773" 
d="M1171 0l-284 803l-287 -803h-225l-328 1434h219l252 -1131l299 852h148l299 -856l252 1135h210l-329 -1434h-226zM817 1565l-205 288v5h232l143 -289v-4h-170z" />
    <glyph glyph-name="wgrave" unicode="&#x1e81;" horiz-adv-x="1378" 
d="M903 0l-215 508l-213 -508h-162l-272 1008h205l182 -693l182 447h166l178 -447l187 693h196l-272 -1008h-162zM621 1157l-205 289v4h231l144 -289v-4h-170z" />
    <glyph glyph-name="Wacute" unicode="&#x1e82;" horiz-adv-x="1773" 
d="M1171 0l-284 803l-287 -803h-225l-328 1434h219l252 -1131l299 852h148l299 -856l252 1135h210l-329 -1434h-226zM791 1565v4l143 289h231v-5l-204 -288h-170z" />
    <glyph glyph-name="wacute" unicode="&#x1e83;" horiz-adv-x="1378" 
d="M903 0l-215 508l-213 -508h-162l-272 1008h205l182 -693l182 447h166l178 -447l187 693h196l-272 -1008h-162zM594 1157v4l143 289h232v-4l-205 -289h-170z" />
    <glyph glyph-name="Wdieresis" unicode="&#x1e84;" horiz-adv-x="1773" 
d="M1171 0l-284 803l-287 -803h-225l-328 1434h219l252 -1131l299 852h148l299 -856l252 1135h210l-329 -1434h-226zM686 1606q-50 0 -83.5 33.5t-33.5 82.5q0 50 33.5 83.5t83.5 33.5t83.5 -33.5t33.5 -83.5q0 -49 -33.5 -82.5t-83.5 -33.5zM1087 1606q-48 0 -82 33.5
t-34 82.5t34 83t82 34q50 0 84.5 -34t34.5 -83t-34.5 -82.5t-84.5 -33.5z" />
    <glyph glyph-name="wdieresis" unicode="&#x1e85;" horiz-adv-x="1378" 
d="M903 0l-215 508l-213 -508h-162l-272 1008h205l182 -693l182 447h166l178 -447l187 693h196l-272 -1008h-162zM489 1198q-49 0 -82.5 33.5t-33.5 83.5t33.5 83.5t82.5 33.5t83 -34t34 -83t-34 -83t-83 -34zM891 1198q-48 0 -82.5 34t-34.5 83t34.5 83t82.5 34
q50 0 84.5 -34t34.5 -83t-34.5 -83t-84.5 -34z" />
    <glyph glyph-name="Ygrave" unicode="&#x1ef2;" horiz-adv-x="1171" 
d="M1163 1434l-469 -715v-719h-219v721l-467 713h260l324 -508l323 508h248zM516 1565l-205 288v5h232l143 -289v-4h-170z" />
    <glyph glyph-name="ygrave" unicode="&#x1ef3;" horiz-adv-x="958" 
d="M944 1008l-598 -1397h-209l242 563l-363 834h217l254 -607l246 607h211zM414 1157l-205 289v4h231l144 -289v-4h-170z" />
    <glyph glyph-name="endash" unicode="&#x2013;" horiz-adv-x="1142" 
d="M90 553v170h963v-170h-963z" />
    <glyph glyph-name="emdash" unicode="&#x2014;" horiz-adv-x="1624" 
d="M90 553v170h1444v-170h-1444z" />
    <glyph glyph-name="quoteleft" unicode="&#x2018;" horiz-adv-x="434" 
d="M356 1434l-86 -406h-198l100 406h184z" />
    <glyph glyph-name="quoteright" unicode="&#x2019;" horiz-adv-x="434" 
d="M78 1028l86 406h198l-100 -406h-184z" />
    <glyph glyph-name="quotesinglbase" unicode="&#x201a;" horiz-adv-x="434" 
d="M78 -166l86 406h198l-100 -406h-184z" />
    <glyph glyph-name="quotedblleft" unicode="&#x201c;" horiz-adv-x="761" 
d="M344 1434l-86 -406h-186l102 406h170zM684 1434l-86 -406h-184l100 406h170z" />
    <glyph glyph-name="quotedblright" unicode="&#x201d;" horiz-adv-x="761" 
d="M418 1028l86 406h186l-102 -406h-170zM78 1028l86 406h184l-100 -406h-170z" />
    <glyph glyph-name="quotedblbase" unicode="&#x201e;" horiz-adv-x="761" 
d="M418 -166l86 406h186l-102 -406h-170zM78 -166l86 406h184l-100 -406h-170z" />
    <glyph glyph-name="dagger" unicode="&#x2020;" horiz-adv-x="962" 
d="M899 899h-315v-899h-203v899h-318v176h318v359h203v-359h315v-176z" />
    <glyph glyph-name="daggerdbl" unicode="&#x2021;" horiz-adv-x="962" 
d="M899 379h-317v-379h-201v379h-318v180h318v350h-318v181h318v344h201v-344h317v-181h-317v-350h317v-180z" />
    <glyph glyph-name="bullet" unicode="&#x2022;" horiz-adv-x="770" 
d="M385 403q-98 0 -165.5 68t-67.5 168q0 97 67 164q66 69 166 69t166 -69q70 -67 70 -164q0 -99 -68.5 -167.5t-167.5 -68.5z" />
    <glyph glyph-name="ellipsis" unicode="&#x2026;" horiz-adv-x="1597" 
d="M272 -23q-60 0 -100.5 42t-40.5 102q0 58 41 99.5t100 41.5q57 0 99.5 -42t42.5 -99q0 -59 -42 -101.5t-100 -42.5zM799 -23q-60 0 -101 42t-41 102q0 58 41.5 99.5t100.5 41.5q57 0 99 -42t42 -99q0 -60 -42 -102t-99 -42zM1327 -23q-60 0 -100.5 42t-40.5 102
q0 58 41 99.5t100 41.5q57 0 99 -42t42 -99q0 -60 -42 -102t-99 -42z" />
    <glyph glyph-name="perthousand" unicode="&#x2030;" horiz-adv-x="2899" 
d="M483 629q-155 0 -258 112q-104 113 -104 303q0 192 104 302q107 110 258 110q156 0 260 -110q105 -111 105 -302q0 -190 -107 -303q-103 -112 -258 -112zM483 797q80 0 130.5 66t50.5 181q0 112 -51.5 178t-129.5 66t-128 -65t-50 -179t50.5 -180.5t127.5 -66.5zM451 80
l989 1380l145 -104l-989 -1381zM1552 -20q-155 0 -258 112q-104 113 -104 303q0 191 104 301q108 111 258 111q155 0 260 -111t105 -301t-107 -303q-103 -112 -258 -112zM1552 147q80 0 130.5 66.5t50.5 181.5q0 112 -51.5 178t-129.5 66t-128 -65t-50 -179t50.5 -181
t127.5 -67zM2415 -20q-155 0 -258 112q-105 114 -105 303q0 190 105 301q108 111 258 111q155 0 260 -111q104 -110 104 -301t-106 -303q-103 -112 -258 -112zM2415 147q80 0 130 66.5t50 181.5q0 112 -51.5 178t-128.5 66q-78 0 -128.5 -65t-50.5 -179t51 -181t128 -67z
" />
    <glyph glyph-name="guilsinglleft" unicode="&#x2039;" horiz-adv-x="696" 
d="M457 61l-387 451l389 453l131 -115l-289 -334l291 -338z" />
    <glyph glyph-name="guilsinglright" unicode="&#x203a;" horiz-adv-x="696" 
d="M240 965l387 -451l-389 -453l-132 115l289 334l-291 338z" />
    <glyph glyph-name="fraction" unicode="&#x2044;" horiz-adv-x="520" 
d="M-307 80l989 1380l145 -104l-989 -1381z" />
    <glyph glyph-name="twoinferior" unicode="&#x2082;" horiz-adv-x="716" 
d="M655 141v-141h-604v113l350 340q46 43 63 73t17 62q0 45 -33 72.5t-88 27.5q-56 0 -90 -32.5t-34 -84.5h-168q0 116 82.5 188t211.5 72q128 0 209.5 -70t81.5 -171q0 -58 -25 -106.5t-93 -114.5l-246 -228h366z" />
    <glyph glyph-name="fourinferior" unicode="&#x2084;" horiz-adv-x="755" 
d="M727 195h-135v-195h-160v195h-403v108l297 514h178l-287 -485h217v155h158v-155h135v-137z" />
    <glyph glyph-name="Euro" unicode="&#x20ac;" horiz-adv-x="1486" 
d="M1405 156q-86 -86 -194 -131t-255 -45q-226 0 -387.5 128t-218.5 353h-219v157h193q-2 27 -2 80q0 49 2 72h-193v158h219q60 219 219 342q165 127 385 127q150 0 256.5 -45t194.5 -133l-141 -154q-135 139 -310 139q-133 0 -233 -74.5t-148 -201.5h447v-158h-481
q-4 -46 -4 -72t4 -80h481v-157h-447q45 -133 147 -212t236 -79q169 0 308 139z" />
    <glyph glyph-name="trademark" unicode="&#x2122;" horiz-adv-x="1746" 
d="M711 1284h-230v-629h-159v629h-230v150h619v-150zM868 655v779h179l176 -248l178 248h176v-779h-154v566l-166 -226h-69l-164 226v-566h-156z" />
    <glyph glyph-name="estimated" unicode="&#x212e;" horiz-adv-x="1660" 
d="M829 -20q-205 0 -369.5 79.5t-261 232t-96.5 351.5q0 127 39 236.5t107 187.5t159.5 134t197.5 83t220 27q331 0 526.5 -186.5t207.5 -499.5h-1160q-10 0 -15 -1.5t-9 -9t-4 -22.5v-338q0 -29 34 -66t91.5 -72t146.5 -59t186 -24q139 0 263 58t200 151h133
q-126 -137 -272.5 -199.5t-323.5 -62.5zM825 1257q-112 0 -218 -30t-171 -78t-65 -98v-340q0 -19 6.5 -26t23.5 -7h852q22 0 28.5 7t6.5 26v340q0 51 -72 99.5t-179.5 77.5t-211.5 29z" />
    <glyph glyph-name="minus" unicode="&#x2212;" horiz-adv-x="1196" 
d="M104 614v181h988v-181h-988z" />
    <glyph glyph-name="approxequal" unicode="&#x2248;" horiz-adv-x="1130" 
d="M762 297q-50 0 -98 18.5t-84 45t-69.5 53t-68 45t-65.5 18.5q-52 0 -89 -41t-44 -114l-156 24q8 127 82 216t199 89q61 0 120.5 -28t97.5 -61t83.5 -61t83.5 -28q52 0 89 41.5t44 114.5l155 -25q-5 -128 -79 -217.5t-201 -89.5zM762 741q-61 0 -120.5 28.5t-97.5 62
t-83.5 62t-83.5 28.5q-52 0 -89 -41.5t-44 -114.5l-156 25q8 127 82 216t199 89q61 0 120.5 -28t97.5 -61t83.5 -61t83.5 -28q52 0 89 41t44 114l155 -24q-5 -128 -79 -218t-201 -90z" />
    <glyph glyph-name="notequal" unicode="&#x2260;" horiz-adv-x="1191" 
d="M1059 393h-514l-123 -262h-186l122 262h-225v176h307l127 267h-434v176h516l123 262h184l-122 -262h225v-176h-307l-125 -267h432v-176z" />
    <glyph glyph-name="commaaccent" unicode="&#xf6c3;" horiz-adv-x="401" 
d="M100 -487l62 151q-30 9 -55 38.5t-25 70.5q0 49 36.5 82.5t82.5 33.5q50 0 84 -34t34 -82q0 -55 -36 -135l-56 -125h-127z" />
    <glyph glyph-name="thinspace" horiz-adv-x="59" 
 />
    <glyph glyph-name="registered.alt" horiz-adv-x="1720" 
d="M860 -25q-202 0 -373.5 99.5t-271.5 271t-100 373.5q0 101 27 197t75 177.5t117 149.5t150.5 116t178 74.5t197.5 26.5q202 0 373 -99t271 -269.5t100 -372.5q0 -203 -100 -374t-271 -270.5t-373 -99.5zM860 123q122 0 231.5 47t188 127t124.5 190t46 232
q0 162 -78 298.5t-214 216t-298 79.5q-161 0 -297 -79.5t-214.5 -216t-78.5 -298.5t78.5 -299.5t214.5 -217t297 -79.5zM999 332l-176 321h-84v-321h-157v778h307q114 0 186 -60.5t72 -166.5q0 -77 -42 -132t-114 -81l191 -338h-183zM739 981v-201h133q51 0 82 28t31 73
q0 49 -32 74.5t-87 25.5h-127z" />
    <glyph glyph-name="i.TRK" 
d="M270 1194q-56 0 -93.5 38t-37.5 93q0 57 37.5 94t93.5 37t93.5 -37t37.5 -94q0 -55 -37.5 -93t-93.5 -38zM166 0v1008h209v-1008h-209z" />
    <glyph glyph-name="dieresis.i" horiz-adv-x="757" 
d="M221 1217q-43 0 -72.5 30t-29.5 74q0 43 29.5 72.5t72.5 29.5q44 0 74.5 -29.5t30.5 -72.5q0 -44 -30.5 -74t-74.5 -30zM537 1217q-44 0 -74.5 30t-30.5 74q0 43 30.5 72.5t74.5 29.5q43 0 72.5 -29.5t29.5 -72.5q0 -44 -29.5 -74t-72.5 -30z" />
    <glyph glyph-name="commaaccentup" horiz-adv-x="401" 
d="M301 1526l-61 -152q30 -9 54.5 -38t24.5 -70q0 -49 -36 -83t-82 -34q-50 0 -84.5 34.5t-34.5 82.5q0 53 37 135l55 125h127z" />
    <glyph glyph-name="circumflex.lc" horiz-adv-x="708" 
d="M92 1159v162l264 156l260 -156v-162l-266 141z" />
    <glyph glyph-name="caron.lc" horiz-adv-x="708" 
d="M616 1483v-162l-264 -156l-260 156v162l266 -142z" />
    <glyph glyph-name="breve.lc" horiz-adv-x="753" 
d="M377 1169q-117 0 -192 72.5t-76 192.5h149q0 -57 31.5 -91t87.5 -34t88.5 34.5t32.5 90.5h149q-1 -120 -78.5 -192.5t-191.5 -72.5z" />
    <glyph glyph-name="breve.i" horiz-adv-x="731" 
d="M367 1171q-115 0 -188.5 71t-74.5 192h150q0 -57 29.5 -91t83.5 -34t83 34t29 91h148q-1 -120 -75 -191.5t-185 -71.5z" />
    <glyph glyph-name="dieresis.lc" horiz-adv-x="876" 
d="M238 1198q-50 0 -83.5 34t-33.5 83t33.5 83t83.5 34q49 0 82.5 -33.5t33.5 -83.5t-33.5 -83.5t-82.5 -33.5zM639 1198q-48 0 -82.5 34t-34.5 83t34.5 83t82.5 34q50 0 84.5 -34t34.5 -83t-34.5 -83t-84.5 -34z" />
    <glyph glyph-name="tilde.lc" horiz-adv-x="776" 
d="M500 1178q-43 0 -84.5 20.5t-75.5 41t-57 20.5q-57 0 -68 -74l-123 20q2 86 53.5 143.5t130.5 57.5q42 0 83 -21t75.5 -42t59.5 -21q30 0 46.5 21t18.5 53l125 -19q-2 -87 -53.5 -143.5t-130.5 -56.5z" />
    <glyph glyph-name="macron.lc" horiz-adv-x="698" 
d="M109 1233v143h481v-143h-481z" />
    <glyph glyph-name="zero.onum" horiz-adv-x="1261" 
d="M631 -20q-237 0 -381 171t-144 500q0 165 40.5 293.5t112 209t166 122t206.5 41.5q114 0 208.5 -41t165.5 -121t110.5 -208.5t39.5 -295.5q0 -166 -40 -296t-111 -211t-165.5 -122.5t-207.5 -41.5zM631 166q147 0 228 127t81 358q0 230 -83 354.5t-226 124.5
q-148 0 -228.5 -122t-80.5 -357q0 -231 81 -358t228 -127z" />
    <glyph glyph-name="one.onum" horiz-adv-x="776" 
d="M602 1294v-1294h-207v1059l-323 -162l-19 193l408 204h141z" />
    <glyph glyph-name="two.onum" horiz-adv-x="1062" 
d="M963 180v-180h-891v143l524 514q87 85 120.5 146t33.5 129q0 86 -61.5 142t-160.5 56q-106 0 -167.5 -58t-69.5 -154h-205q9 178 131 288q126 111 313 111q200 0 317.5 -109.5t117.5 -271.5q0 -101 -50.5 -194.5t-166.5 -202.5l-381 -359h596z" />
    <glyph glyph-name="three.onum" horiz-adv-x="1101" 
d="M1008 369q0 -166 -135 -276.5t-338 -110.5q-204 0 -334 106q-131 107 -140 277h207q14 -89 84.5 -145t182.5 -56q111 0 184.5 60t73.5 153t-76 153t-193 60h-170v174h172q112 0 177 54t65 136q0 81 -64.5 132t-164.5 51t-165 -46.5t-75 -129.5h-203q17 166 141.5 261
t303.5 95q196 0 317 -103t121 -249q0 -93 -52.5 -166.5t-135.5 -112.5q98 -40 157.5 -122t59.5 -195z" />
    <glyph glyph-name="four.onum" horiz-adv-x="1099" 
d="M1047 303h-187v-303h-203v303h-606v131l463 860h221l-444 -815h368v254h201v-254h187v-176z" />
    <glyph glyph-name="five.onum" horiz-adv-x="1101" 
d="M1018 412q0 -125 -64.5 -224.5t-173 -153.5t-239.5 -54q-180 0 -302 89t-155 230l195 53q20 -88 92 -140t172 -52q115 0 188.5 69.5t73.5 178.5q0 105 -74 176t-190 71q-136 0 -240 -104h-180l78 743h762v-178h-584l-41 -342q105 62 227 62q206 0 330.5 -120t124.5 -304z
" />
    <glyph glyph-name="six.onum" horiz-adv-x="1161" 
d="M1069 408q0 -184 -136.5 -306t-334.5 -122q-133 0 -252 61q-121 62 -182 217q-58 125 -58 340q0 234 46 375t133 221q123 123 342 123q161 0 278 -75.5t158 -209.5l-189 -59q-29 75 -95.5 118.5t-153.5 43.5q-133 0 -205 -80q-51 -54 -77 -144.5t-34 -238.5
q41 69 126.5 110t189.5 41q197 0 320.5 -119.5t123.5 -295.5zM598 160q111 0 186.5 68t75.5 171q0 104 -75.5 174t-186.5 70q-106 0 -182 -70t-76 -174q0 -101 72 -170t186 -69z" />
    <glyph glyph-name="seven.onum" horiz-adv-x="970" 
d="M920 1145l-535 -1145h-233l530 1116h-635v178h873v-149z" />
    <glyph glyph-name="eight.onum" horiz-adv-x="1126" 
d="M1028 365q0 -165 -132.5 -275t-332.5 -110q-204 0 -334.5 109.5t-130.5 275.5q0 98 53.5 181.5t145.5 135.5q-76 46 -119 117.5t-43 161.5q0 151 123.5 253.5t304.5 102.5q185 0 309 -103q123 -102 123 -253q0 -89 -43.5 -160.5t-120.5 -116.5q93 -52 145 -134.5
t52 -184.5zM563 1141q-102 0 -164.5 -54.5t-62.5 -134.5q0 -81 65 -134.5t162 -53.5q100 0 165 53t65 135q0 80 -64 134.5t-166 54.5zM563 158q118 0 188 62t70 153q0 92 -72 154.5t-186 62.5t-186 -62t-72 -155q0 -89 72.5 -152t185.5 -63z" />
    <glyph glyph-name="nine.onum" horiz-adv-x="1161" 
d="M877 102q-122 -122 -342 -122q-161 0 -278.5 75t-158.5 209l189 60q29 -75 96 -118.5t154 -43.5q132 0 204 80q51 54 77 144.5t34 238.5q-41 -69 -126 -110.5t-189 -41.5q-197 0 -321 120t-124 296q0 184 136.5 306t334.5 122q131 0 252 -62t182 -217q58 -125 58 -340
q0 -235 -45.5 -375.5t-132.5 -220.5zM563 1137q-111 0 -186.5 -68.5t-75.5 -171.5q0 -104 75.5 -174t186.5 -70q104 0 180 70q78 72 78 174t-72 171t-186 69z" />
    <glyph glyph-name="Euro.onum" horiz-adv-x="1400" 
d="M1327 141q-83 -78 -184.5 -118.5t-241.5 -40.5q-214 0 -367 115t-208 319h-211v143h186q-2 25 -2 74q0 45 2 63h-186v144h211q55 192 209 307t364 115q141 0 241.5 -41t186.5 -121l-135 -142q-136 127 -293 127q-126 0 -220.5 -66t-139.5 -179h422v-144h-455
q-4 -36 -4 -63q0 -24 4 -74h455v-143h-422q45 -119 140 -188.5t222 -69.5q158 0 291 125z" />
    <glyph glyph-name="dollar.onum" horiz-adv-x="1196" 
d="M1098 350q0 -147 -112.5 -242.5t-293.5 -109.5v-188h-139v186q-93 6 -169 33t-138 76.5t-99 130.5t-43 188l201 16q7 -127 74 -194t174 -82v377l-41 8q-179 31 -264.5 120.5t-85.5 223.5q0 140 108.5 233t282.5 107v178h139v-180q181 -19 287 -116.5t106 -258.5l-196 -18
q0 101 -53 157t-144 70v-363l21 -4q385 -73 385 -348zM362 901q0 -63 42.5 -104t148.5 -66v336q-86 -12 -138.5 -56.5t-52.5 -109.5zM895 338q0 64 -51 106.5t-152 69.5v-350q89 13 146 58t57 116z" />
    <glyph glyph-name="sterling.onum" horiz-adv-x="1153" 
d="M1055 168v-168h-926v168h119q75 38 118.5 99t43.5 130q0 61 -58 168h-227v156h143q-41 84 -41 172q0 163 119.5 266t294.5 103q184 0 299 -103q117 -102 123 -260l-203 -2q-2 83 -61.5 135.5t-155.5 52.5t-153.5 -52.5t-57.5 -139.5q0 -79 49 -172h359v-156h-273
q43 -84 43 -155q0 -73 -35 -136t-88 -106h568z" />
    <glyph glyph-name="yen.onum" horiz-adv-x="1218" 
d="M1020 203h-311v-203h-201v203h-309v143h309v137h-309v144h290l-428 612h244l311 -455l312 455h229l-426 -612h289v-144h-311v-137h311v-143z" />
    <glyph glyph-name="percent.onum" horiz-adv-x="1929" 
d="M426 74l936 1245l139 -94l-938 -1248zM457 567q-145 0 -248 103q-98 101 -98 272q0 172 100 272q103 103 246 103q145 0 248 -103q100 -100 100 -272q0 -169 -100 -272q-103 -103 -248 -103zM457 721q75 0 122.5 60t47.5 161q0 102 -48 160.5t-122 58.5
q-75 0 -121.5 -58.5t-46.5 -160.5q0 -101 46.5 -161t121.5 -60zM1470 -18q-145 0 -247 102q-99 102 -99 272q0 172 101 273q102 102 245 102q146 0 248 -102q101 -101 101 -273q0 -168 -101 -272q-102 -102 -248 -102zM1470 135q75 0 122.5 60t47.5 161q0 102 -48 160.5
t-122 58.5q-75 0 -121 -58.5t-46 -160.5q0 -101 46 -161t121 -60z" />
    <glyph glyph-name="perthousand.onum" horiz-adv-x="2748" 
d="M426 74l936 1245l139 -94l-938 -1248zM457 567q-145 0 -248 103q-98 101 -98 272q0 172 100 272q103 103 246 103q145 0 248 -103q100 -100 100 -272q0 -169 -100 -272q-103 -103 -248 -103zM457 721q75 0 122.5 60t47.5 161q0 102 -48 160.5t-122 58.5
q-75 0 -121.5 -58.5t-46.5 -160.5q0 -101 46.5 -161t121.5 -60zM2292 -18q-146 0 -248 102q-100 100 -100 272q0 173 100 273q102 102 248 102t245 -102q101 -101 101 -273q0 -168 -101 -272q-102 -102 -245 -102zM1470 -18q-145 0 -247 102q-99 102 -99 272q0 172 101 273
q102 102 245 102q146 0 248 -102q101 -101 101 -273q0 -168 -101 -272q-102 -102 -248 -102zM2292 135q73 0 120.5 60t47.5 161t-48 160t-120 59q-75 0 -122.5 -58.5t-47.5 -160.5q0 -101 47.5 -161t122.5 -60zM1470 135q75 0 122.5 60t47.5 161q0 102 -48 160.5t-122 58.5
q-75 0 -121 -58.5t-46 -160.5q0 -101 46 -161t121 -60z" />
    <glyph glyph-name="zero.tlf" horiz-adv-x="1282" 
d="M641 -18q-184 0 -316 109.5t-169 307.5q-31 131 -31 322q0 186 31 317q37 197 169.5 307.5t315.5 110.5q186 0 316.5 -109.5t168.5 -308.5q31 -131 31 -317q0 -179 -31 -322q-37 -197 -169.5 -307t-315.5 -110zM641 186q97 0 164 56t94 157q35 119 35 322q0 196 -33 317
q-26 103 -94 158t-166 55q-99 0 -166.5 -54.5t-93.5 -158.5q-33 -112 -33 -317q0 -203 35 -322q27 -101 94 -157t164 -56z" />
    <glyph glyph-name="one.tlf" horiz-adv-x="1282" 
d="M1139 197v-197h-928v197h397v979l-342 -181l-18 209l428 230h149v-1237h314z" />
    <glyph glyph-name="two.tlf" horiz-adv-x="1282" 
d="M1092 195v-195h-936v154l551 571q92 95 127.5 163t35.5 144q0 95 -65 159t-168 64q-113 0 -178.5 -65t-73.5 -174h-215q9 195 139 319q132 123 328 123q106 0 194 -33.5t145 -91.5t88.5 -134.5t31.5 -162.5q0 -111 -54 -214.5t-176 -225.5l-405 -401h631z" />
    <glyph glyph-name="three.tlf" horiz-adv-x="1282" 
d="M1108 408q0 -182 -142.5 -305t-355.5 -123q-214 0 -350 118q-138 120 -147 305h215q18 -101 91.5 -164t190.5 -63t195 68t78 172t-80 171.5t-203 67.5h-178v189h182q116 0 184 60t68 153q0 91 -68.5 148t-173.5 57q-106 0 -174 -52t-78 -145h-212q17 184 147.5 288.5
t318.5 104.5q207 0 334 -111.5t127 -279.5q0 -102 -55.5 -185t-142.5 -122q103 -45 166 -136.5t63 -215.5z" />
    <glyph glyph-name="four.tlf" horiz-adv-x="1282" 
d="M1174 336h-197v-336h-209v336h-639v139l487 959h230l-467 -908h391v285h207v-285h197v-190z" />
    <glyph glyph-name="five.tlf" horiz-adv-x="1282" 
d="M1155 453q0 -103 -39.5 -192.5t-107.5 -151.5t-160.5 -97t-196.5 -35q-194 0 -319 101q-125 102 -160 252l203 59q20 -98 96.5 -156.5t181.5 -58.5q123 0 202 78t79 199q0 118 -80.5 197t-202.5 79q-142 0 -252 -117h-188l82 824h801v-195h-615l-43 -385q101 70 240 70
q216 0 347.5 -134.5t131.5 -336.5z" />
    <glyph glyph-name="six.tlf" horiz-adv-x="1282" 
d="M1159 449q0 -132 -67 -241t-180.5 -170t-249.5 -61q-139 0 -269 68q-128 70 -192 244q-58 143 -58 373q0 269 50 421q54 154 135 238q72 75 161.5 106t204.5 31q168 0 291.5 -83.5t167.5 -231.5l-199 -66q-31 87 -100.5 135t-163.5 48q-139 0 -215 -91q-55 -60 -82 -158
t-35 -263q44 75 133 118t199 43q207 0 338 -133t131 -327zM664 174q118 0 197 76t79 192q0 117 -82 193q-81 78 -194 78q-114 0 -193 -76q-80 -77 -80 -195q0 -114 76 -191t197 -77z" />
    <glyph glyph-name="seven.tlf" horiz-adv-x="1282" 
d="M1100 1272l-561 -1272h-242l553 1239h-668v195h918v-162z" />
    <glyph glyph-name="eight.tlf" horiz-adv-x="1282" 
d="M1130 401q0 -180 -139 -302t-350 -122q-215 0 -352 121t-137 303q0 111 56 204t154 151q-80 51 -126 130.5t-46 176.5q0 168 130 281.5t321 113.5q196 0 324.5 -113t128.5 -282q0 -97 -46 -175.5t-128 -129.5q98 -56 154 -149.5t56 -207.5zM641 1266q-108 0 -174 -61.5
t-66 -151.5q0 -88 69 -148.5t171 -60.5q107 0 175.5 60t68.5 149q0 90 -68 151.5t-176 61.5zM641 170q124 0 199 70.5t75 173.5q0 102 -76.5 171.5t-197.5 69.5q-122 0 -199 -71q-75 -69 -75 -170q0 -100 75 -172q78 -72 199 -72z" />
    <glyph glyph-name="nine.tlf" horiz-adv-x="1282" 
d="M954 115q-72 -75 -161.5 -106.5t-204.5 -31.5q-167 0 -291 84t-168 232l199 65q31 -87 100.5 -134.5t163.5 -47.5q140 0 215 90q55 60 82 158.5t35 263.5q-44 -75 -133 -118.5t-199 -43.5q-207 0 -338 133.5t-131 327.5q0 132 67 240.5t181 169.5t250 61q142 0 268 -69
q128 -67 192 -242q58 -143 58 -373q0 -275 -52 -424q-49 -148 -133 -235zM618 1262q-118 0 -197 -76.5t-79 -192.5q0 -117 80 -194q82 -76 196 -76t193 76q80 77 80 194q0 115 -76 192t-197 77z" />
    <glyph glyph-name="space.tlf" horiz-adv-x="641" 
 />
    <glyph glyph-name="period.tlf" horiz-adv-x="641" 
d="M322 -23q-60 0 -101 42t-41 102q0 58 41.5 99.5t100.5 41.5q57 0 99 -42t42 -99q0 -60 -42 -102t-99 -42z" />
    <glyph glyph-name="comma.tlf" horiz-adv-x="641" 
d="M463 111q0 -117 -62 -232q-64 -119 -131 -203l-110 84q5 7 29.5 42t33 48t25.5 40t27 48.5t18 43.5q-49 7 -81 47t-32 92q0 58 41.5 99.5t100.5 41.5t100 -42t41 -109z" />
    <glyph glyph-name="quoteright.tlf" horiz-adv-x="641" 
d="M184 1028l86 406h199l-100 -406h-185z" />
    <glyph glyph-name="zero.sup" horiz-adv-x="833" 
d="M418 705q-162 0 -253 108.5t-91 312.5t91 313t253 109t252 -108.5t90 -313.5q0 -202 -90.5 -311.5t-251.5 -109.5zM418 852q168 0 168 274q0 131 -43.5 203t-124.5 72q-84 0 -127 -70.5t-43 -204.5q0 -274 170 -274z" />
    <glyph glyph-name="one.sup" 
d="M248 719v624l-203 -88l-12 158l284 123h103v-817h-172z" />
    <glyph glyph-name="two.sup" horiz-adv-x="716" 
d="M655 860v-141h-604v112l350 340q46 43 63 73.5t17 62.5q0 45 -33 72.5t-88 27.5q-56 0 -90 -32.5t-34 -84.5h-168q0 116 82.5 188t211.5 72q128 0 209.5 -70t81.5 -171q0 -58 -25.5 -107t-92.5 -115l-246 -227h366z" />
    <glyph glyph-name="three.sup" horiz-adv-x="743" 
d="M676 950q0 -94 -82 -170q-79 -73 -234 -73q-142 0 -228 67.5t-87 183.5h168q1 -53 41 -84.5t104 -31.5t104 32t40 87q0 57 -48.5 87.5t-121.5 30.5h-92v133h84q82 0 121.5 29.5t39.5 77.5q0 44 -33 70t-90 26q-56 0 -92.5 -29.5t-36.5 -76.5h-165q0 105 84.5 173
t214.5 68q133 0 211.5 -63t78.5 -158q0 -59 -35.5 -104.5t-95.5 -71.5q70 -26 110 -78t40 -125z" />
    <glyph glyph-name="four.sup" horiz-adv-x="755" 
d="M727 913h-135v-194h-160v194h-403v109l297 514h178l-287 -485h217v155h158v-155h135v-138z" />
    <glyph glyph-name="five.sup" horiz-adv-x="733" 
d="M678 981q0 -130 -88.5 -202t-224.5 -72q-118 0 -199 51.5t-107 130.5l154 55q15 -42 54 -72t93 -30q66 0 107 37t41 100q0 59 -42 96t-106 37q-39 0 -72 -14t-50 -31h-148l39 469h522v-141h-377l-18 -181q53 29 133 29q126 0 207.5 -71.5t81.5 -190.5z" />
    <glyph glyph-name="six.sup" horiz-adv-x="772" 
d="M709 979q0 -118 -87 -196t-223 -78q-148 0 -236.5 102t-88.5 305q0 216 86.5 326t253.5 110q112 0 188.5 -50.5t104.5 -129.5l-142 -55q-14 45 -53.5 72.5t-95.5 27.5q-170 0 -180 -235q72 65 182 65q131 0 211 -75.5t80 -188.5zM399 838q64 0 104 40t40 99
q0 58 -41 97.5t-103 39.5q-64 0 -105.5 -38t-41.5 -99q0 -62 40.5 -100.5t106.5 -38.5z" />
    <glyph glyph-name="seven.sup" horiz-adv-x="649" 
d="M80 719l350 676h-403v141h600v-115l-363 -702h-184z" />
    <glyph glyph-name="eight.sup" horiz-adv-x="757" 
d="M692 950q0 -106 -87 -175.5t-226 -69.5t-227.5 70t-88.5 175q0 61 32.5 111.5t90.5 83.5q-102 70 -102 174q0 100 83 165.5t212 65.5q128 0 210.5 -65.5t82.5 -165.5q0 -50 -27.5 -95.5t-75.5 -78.5q58 -33 90.5 -83.5t32.5 -111.5zM379 1421q-62 0 -100.5 -30t-38.5 -78
q0 -49 39 -79t100 -30q62 0 99.5 30t37.5 79q0 47 -38.5 77.5t-98.5 30.5zM379 838q68 0 110.5 34t42.5 86q0 54 -42.5 87.5t-110.5 33.5q-70 0 -113 -33t-43 -88q0 -51 44 -85.5t112 -34.5z" />
    <glyph glyph-name="nine.sup" horiz-adv-x="778" 
d="M698 1141q0 -216 -86.5 -326t-253.5 -110q-112 0 -188 50.5t-104 129.5l141 55q14 -45 53.5 -72.5t95.5 -27.5q171 0 181 235q-72 -65 -183 -65q-131 0 -211 75.5t-80 188.5q0 118 87 196t223 78q148 0 236.5 -102t88.5 -305zM373 1415q-64 0 -104 -40t-40 -99
q0 -58 41 -97.5t103 -39.5q64 0 105.5 38t41.5 99q0 62 -40.5 100.5t-106.5 38.5z" />
    <glyph glyph-name="zero.num" horiz-adv-x="833" 
d="M418 602q-162 0 -253 109t-91 313t91 313t253 109t252 -108.5t90 -313.5q0 -202 -90.5 -312t-251.5 -110zM418 750q168 0 168 274q0 131 -43.5 202.5t-124.5 71.5q-170 0 -170 -274t170 -274z" />
    <glyph glyph-name="one.num" 
d="M248 616v625l-203 -88l-12 158l284 123h103v-818h-172z" />
    <glyph glyph-name="two.num" horiz-adv-x="716" 
d="M655 758v-142h-604v113l350 340q46 43 63 73t17 62q0 45 -33 73t-88 28q-56 0 -90 -32.5t-34 -84.5h-168q0 116 82.5 188t211.5 72q128 0 209.5 -70.5t81.5 -171.5q0 -58 -25 -106.5t-93 -114.5l-246 -227h366z" />
    <glyph glyph-name="three.num" horiz-adv-x="743" 
d="M676 848q0 -94 -82 -170q-80 -74 -234 -74q-142 0 -228 68t-87 184h168q1 -54 41 -85.5t104 -31.5t104 32t40 87q0 57 -48.5 88t-121.5 31h-92v133h84q82 0 121.5 29.5t39.5 77.5q0 44 -33 70t-90 26q-56 0 -92.5 -30t-36.5 -77h-165q0 105 85 173.5t214 68.5
q133 0 211.5 -63t78.5 -158q0 -59 -35.5 -104.5t-95.5 -71.5q70 -26 110 -78t40 -125z" />
    <glyph glyph-name="four.num" horiz-adv-x="755" 
d="M727 811h-135v-195h-160v195h-403v109l297 514h178l-287 -486h217v156h158v-156h135v-137z" />
    <glyph glyph-name="five.num" horiz-adv-x="733" 
d="M678 879q0 -130 -88.5 -202.5t-224.5 -72.5q-118 0 -199 51.5t-107 130.5l154 56q15 -42 54.5 -72.5t92.5 -30.5q66 0 107 37.5t41 100.5q0 59 -42 96t-106 37q-39 0 -72 -14t-50 -31h-148l39 469h522v-142h-377l-18 -180q53 29 133 29q126 0 207.5 -71.5t81.5 -190.5z
" />
    <glyph glyph-name="six.num" horiz-adv-x="772" 
d="M709 877q0 -118 -87.5 -196.5t-222.5 -78.5q-148 0 -236.5 102.5t-88.5 305.5q0 216 86.5 326t253.5 110q112 0 188.5 -50.5t104.5 -129.5l-142 -56q-14 45 -53.5 73t-95.5 28q-170 0 -180 -236q74 66 182 66q131 0 211 -75.5t80 -188.5zM399 735q64 0 104 40t40 99
q0 58 -41 98t-103 40q-64 0 -105.5 -38.5t-41.5 -99.5q0 -62 40.5 -100.5t106.5 -38.5z" />
    <glyph glyph-name="seven.num" horiz-adv-x="649" 
d="M80 616l350 676h-403v142h600v-115l-363 -703h-184z" />
    <glyph glyph-name="eight.num" horiz-adv-x="757" 
d="M692 848q0 -106 -87 -176t-226 -70t-227.5 70t-88.5 176q0 61 32.5 111t90.5 83q-48 33 -75 79t-27 96q0 100 83 165.5t212 65.5q128 0 210.5 -65.5t82.5 -165.5q0 -50 -27.5 -96t-75.5 -79q58 -33 90.5 -83t32.5 -111zM379 1319q-62 0 -100.5 -30.5t-38.5 -78.5
q0 -49 39 -78.5t100 -29.5q62 0 99.5 29.5t37.5 78.5q0 47 -38.5 78t-98.5 31zM379 735q68 0 110.5 34.5t42.5 86.5q0 54 -42.5 87.5t-110.5 33.5q-70 0 -113 -33t-43 -88q0 -52 44 -86.5t112 -34.5z" />
    <glyph glyph-name="nine.num" horiz-adv-x="778" 
d="M698 1038q0 -216 -86.5 -326t-253.5 -110q-112 0 -188 50.5t-104 129.5l141 56q14 -45 53.5 -73t95.5 -28q171 0 181 236q-74 -66 -183 -66q-131 0 -211 75.5t-80 188.5q0 118 87.5 196.5t222.5 78.5q148 0 236.5 -102.5t88.5 -305.5zM373 1313q-64 0 -104 -40t-40 -99
q0 -58 41 -98t103 -40q64 0 105.5 38.5t41.5 99.5q0 62 -40.5 100.5t-106.5 38.5z" />
    <glyph glyph-name="zero.den" horiz-adv-x="833" 
d="M418 -14q-162 0 -253 109t-91 313t91 312.5t253 108.5t252 -108.5t90 -312.5q0 -202 -90.5 -312t-251.5 -110zM418 133q168 0 168 275q0 131 -43.5 202.5t-124.5 71.5q-170 0 -170 -274q0 -275 170 -275z" />
    <glyph glyph-name="one.den" 
d="M248 0v625l-203 -88l-12 157l284 123h103v-817h-172z" />
    <glyph glyph-name="two.den" horiz-adv-x="716" 
d="M655 141v-141h-604v113l350 340q46 43 63 73t17 62q0 45 -33 72.5t-88 27.5q-56 0 -90 -32.5t-34 -84.5h-168q0 116 82.5 188t211.5 72q128 0 209.5 -70t81.5 -171q0 -58 -25 -106.5t-93 -114.5l-246 -228h366z" />
    <glyph glyph-name="three.den" horiz-adv-x="743" 
d="M676 231q0 -94 -82 -170q-79 -73 -234 -73q-142 0 -228 68t-87 184h168q1 -54 41 -85.5t104 -31.5t104 32t40 87q0 57 -48.5 87.5t-121.5 30.5h-92v134h84q82 0 121.5 29t39.5 77q0 44 -33 70t-90 26q-56 0 -92.5 -29.5t-36.5 -76.5h-165q0 105 84.5 173t214.5 68
q133 0 211.5 -63t78.5 -158q0 -59 -35.5 -104.5t-95.5 -71.5q70 -26 110 -78t40 -125z" />
    <glyph glyph-name="four.den" horiz-adv-x="755" 
d="M727 195h-135v-195h-160v195h-403v108l297 514h178l-287 -485h217v155h158v-155h135v-137z" />
    <glyph glyph-name="five.den" horiz-adv-x="733" 
d="M678 262q0 -130 -88.5 -202t-224.5 -72q-118 0 -199 51.5t-107 130.5l154 55q15 -42 54 -72t93 -30q66 0 107 37t41 100q0 59 -42 96t-106 37q-39 0 -72 -14t-50 -31h-148l39 469h522v-141h-377l-18 -180q51 28 133 28q126 0 207.5 -71.5t81.5 -190.5z" />
    <glyph glyph-name="six.den" horiz-adv-x="772" 
d="M709 260q0 -118 -87 -196t-223 -78q-148 0 -236.5 102t-88.5 305q0 216 86.5 326t253.5 110q112 0 188.5 -50.5t104.5 -129.5l-142 -55q-14 45 -53.5 72.5t-95.5 27.5q-170 0 -180 -235q72 65 182 65q131 0 211 -75.5t80 -188.5zM399 119q64 0 104 40t40 99
q0 58 -41 97.5t-103 39.5q-64 0 -105.5 -38t-41.5 -99q0 -62 40.5 -100.5t106.5 -38.5z" />
    <glyph glyph-name="seven.den" horiz-adv-x="649" 
d="M80 0l350 676h-403v141h600v-115l-363 -702h-184z" />
    <glyph glyph-name="eight.den" horiz-adv-x="757" 
d="M692 231q0 -106 -87 -175.5t-226 -69.5t-227.5 70t-88.5 175q0 61 32.5 111.5t90.5 83.5q-102 70 -102 174q0 100 83 165.5t212 65.5q128 0 210.5 -65.5t82.5 -165.5q0 -50 -27.5 -95.5t-75.5 -78.5q58 -33 90.5 -83.5t32.5 -111.5zM379 702q-62 0 -100.5 -30t-38.5 -78
q0 -49 39 -79t100 -30q62 0 99.5 30t37.5 79q0 47 -38.5 77.5t-98.5 30.5zM379 119q68 0 110.5 34.5t42.5 86.5q0 54 -42.5 87t-110.5 33q-70 0 -113 -32.5t-43 -87.5q0 -52 44 -86.5t112 -34.5z" />
    <glyph glyph-name="nine.den" horiz-adv-x="772" 
d="M698 422q0 -216 -86.5 -326t-253.5 -110q-112 0 -188 50.5t-104 129.5l141 55q14 -45 53.5 -72.5t95.5 -27.5q171 0 181 235q-72 -65 -183 -65q-131 0 -211 75.5t-80 188.5q0 118 87 196t223 78q148 0 236.5 -102t88.5 -305zM373 696q-64 0 -104 -40t-40 -99
q0 -58 41 -97.5t103 -39.5q64 0 105.5 38t41.5 99q0 62 -40.5 100.5t-106.5 38.5z" />
    <glyph glyph-name="zero.sub" horiz-adv-x="833" 
d="M418 -219q-162 0 -253 109t-91 313t91 313t253 109t252 -108.5t90 -313.5q0 -202 -90.5 -312t-251.5 -110zM418 -72q168 0 168 275q0 131 -43.5 202.5t-124.5 71.5q-170 0 -170 -274q0 -275 170 -275z" />
    <glyph glyph-name="one.sub" 
d="M248 -205v625l-203 -88l-12 157l284 123h103v-817h-172z" />
    <glyph glyph-name="two.sub" horiz-adv-x="716" 
d="M655 -63v-142h-604v113l350 340q46 43 63 73t17 62q0 45 -33 72.5t-88 27.5q-56 0 -90 -32t-34 -84h-168q0 116 82.5 188t211.5 72q128 0 209.5 -70.5t81.5 -171.5q0 -58 -25 -106.5t-93 -114.5l-246 -227h366z" />
    <glyph glyph-name="three.sub" horiz-adv-x="743" 
d="M676 27q0 -94 -82 -170q-80 -74 -234 -74q-142 0 -228 68t-87 184h168q1 -54 41 -85.5t104 -31.5t104 32t40 87q0 57 -48.5 88t-121.5 31h-92v133h84q82 0 121.5 29.5t39.5 76.5q0 44 -33 70.5t-90 26.5q-56 0 -92.5 -30t-36.5 -77h-165q0 105 85 173.5t214 68.5
q133 0 211.5 -63t78.5 -158q0 -59 -35.5 -105t-95.5 -72q70 -26 110 -77.5t40 -124.5z" />
    <glyph glyph-name="four.sub" horiz-adv-x="755" 
d="M727 -10h-135v-195h-160v195h-403v108l297 514h178l-287 -485h217v156h158v-156h135v-137z" />
    <glyph glyph-name="five.sub" horiz-adv-x="733" 
d="M678 57q0 -130 -88.5 -202t-224.5 -72q-118 0 -199 51.5t-107 130.5l154 55q15 -42 54 -72t93 -30q66 0 107 37t41 100q0 59 -42 96t-106 37q-39 0 -72 -14t-50 -31h-148l39 469h522v-141h-377l-18 -180q51 28 133 28q126 0 207.5 -71.5t81.5 -190.5z" />
    <glyph glyph-name="six.sub" horiz-adv-x="772" 
d="M709 55q0 -118 -87 -196t-223 -78q-148 0 -236.5 102t-88.5 305q0 216 87 326.5t253 110.5q112 0 188.5 -51t104.5 -130l-142 -55q-14 45 -53.5 72.5t-95.5 27.5q-170 0 -180 -235q72 65 182 65q131 0 211 -75.5t80 -188.5zM399 -86q64 0 104 40t40 99q0 58 -41 97.5
t-103 39.5q-64 0 -105.5 -38t-41.5 -99q0 -62 40.5 -100.5t106.5 -38.5z" />
    <glyph glyph-name="seven.sub" horiz-adv-x="649" 
d="M80 -205l350 676h-403v141h600v-114l-363 -703h-184z" />
    <glyph glyph-name="eight.sub" horiz-adv-x="757" 
d="M692 27q0 -106 -87 -176t-226 -70t-227.5 70t-88.5 176q0 61 32.5 111t90.5 83q-102 70 -102 174q0 100 83.5 166t211.5 66t210.5 -66t82.5 -166q0 -50 -27.5 -95.5t-75.5 -78.5q58 -33 90.5 -83t32.5 -111zM379 498q-62 0 -100.5 -30.5t-38.5 -78.5q0 -49 39 -78.5
t100 -29.5q62 0 99.5 29.5t37.5 78.5q0 47 -38.5 78t-98.5 31zM379 -86q68 0 110.5 34.5t42.5 86.5q0 54 -42.5 87.5t-110.5 33.5q-70 0 -113 -33t-43 -88q0 -52 44 -86.5t112 -34.5z" />
    <glyph glyph-name="nine.sub" horiz-adv-x="772" 
d="M698 217q0 -216 -86.5 -326t-253.5 -110q-112 0 -188 50.5t-104 129.5l141 55q14 -45 53.5 -72.5t95.5 -27.5q171 0 181 236q-74 -66 -183 -66q-131 0 -211 75.5t-80 188.5q0 118 87.5 196.5t222.5 78.5q148 0 236.5 -102.5t88.5 -305.5zM373 492q-64 0 -104 -40.5
t-40 -99.5q0 -58 41 -97.5t103 -39.5q64 0 105.5 38t41.5 99q0 62 -40.5 101t-106.5 39z" />
    <glyph glyph-name="a.sup" horiz-adv-x="817" 
d="M518 711q-93 -68 -194 -68q-95 0 -168 55q-72 57 -72 152q0 86 60.5 138t191.5 83l190 49q-6 42 -42.5 66t-94.5 24q-111 0 -153 -86l-146 54q32 83 117.5 131.5t193.5 48.5q137 0 218 -65t81 -185v-455h-168v68zM258 864q0 -36 31.5 -58t72.5 -22q61 0 132 43l32 21v145
l-131 -32q-74 -20 -105.5 -40.5t-31.5 -56.5z" />
    <glyph glyph-name="b.sup" horiz-adv-x="911" 
d="M840 1001q0 -169 -95 -264.5t-235 -95.5q-133 0 -213 90v-78h-170v987h184v-350q81 68 197 68q133 0 233 -92q99 -92 99 -265zM311 954q0 -67 49.5 -108t120.5 -41q76 0 124 51t48 145q0 91 -49 142t-125 51q-69 0 -118.5 -40.5t-49.5 -106.5v-93z" />
    <glyph glyph-name="c.sup" horiz-adv-x="819" 
d="M426 641q-70 0 -133 23t-113 66.5t-80 113.5t-30 157q0 113 52 196t131.5 122t172.5 39q124 0 209 -58t117 -151l-158 -53q-20 47 -62.5 72.5t-99.5 25.5q-74 0 -126 -50.5t-52 -142.5t52 -144t126 -52q60 0 102.5 30t63.5 83l158 -60q-36 -107 -122.5 -162t-207.5 -55z
" />
    <glyph glyph-name="d.sup" horiz-adv-x="911" 
d="M612 653v74q-37 -39 -92.5 -62.5t-120.5 -23.5q-140 0 -233.5 95t-93.5 265q0 172 96 265q100 92 233 92q122 0 199 -68v350h184v-987h-172zM258 1001q0 -95 47.5 -145.5t124.5 -50.5q71 0 120.5 41t49.5 110v88q0 67 -49.5 108.5t-120.5 41.5q-76 0 -124 -50t-48 -143z
" />
    <glyph glyph-name="e.sup" horiz-adv-x="837" 
d="M760 795q-44 -68 -127 -110t-195 -42q-160 0 -264 93t-104 265q0 163 102.5 260t255.5 97q149 0 241.5 -88t98.5 -240q0 -17 1 -38.5t1 -28.5h-516q1 -78 56.5 -126.5t138.5 -48.5q122 0 186 93zM424 1214q-67 0 -114.5 -35.5t-51.5 -101.5h324q-4 66 -48.5 101.5
t-109.5 35.5z" />
    <glyph glyph-name="f.sup" horiz-adv-x="542" 
d="M514 1186h-170v-533h-180v533h-113v155h113v60q0 132 69 188q63 60 177 60q146 0 217 -78l-101 -113q-38 35 -92 35q-41 0 -65.5 -22.5t-24.5 -67.5v-62h170v-155z" />
    <glyph glyph-name="g.sup" horiz-adv-x="911" 
d="M784 651q0 -149 -93.5 -232t-270.5 -83q-90 0 -174 26t-137 72l106 131q66 -69 195 -69q98 0 144 40.5t46 122.5v60q-81 -74 -194 -74q-136 0 -236 92q-96 93 -96 264q0 165 96 261q98 94 236 94q124 0 204 -80v65h174v-690zM260 1001q0 -93 48.5 -142.5t125.5 -49.5
q64 0 115 43t51 102v88q0 59 -47.5 105.5t-118.5 46.5q-77 0 -125.5 -50t-48.5 -143z" />
    <glyph glyph-name="h.sup" horiz-adv-x="903" 
d="M465 1188q-107 0 -154 -101v-434h-184v987h184v-374q76 90 209 90q124 0 196 -70t72 -201v-432h-184v391q0 144 -139 144z" />
    <glyph glyph-name="i.sup" horiz-adv-x="436" 
d="M217 1442q-44 0 -76 32t-32 76t32 76.5t76 32.5q47 0 79 -32t32 -77t-32 -76.5t-79 -31.5zM127 653v688h184v-688h-184z" />
    <glyph glyph-name="j.sup" horiz-adv-x="563" 
d="M342 1444q-44 0 -76.5 32t-32.5 76t32.5 76.5t76.5 32.5q47 0 79 -32t32 -77t-32 -76.5t-79 -31.5zM436 1341v-751q0 -116 -63.5 -170.5t-165.5 -54.5q-63 0 -118 24.5t-87 65.5l113 110q31 -39 73 -39q27 0 45.5 17.5t18.5 48.5v749h184z" />
    <glyph glyph-name="k.sup" horiz-adv-x="845" 
d="M598 653l-201 308l-90 -82v-226h-180v987h180v-553l273 254h235l-285 -260l285 -428h-217z" />
    <glyph glyph-name="l.sup" horiz-adv-x="436" 
d="M127 653v987h184v-987h-184z" />
    <glyph glyph-name="m.sup" horiz-adv-x="1343" 
d="M457 1188q-52 0 -92.5 -28t-53.5 -75v-432h-184v688h184v-75q74 88 205 88q144 0 209 -103q89 103 240 103q122 0 193 -69.5t71 -201.5v-430h-182v391q0 71 -33.5 107.5t-95.5 36.5q-51 0 -91 -28t-57 -75v-4v-428h-184v391q0 71 -33.5 107.5t-95.5 36.5z" />
    <glyph glyph-name="n.sup" horiz-adv-x="903" 
d="M465 1188q-52 0 -93 -27.5t-61 -77.5v-430h-184v688h184v-75q76 90 211 90q122 0 194 -70.5t72 -202.5v-430h-184v389q0 72 -36 109t-103 37z" />
    <glyph glyph-name="o.sup" horiz-adv-x="870" 
d="M434 641q-157 0 -260.5 97.5t-103.5 260.5q0 164 106 261.5t258 97.5q157 0 263 -96.5t106 -262.5q0 -162 -107 -260t-262 -98zM434 805q80 0 131 52t51 142t-52 142.5t-130 52.5t-129 -52t-51 -143q0 -90 51 -142t129 -52z" />
    <glyph glyph-name="p.sup" horiz-adv-x="913" 
d="M514 641q-122 0 -201 76v-334h-184v958h172v-69q83 86 211 86q136 0 231 -92q99 -92 99 -265q0 -169 -95 -264.5t-233 -95.5zM313 954q1 -67 50 -108t120 -41q77 0 124.5 50.5t47.5 145.5q0 94 -48 143.5t-126 49.5q-66 0 -116.5 -40.5t-51.5 -106.5v-93z" />
    <glyph glyph-name="q.sup" horiz-adv-x="915" 
d="M784 1341v-958h-184v332q-81 -74 -201 -74q-140 0 -233.5 95t-93.5 265q0 172 96 265q100 92 233 92q132 0 211 -82v65h172zM258 1001q0 -95 47.5 -145.5t124.5 -50.5q71 0 120.5 41t49.5 110v88q0 67 -49.5 108.5t-120.5 41.5q-76 0 -124 -50t-48 -143z" />
    <glyph glyph-name="r.sup" horiz-adv-x="606" 
d="M434 1180q-40 0 -74.5 -23.5t-48.5 -56.5v-447h-184v688h184v-73q26 37 67.5 60.5t90.5 23.5q75 0 127 -35l-64 -164q-46 27 -98 27z" />
    <glyph glyph-name="s.sup" horiz-adv-x="743" 
d="M377 641q-120 0 -203 50t-113 143l150 49q19 -51 62 -79t104 -28q54 0 88.5 19.5t34.5 54.5q0 36 -38 53.5t-120 30.5q-122 21 -187 67.5t-65 139.5q0 98 82.5 157.5t208.5 59.5q117 0 191 -48t100 -128l-150 -45q-27 88 -141 88q-53 0 -86 -22.5t-33 -55.5
q0 -18 9.5 -30t32.5 -20.5t45 -13t63 -10.5q123 -19 192.5 -69.5t69.5 -147.5q0 -98 -83 -156.5t-214 -58.5z" />
    <glyph glyph-name="t.sup" horiz-adv-x="614" 
d="M559 709q-66 -66 -188 -66q-103 0 -161 54t-58 165v324h-107v155h111v193h176v-193h198v-155h-200v-305q0 -84 76 -84q39 0 77 30z" />
    <glyph glyph-name="u.sup" horiz-adv-x="894" 
d="M586 653v80q-78 -92 -207 -92q-120 0 -192 68.5t-72 195.5v436h184v-393q0 -69 37.5 -104t97.5 -35q49 0 89 26t63 76v430h184v-688h-184z" />
    <glyph glyph-name="v.sup" horiz-adv-x="776" 
d="M752 1341l-271 -688h-188l-268 688h190l176 -473l178 473h183z" />
    <glyph glyph-name="w.sup" horiz-adv-x="1064" 
d="M676 653l-144 316l-145 -316h-147l-205 688h188l123 -426l125 285h127l123 -287l127 428h182l-207 -688h-147z" />
    <glyph glyph-name="x.sup" horiz-adv-x="780" 
d="M549 653l-158 238l-160 -238h-198l246 346l-238 342h201l149 -233l156 233h192l-233 -335l242 -353h-199z" />
    <glyph glyph-name="y.sup" horiz-adv-x="765" 
d="M743 1341l-434 -958h-192l170 371l-262 587h192l174 -391l164 391h188z" />
    <glyph glyph-name="z.sup" horiz-adv-x="720" 
d="M645 809v-156h-569v109l325 424h-317v155h555v-106l-326 -426h332z" />
    <glyph glyph-name="at.case" horiz-adv-x="1921" 
d="M1434 -27q-207 -127 -471 -127q-174 0 -330 66t-269.5 180.5t-180 277t-66.5 347.5t64.5 347t176.5 278t270.5 182.5t340.5 66.5q179 0 335 -64.5t264.5 -176t171 -264t62.5 -324.5q0 -68 -15 -136t-46.5 -130.5t-76 -110.5t-108.5 -77t-139 -29q-82 0 -145.5 35
t-100.5 94q-91 -123 -245 -123q-167 0 -278 116.5t-111 315.5q0 101 33 183.5t88 133.5t121 78t136 27q138 0 220 -95l6 86h180v-565q0 -56 29 -88.5t73 -32.5q92 0 146 91q51 86 51 217q0 140 -47.5 264t-131.5 214t-206.5 142.5t-265.5 52.5q-194 0 -348 -92.5t-239 -254
t-85 -361.5t88 -361.5t240 -251.5t338 -90q212 0 393 107zM737 717q0 -117 59 -182.5t148 -65.5q59 0 109.5 37.5t74.5 107.5v193q-20 66 -71 106.5t-113 40.5q-92 0 -149.5 -64t-57.5 -173z" />
    <glyph glyph-name="hyphen.case" horiz-adv-x="776" 
d="M88 639v180h598v-180h-598z" />
    <glyph glyph-name="exclamdown.case" horiz-adv-x="602" 
d="M301 1456q57 0 99 -42t42 -101q0 -57 -42 -99.5t-99 -42.5q-59 0 -100 42t-41 100q0 60 40.5 101.5t100.5 41.5zM387 1006l29 -1006h-230l29 1006h172z" />
    <glyph glyph-name="questiondown.case" horiz-adv-x="1048" 
d="M588 1458q57 0 98 -41.5t41 -101.5q0 -57 -41 -99t-98 -42q-59 0 -100.5 41.5t-41.5 99.5q0 60 41 101.5t101 41.5zM690 1008v-90q0 -100 -14 -156t-43.5 -86.5t-89.5 -59.5l-68 -34q-170 -87 -170 -222q0 -83 64 -138.5t163 -55.5q105 0 173.5 64t74.5 173l207 -18
q-7 -186 -135.5 -297t-319.5 -111q-201 0 -323 107q-121 109 -121 274q0 130 65 216t189 147l78 39q35 19 49 47.5t14 93.5v107h207z" />
    <glyph glyph-name="bracketleft.case" horiz-adv-x="737" 
d="M178 -217v1868h518v-170h-311v-1528h311v-170h-518z" />
    <glyph glyph-name="bracketright.case" horiz-adv-x="737" 
d="M559 1651v-1868h-518v170h311v1528h-311v170h518z" />
    <glyph glyph-name="endash.case" horiz-adv-x="1142" 
d="M90 645v170h963v-170h-963z" />
    <glyph glyph-name="emdash.case" horiz-adv-x="1624" 
d="M90 645v170h1444v-170h-1444z" />
    <glyph glyph-name="guillemotleft.case" horiz-adv-x="1189" 
d="M461 272l-387 451l389 453l131 -115l-289 -334l291 -338zM948 272l-387 451l389 453l131 -115l-288 -334l290 -338z" />
    <glyph glyph-name="guillemotright.case" horiz-adv-x="1189" 
d="M729 1176l387 -451l-389 -453l-131 115l289 334l-291 338zM242 1176l387 -451l-389 -453l-131 115l288 334l-291 338z" />
    <glyph glyph-name="guilsinglleft.case" horiz-adv-x="704" 
d="M461 272l-387 451l389 453l131 -115l-289 -334l291 -338z" />
    <glyph glyph-name="guilsinglright.case" horiz-adv-x="704" 
d="M242 1176l387 -451l-389 -453l-131 115l288 334l-291 338z" />
    <glyph glyph-name="parenleft.case" horiz-adv-x="700" 
d="M528 -301q-187 187 -300 460.5t-113 567.5q0 273 114 546.5t299 463.5l150 -123q-149 -173 -248 -402q-102 -234 -102 -485q0 -267 102 -504q98 -227 248 -401z" />
    <glyph glyph-name="parenright.case" horiz-adv-x="700" 
d="M172 1737q187 -187 300.5 -461t113.5 -567q0 -273 -114.5 -546.5t-299.5 -463.5l-149 123q147 170 247 399q103 239 103 488q0 264 -103 503q-100 232 -247 402z" />
    <glyph glyph-name="a.alt" horiz-adv-x="1208" 
d="M844 0v117q-50 -60 -130.5 -98.5t-174.5 -38.5q-195 0 -323 145t-128 383q0 235 128.5 379.5t322.5 144.5q197 0 305 -133v109h198v-1008h-198zM301 508q0 -157 75 -247.5t189 -90.5q103 0 185 70q81 69 84 215v106q-1 132 -78 207.5t-191 75.5t-189 -90t-75 -246z" />
    <glyph glyph-name="g.alt" horiz-adv-x="1193" 
d="M1028 18q0 -206 -121.5 -319t-328.5 -113q-158 0 -278.5 64t-178.5 190l170 92q86 -165 284 -165q116 0 180 69t64 193v110q-47 -54 -120.5 -86.5t-163.5 -32.5q-194 0 -320.5 139.5t-126.5 368.5q0 225 126.5 364.5t317.5 139.5q192 0 299 -133v109h197v-990zM301 528
q0 -148 73 -233.5t187 -85.5q106 0 181.5 72.5t76.5 201.5v86q-1 126 -76 201.5t-184 75.5q-112 0 -185 -85t-73 -233z" />
    <glyph glyph-name="j.alt" 
d="M270 1194q-56 0 -93.5 38t-37.5 93q0 57 37.5 94t93.5 37t93.5 -37t37.5 -94q0 -55 -37.5 -93t-93.5 -38zM39 -401l-21 186q72 8 110 49t38 135v1039h209v-1051q0 -335 -336 -358z" />
    <glyph glyph-name="dotlessj.alt" 
d="M39 -401l-21 186q72 8 110 49t38 135v1039h209v-1051q0 -335 -336 -358z" />
    <glyph glyph-name="ij.alt" horiz-adv-x="1081" 
d="M270 1194q-56 0 -93.5 38t-37.5 93q0 57 37.5 94t93.5 37t93.5 -37t37.5 -94q0 -55 -37.5 -93t-93.5 -38zM166 0v1008h209v-1008h-209zM811 1194q-55 0 -93 38t-38 93q0 57 37.5 94t93.5 37t93.5 -37t37.5 -94q0 -55 -38 -93t-93 -38zM580 -401l-21 186q72 8 110 49
t38 135v1039h208v-1051q0 -335 -335 -358z" />
    <glyph glyph-name="aacute.alt" horiz-adv-x="1208" 
d="M844 0v117q-50 -60 -130.5 -98.5t-174.5 -38.5q-195 0 -323 145t-128 383q0 235 128.5 379.5t322.5 144.5q197 0 305 -133v109h198v-1008h-198zM301 508q0 -157 75 -247.5t189 -90.5q103 0 185 70q81 69 84 215v106q-1 132 -78 207.5t-191 75.5t-189 -90t-75 -246z
M504 1157v4l143 289h232v-4l-205 -289h-170z" />
    <glyph glyph-name="acircumflex.alt" horiz-adv-x="1208" 
d="M844 0v117q-50 -60 -130.5 -98.5t-174.5 -38.5q-195 0 -323 145t-128 383q0 235 128.5 379.5t322.5 144.5q197 0 305 -133v109h198v-1008h-198zM301 508q0 -157 75 -247.5t189 -90.5q103 0 185 70q81 69 84 215v106q-1 132 -78 207.5t-191 75.5t-189 -90t-75 -246z
M338 1159v162l264 156l260 -156v-162l-266 141z" />
    <glyph glyph-name="adieresis.alt" horiz-adv-x="1208" 
d="M844 0v117q-50 -60 -130.5 -98.5t-174.5 -38.5q-195 0 -323 145t-128 383q0 235 128.5 379.5t322.5 144.5q197 0 305 -133v109h198v-1008h-198zM301 508q0 -157 75 -247.5t189 -90.5q103 0 185 70q81 69 84 215v106q-1 132 -78 207.5t-191 75.5t-189 -90t-75 -246z
M397 1198q-49 0 -82.5 33.5t-33.5 83.5t33.5 83.5t82.5 33.5t83 -34t34 -83t-34 -83t-83 -34zM799 1198q-48 0 -82.5 34t-34.5 83t34.5 83t82.5 34q50 0 84.5 -34t34.5 -83t-34.5 -83t-84.5 -34z" />
    <glyph glyph-name="agrave.alt" horiz-adv-x="1208" 
d="M844 0v117q-50 -60 -130.5 -98.5t-174.5 -38.5q-195 0 -323 145t-128 383q0 235 128.5 379.5t322.5 144.5q197 0 305 -133v109h198v-1008h-198zM301 508q0 -157 75 -247.5t189 -90.5q103 0 185 70q81 69 84 215v106q-1 132 -78 207.5t-191 75.5t-189 -90t-75 -246z
M528 1157l-204 289v4h231l143 -289v-4h-170z" />
    <glyph glyph-name="atilde.alt" horiz-adv-x="1208" 
d="M844 0v117q-50 -60 -130.5 -98.5t-174.5 -38.5q-195 0 -323 145t-128 383q0 235 128.5 379.5t322.5 144.5q197 0 305 -133v109h198v-1008h-198zM301 508q0 -157 75 -247.5t189 -90.5q103 0 185 70q81 69 84 215v106q-1 132 -78 207.5t-191 75.5t-189 -90t-75 -246z
M711 1178q-43 0 -84.5 20.5t-75.5 41t-57 20.5q-57 0 -68 -74l-123 20q2 86 53.5 143.5t130.5 57.5q42 0 83 -21t75.5 -42t59.5 -21q30 0 46.5 21t18.5 53l125 -19q-2 -87 -53.5 -143.5t-130.5 -56.5z" />
    <glyph glyph-name="aring.alt" horiz-adv-x="1208" 
d="M844 0v117q-50 -60 -130.5 -98.5t-174.5 -38.5q-195 0 -323 145t-128 383q0 235 128.5 379.5t322.5 144.5q197 0 305 -133v109h198v-1008h-198zM301 508q0 -157 75 -247.5t189 -90.5q103 0 185 70q81 69 84 215v106q-1 132 -78 207.5t-191 75.5t-189 -90t-75 -246z
M600 1133q-75 0 -127.5 50.5t-52.5 125.5t52.5 126.5t127.5 51.5t127.5 -51.5t52.5 -126.5q0 -74 -53 -125t-127 -51zM600 1231q31 0 54.5 23t23.5 55t-23.5 56t-54.5 24q-33 0 -55.5 -22.5t-22.5 -57.5q0 -32 23 -55t55 -23z" />
    <glyph glyph-name="amacron.alt" horiz-adv-x="1208" 
d="M844 0v117q-50 -60 -130.5 -98.5t-174.5 -38.5q-195 0 -323 145t-128 383q0 235 128.5 379.5t322.5 144.5q197 0 305 -133v109h198v-1008h-198zM301 508q0 -157 75 -247.5t189 -90.5q103 0 185 70q81 69 84 215v106q-1 132 -78 207.5t-191 75.5t-189 -90t-75 -246z
M358 1233v143h482v-143h-482z" />
    <glyph glyph-name="abreve.alt" horiz-adv-x="1208" 
d="M844 0v117q-50 -60 -130.5 -98.5t-174.5 -38.5q-195 0 -323 145t-128 383q0 235 128.5 379.5t322.5 144.5q197 0 305 -133v109h198v-1008h-198zM301 508q0 -157 75 -247.5t189 -90.5q103 0 185 70q81 69 84 215v106q-1 132 -78 207.5t-191 75.5t-189 -90t-75 -246z
M598 1169q-117 0 -192 72.5t-76 192.5h149q0 -57 31.5 -91t87.5 -34t88.5 34.5t32.5 90.5h149q-1 -120 -78.5 -192.5t-191.5 -72.5z" />
    <glyph glyph-name="aringacute.alt" horiz-adv-x="1208" 
d="M844 0v117q-50 -60 -130.5 -98.5t-174.5 -38.5q-195 0 -323 145t-128 383q0 235 128.5 379.5t322.5 144.5q197 0 305 -133v109h198v-1008h-198zM301 508q0 -157 75 -247.5t189 -90.5q103 0 185 70q81 69 84 215v106q-1 132 -78 207.5t-191 75.5t-189 -90t-75 -246z
M600 1133q-75 0 -127.5 50.5t-52.5 125.5t52.5 126.5t127.5 51.5t127.5 -51.5t52.5 -126.5q0 -74 -53 -125t-127 -51zM600 1231q31 0 54.5 23t23.5 55t-23.5 56t-54.5 24q-33 0 -55.5 -22.5t-22.5 -57.5q0 -32 23 -55t55 -23zM506 1573v4l143 289h232v-4l-205 -289h-170z
" />
    <glyph glyph-name="aogonek.alt" horiz-adv-x="1208" 
d="M844 0v117q-50 -60 -130.5 -98.5t-174.5 -38.5q-195 0 -323 145t-128 383q0 235 128.5 379.5t322.5 144.5q197 0 305 -133v109h198v-1008h-198zM301 508q0 -157 75 -247.5t189 -90.5q103 0 185 70q81 69 84 215v106q-1 132 -78 207.5t-191 75.5t-189 -90t-75 -246z
M887 -414q-85 0 -145 44.5t-60 127.5q0 89 64 162t182 139l112 -59q-81 -35 -137.5 -90.5t-56.5 -114.5q0 -34 19.5 -49.5t49.5 -15.5q52 0 91 39l77 -103q-77 -80 -196 -80z" />
    <glyph glyph-name="gdotaccent.alt" horiz-adv-x="1193" 
d="M1028 18q0 -206 -121.5 -319t-328.5 -113q-158 0 -278.5 64t-178.5 190l170 92q86 -165 284 -165q116 0 180 69t64 193v110q-47 -54 -120.5 -86.5t-163.5 -32.5q-194 0 -320.5 139.5t-126.5 368.5q0 225 126.5 364.5t317.5 139.5q192 0 299 -133v109h197v-990zM301 528
q0 -148 73 -233.5t187 -85.5q106 0 181.5 72.5t76.5 201.5v86q-1 126 -76 201.5t-184 75.5q-112 0 -185 -85t-73 -233zM571 1200q-54 0 -90.5 36t-36.5 91t36.5 92t90.5 37q55 0 92 -37t37 -92t-36.5 -91t-92.5 -36z" />
    <glyph glyph-name="gcommaaccent.alt" horiz-adv-x="1193" 
d="M1028 18q0 -206 -121.5 -319t-328.5 -113q-158 0 -278.5 64t-178.5 190l170 92q86 -165 284 -165q116 0 180 69t64 193v110q-47 -54 -120.5 -86.5t-163.5 -32.5q-194 0 -320.5 139.5t-126.5 368.5q0 225 126.5 364.5t317.5 139.5q192 0 299 -133v109h197v-990zM301 528
q0 -148 73 -233.5t187 -85.5q106 0 181.5 72.5t76.5 201.5v86q-1 126 -76 201.5t-184 75.5q-112 0 -185 -85t-73 -233zM674 1526l-62 -152q30 -9 55 -38t25 -70q0 -49 -36.5 -83t-82.5 -34q-50 0 -84 34.5t-34 82.5q0 53 37 135l55 125h127z" />
    <glyph glyph-name="gbreve.alt" horiz-adv-x="1193" 
d="M1028 18q0 -206 -121.5 -319t-328.5 -113q-158 0 -278.5 64t-178.5 190l170 92q86 -165 284 -165q116 0 180 69t64 193v110q-47 -54 -120.5 -86.5t-163.5 -32.5q-194 0 -320.5 139.5t-126.5 368.5q0 225 126.5 364.5t317.5 139.5q192 0 299 -133v109h197v-990zM301 528
q0 -148 73 -233.5t187 -85.5q106 0 181.5 72.5t76.5 201.5v86q-1 126 -76 201.5t-184 75.5q-112 0 -185 -85t-73 -233zM571 1169q-117 0 -192 72.5t-76 192.5h150q0 -57 31 -91t87 -34t88.5 34.5t32.5 90.5h150q-1 -120 -79 -192.5t-192 -72.5z" />
    <glyph glyph-name="gcircumflex.alt" horiz-adv-x="1193" 
d="M1028 18q0 -206 -121.5 -319t-328.5 -113q-158 0 -278.5 64t-178.5 190l170 92q86 -165 284 -165q116 0 180 69t64 193v110q-47 -54 -120.5 -86.5t-163.5 -32.5q-194 0 -320.5 139.5t-126.5 368.5q0 225 126.5 364.5t317.5 139.5q192 0 299 -133v109h197v-990zM301 528
q0 -148 73 -233.5t187 -85.5q106 0 181.5 72.5t76.5 201.5v86q-1 126 -76 201.5t-184 75.5q-112 0 -185 -85t-73 -233zM309 1159v162l264 156l261 -156v-162l-267 141z" />
    <glyph glyph-name="jcircumflex.alt" 
d="M39 -401l-21 186q72 8 110 49t38 135v1039h209v-1051q0 -335 -336 -358zM8 1159v162l264 156l260 -156v-162l-266 141z" />
    <glyph glyph-name="zero.percent" horiz-adv-x="923" 
d="M461 -20q-155 0 -258 112q-105 114 -105 303q0 190 105 301q108 111 258 111q155 0 260 -111q104 -110 104 -301t-106 -303q-103 -112 -258 -112zM461 147q80 0 130 66.5t50 181.5q0 112 -51.5 178t-128.5 66q-78 0 -128 -65t-50 -179t50.5 -181t127.5 -67z" />
    <glyph glyph-name="germandbls.alt" horiz-adv-x="1251" 
d="M166 0v1040q0 193 117 316q120 123 311 123q97 0 174.5 -28t126 -77t73.5 -111.5t25 -134.5q0 -64 -23.5 -116t-56.5 -84t-66.5 -59.5t-57 -56.5t-23.5 -60q0 -43 33.5 -72t115.5 -62q135 -54 193.5 -127.5t58.5 -189.5q0 -133 -108 -225q-110 -90 -260 -90
q-98 0 -186 35.5t-142 89.5l109 145q98 -98 206 -98q73 0 122.5 39t49.5 98q0 55 -32.5 95.5t-112.5 68.5q-139 52 -197.5 108t-58.5 152q0 47 17 88.5t42.5 69t55 56.5t55 53t42.5 57t17 69q0 84 -53.5 135t-140.5 51q-96 0 -156.5 -66.5t-60.5 -189.5v-1042h-209z" />
    <glyph glyph-name="acute.ss01" horiz-adv-x="747" 
d="M119 1532v35l508 63h4v-98h-512z" />
    <glyph glyph-name="grave.ss01" horiz-adv-x="747" 
d="M119 1532v100h4l508 -65v-35h-512z" />
    <glyph glyph-name="circumflex.ss01" horiz-adv-x="747" 
d="M119 1511v48l258 86l254 -86v-48l-258 37z" />
    <glyph glyph-name="caron.ss01" horiz-adv-x="747" 
d="M629 1645v-48l-258 -86l-254 86v48l258 -37z" />
    <glyph glyph-name="cedilla.ss01" horiz-adv-x="567" 
d="M119 -248v101h104q65 0 90 20t33 70l103 -4q-14 -187 -199 -187h-131z" />
    <glyph glyph-name="ogonek.ss01" horiz-adv-x="532" 
d="M406 -240h-136q-75 0 -118 30t-43 91q0 71 61 111.5t178 62.5l66 -55q-102 0 -151.5 -27t-49.5 -67q0 -51 68 -51h125v-95z" />
    <glyph glyph-name="breve.ss01" horiz-adv-x="714" 
d="M313 1522q-39 0 -67.5 4.5t-57 17t-46 38.5t-23.5 65h78q7 -30 37.5 -42t84.5 -12h76q54 0 84 12t37 42h80q-6 -39 -23.5 -65t-46 -38.5t-57.5 -17t-68 -4.5h-88z" />
    <glyph glyph-name="dieresis.ss01" horiz-adv-x="825" 
d="M119 1532v80h237v-80h-237zM469 1532v80h238v-80h-238z" />
    <glyph glyph-name="dieresis.i.ss01" horiz-adv-x="681" 
d="M119 1532v82h180v-82h-180zM383 1532v82h182v-82h-182z" />
    <glyph glyph-name="hungarumlaut.ss01" horiz-adv-x="868" 
d="M119 1532v39l256 59h4v-98h-260zM489 1532v39l259 59h4v-98h-263z" />
    <glyph glyph-name="ring.ss01" horiz-adv-x="679" 
d="M246 1511q-127 0 -127 103q0 102 127 102h188q63 0 96 -23.5t33 -78.5q0 -103 -129 -103h-188zM238 1585h206q37 0 37 29q0 31 -37 31h-206q-37 0 -37 -31q0 -29 37 -29z" />
    <glyph glyph-name="tilde.ss01" horiz-adv-x="761" 
d="M197 1495l-78 12q4 115 110 115q31 0 88 -8l189 -21q56 -3 59 47l80 -12q-4 -115 -110 -115q-27 0 -91 9l-186 18q-58 3 -61 -45z" />
    <glyph glyph-name="macron.ss01" horiz-adv-x="716" 
d="M119 1532v80h481v-80h-481z" />
    <glyph glyph-name="dotaccent.ss01" horiz-adv-x="399" 
d="M201 1532q-32 0 -55 22t-23 52q0 29 23 51t55 22t53.5 -21.5t21.5 -51.5t-21.5 -52t-53.5 -22z" />
    <glyph glyph-name="commaaccent.ss01" horiz-adv-x="409" 
d="M119 -252l47 156h125l-55 -156h-117z" />
    <glyph glyph-name="Aacute.ss01" horiz-adv-x="1351" 
d="M1083 0l-170 492h-483l-172 -492h-223l514 1434h254l514 -1434h-234zM670 1217l-183 -533h367l-182 533h-2zM420 1516v34l508 64h4v-98h-512z" />
    <glyph glyph-name="Acircumflex.ss01" horiz-adv-x="1351" 
d="M1083 0l-170 492h-483l-172 -492h-223l514 1434h254l514 -1434h-234zM670 1217l-183 -533h367l-182 533h-2zM420 1495v47l258 86l254 -86v-47l-258 37z" />
    <glyph glyph-name="Adieresis.ss01" horiz-adv-x="1351" 
d="M1083 0l-170 492h-483l-172 -492h-223l514 1434h254l514 -1434h-234zM670 1217l-183 -533h367l-182 533h-2zM381 1516v79h237v-79h-237zM731 1516v79h238v-79h-238z" />
    <glyph glyph-name="Agrave.ss01" horiz-adv-x="1351" 
d="M1083 0l-170 492h-483l-172 -492h-223l514 1434h254l514 -1434h-234zM670 1217l-183 -533h367l-182 533h-2zM420 1516v100h4l508 -66v-34h-512z" />
    <glyph glyph-name="Atilde.ss01" horiz-adv-x="1351" 
d="M1083 0l-170 492h-483l-172 -492h-223l514 1434h254l514 -1434h-234zM670 1217l-183 -533h367l-182 533h-2zM492 1479l-78 12q4 115 110 115q24 0 88 -9l189 -20q56 -3 59 47l80 -12q-4 -115 -111 -115q-33 0 -90 8l-186 19q-58 3 -61 -45z" />
    <glyph glyph-name="Aring.ss01" horiz-adv-x="1351" 
d="M1083 0l-170 492h-483l-172 -492h-223l514 1434h254l514 -1434h-234zM670 1217l-183 -533h367l-182 533h-2zM582 1495q-127 0 -127 102q0 103 127 103h188q129 0 129 -103q0 -102 -129 -102h-188zM573 1569h207q37 0 37 28q0 31 -37 31h-207q-36 0 -36 -31q0 -28 36 -28z
" />
    <glyph glyph-name="Abreve.ss01" horiz-adv-x="1351" 
d="M1083 0l-170 492h-483l-172 -492h-223l514 1434h254l514 -1434h-234zM670 1217l-183 -533h367l-182 533h-2zM631 1505q-39 0 -68 4.5t-57.5 17t-46 38.5t-23.5 65h78q12 -53 123 -53h76q54 0 84 11.5t37 41.5h79q-6 -39 -23.5 -65t-46 -38.5t-57 -17t-67.5 -4.5h-88z" />
    <glyph glyph-name="Amacron.ss01" horiz-adv-x="1351" 
d="M1083 0l-170 492h-483l-172 -492h-223l514 1434h254l514 -1434h-234zM670 1217l-183 -533h367l-182 533h-2zM436 1516v79h482v-79h-482z" />
    <glyph glyph-name="Aogonek.ss01" horiz-adv-x="1351" 
d="M1083 0l-170 492h-483l-172 -492h-223l514 1434h254l514 -1434h-234zM670 1217l-183 -533h367l-182 533h-2zM1307 -240h-136q-75 0 -118 30t-43 91q0 71 61 111.5t178 62.5l66 -55q-102 0 -151.5 -27t-49.5 -67q0 -51 68 -51h125v-95z" />
    <glyph glyph-name="Aringacute.ss01" horiz-adv-x="1351" 
d="M1083 0l-170 492h-483l-172 -492h-223l514 1434h254l514 -1434h-234zM670 1217l-183 -533h367l-182 533h-2zM582 1495q-127 0 -127 102q0 103 127 103h188q129 0 129 -103q0 -102 -129 -102h-188zM573 1569h207q37 0 37 28q0 31 -37 31h-207q-36 0 -36 -31q0 -28 36 -28z
M420 1780v35l508 63h4v-98h-512z" />
    <glyph glyph-name="AEacute.ss01" horiz-adv-x="1896" 
d="M930 0l-25 512h-416l-247 -512h-234l715 1434h1071v-195h-711l17 -334h645v-194h-635l27 -516h665v-195h-872zM842 1239l-260 -539h313l-27 539h-26zM989 1511v35l508 64h4v-99h-512z" />
    <glyph glyph-name="Ccaron.ss01" horiz-adv-x="1454" 
d="M762 -20q-140 0 -263 54.5t-212.5 151t-141 235.5t-51.5 302q0 157 51.5 294t140.5 233.5t212 152t262 55.5q220 0 377 -106t223 -312l-211 -61q-35 110 -127 190q-96 84 -262 84q-128 0 -229 -72t-155 -192.5t-54 -265.5q0 -151 54.5 -273.5t156 -194t229.5 -71.5
q171 0 274 103q104 104 131 252l217 -39q-20 -123 -78.5 -222.5t-142 -164t-186.5 -99t-215 -34.5zM1016 1628v-47l-258 -86l-254 86v47l258 -37z" />
    <glyph glyph-name="Ccedilla.ss01" horiz-adv-x="1454" 
d="M762 -20q-140 0 -263 54.5t-212.5 151t-141 235.5t-51.5 302q0 157 51.5 294t140.5 233.5t212 152t262 55.5q220 0 377 -106t223 -312l-211 -61q-35 110 -127 190q-96 84 -262 84q-128 0 -229 -72t-155 -192.5t-54 -265.5q0 -151 54.5 -273.5t156 -194t229.5 -71.5
q171 0 274 103q104 104 131 252l217 -39q-20 -123 -78.5 -222.5t-142 -164t-186.5 -99t-215 -34.5zM555 -248v101h104q65 0 90 20t33 70l103 -4q-14 -187 -199 -187h-131z" />
    <glyph glyph-name="Cacute.ss01" horiz-adv-x="1454" 
d="M762 -20q-140 0 -263 54.5t-212.5 151t-141 235.5t-51.5 302q0 157 51.5 294t140.5 233.5t212 152t262 55.5q220 0 377 -106t223 -312l-211 -61q-35 110 -127 190q-96 84 -262 84q-128 0 -229 -72t-155 -192.5t-54 -265.5q0 -151 54.5 -273.5t156 -194t229.5 -71.5
q171 0 274 103q104 104 131 252l217 -39q-20 -123 -78.5 -222.5t-142 -164t-186.5 -99t-215 -34.5zM506 1516v34l508 64h4v-98h-512z" />
    <glyph glyph-name="Ccircumflex.ss01" horiz-adv-x="1454" 
d="M762 -20q-140 0 -263 54.5t-212.5 151t-141 235.5t-51.5 302q0 157 51.5 294t140.5 233.5t212 152t262 55.5q220 0 377 -106t223 -312l-211 -61q-35 110 -127 190q-96 84 -262 84q-128 0 -229 -72t-155 -192.5t-54 -265.5q0 -151 54.5 -273.5t156 -194t229.5 -71.5
q171 0 274 103q104 104 131 252l217 -39q-20 -123 -78.5 -222.5t-142 -164t-186.5 -99t-215 -34.5zM506 1495v47l258 86l254 -86v-47l-258 37z" />
    <glyph glyph-name="Cdotaccent.ss01" horiz-adv-x="1454" 
d="M762 -20q-140 0 -263 54.5t-212.5 151t-141 235.5t-51.5 302q0 157 51.5 294t140.5 233.5t212 152t262 55.5q220 0 377 -106t223 -312l-211 -61q-35 110 -127 190q-96 84 -262 84q-128 0 -229 -72t-155 -192.5t-54 -265.5q0 -151 54.5 -273.5t156 -194t229.5 -71.5
q171 0 274 103q104 104 131 252l217 -39q-20 -123 -78.5 -222.5t-142 -164t-186.5 -99t-215 -34.5zM762 1516q-32 0 -55 22t-23 51q0 30 23 52t55 22t54 -22t22 -52t-22 -51.5t-54 -21.5z" />
    <glyph glyph-name="Dcaron.ss01" horiz-adv-x="1415" 
d="M176 0v1434h481q132 0 252.5 -50t211.5 -138.5t145.5 -221.5t54.5 -289q0 -168 -53.5 -308.5t-144.5 -232.5t-210 -143t-251 -51h-486zM395 195h262q184 0 310.5 149t126.5 391q0 148 -61.5 264.5t-162 178t-219.5 61.5h-256v-1044zM901 1628v-47l-258 -86l-254 86v47
l258 -37z" />
    <glyph glyph-name="Ecircumflex.ss01" horiz-adv-x="1230" 
d="M1135 195v-195h-959v1434h952v-195h-733v-334h682v-194h-682v-516h740zM401 1495v47l258 86l254 -86v-47l-258 37z" />
    <glyph glyph-name="Eacute.ss01" horiz-adv-x="1230" 
d="M1135 195v-195h-959v1434h952v-195h-733v-334h682v-194h-682v-516h740zM401 1516v34l508 64h4v-98h-512z" />
    <glyph glyph-name="Edieresis.ss01" horiz-adv-x="1230" 
d="M1135 195v-195h-959v1434h952v-195h-733v-334h682v-194h-682v-516h740zM362 1516v79h238v-79h-238zM713 1516v79h237v-79h-237z" />
    <glyph glyph-name="Egrave.ss01" horiz-adv-x="1230" 
d="M1135 195v-195h-959v1434h952v-195h-733v-334h682v-194h-682v-516h740zM401 1516v100h5l507 -66v-34h-512z" />
    <glyph glyph-name="Ebreve.ss01" horiz-adv-x="1230" 
d="M1135 195v-195h-959v1434h952v-195h-733v-334h682v-194h-682v-516h740zM612 1505q-39 0 -67.5 4.5t-57 17t-46 38.5t-23.5 65h78q7 -30 37.5 -41.5t84.5 -11.5h76q54 0 84 11.5t37 41.5h80q-6 -39 -23.5 -65t-46 -38.5t-57.5 -17t-68 -4.5h-88z" />
    <glyph glyph-name="Edotaccent.ss01" horiz-adv-x="1230" 
d="M1135 195v-195h-959v1434h952v-195h-733v-334h682v-194h-682v-516h740zM657 1516q-32 0 -54.5 21.5t-22.5 51.5t22.5 52t54.5 22t54 -22t22 -52t-22 -51.5t-54 -21.5z" />
    <glyph glyph-name="Ecaron.ss01" horiz-adv-x="1230" 
d="M1135 195v-195h-959v1434h952v-195h-733v-334h682v-194h-682v-516h740zM911 1628v-47l-258 -86l-254 86v47l258 -37z" />
    <glyph glyph-name="Eogonek.ss01" horiz-adv-x="1230" 
d="M1135 195v-195h-959v1434h952v-195h-733v-334h682v-194h-682v-516h740zM1126 -240h-135q-75 0 -118.5 30t-43.5 91q0 71 61.5 111.5t178.5 62.5l66 -55q-102 0 -151.5 -27t-49.5 -67q0 -51 67 -51h125v-95z" />
    <glyph glyph-name="Emacron.ss01" horiz-adv-x="1230" 
d="M1135 195v-195h-959v1434h952v-195h-733v-334h682v-194h-682v-516h740zM416 1516v79h481v-79h-481z" />
    <glyph glyph-name="Gdotaccent.ss01" horiz-adv-x="1503" 
d="M1409 631q0 -199 -87.5 -349t-231 -226t-320.5 -76q-144 0 -268.5 54t-214.5 150t-141.5 235.5t-51.5 303.5q0 213 87 381t240.5 261t346.5 93q216 0 379 -100q166 -100 231 -307l-209 -66q-35 112 -140.5 190t-260.5 78q-199 0 -322.5 -151t-123.5 -379
q0 -236 124.5 -388.5t323.5 -152.5q159 0 271.5 86.5t138.5 229.5h-392v190h621v-57zM770 1516q-32 0 -55 22t-23 51q0 30 23 52t55 22t54 -22t22 -52t-22 -51.5t-54 -21.5z" />
    <glyph glyph-name="Gbreve.ss01" horiz-adv-x="1503" 
d="M1409 631q0 -199 -87.5 -349t-231 -226t-320.5 -76q-144 0 -268.5 54t-214.5 150t-141.5 235.5t-51.5 303.5q0 213 87 381t240.5 261t346.5 93q216 0 379 -100q166 -100 231 -307l-209 -66q-35 112 -140.5 190t-260.5 78q-199 0 -322.5 -151t-123.5 -379
q0 -236 124.5 -388.5t323.5 -152.5q159 0 271.5 86.5t138.5 229.5h-392v190h621v-57zM725 1505q-39 0 -68 4.5t-57.5 17t-46 38.5t-23.5 65h78q12 -53 123 -53h76q54 0 84 11.5t37 41.5h80q-6 -39 -23.5 -65t-46 -38.5t-57.5 -17t-68 -4.5h-88z" />
    <glyph glyph-name="Gcircumflex.ss01" horiz-adv-x="1503" 
d="M1409 631q0 -199 -87.5 -349t-231 -226t-320.5 -76q-144 0 -268.5 54t-214.5 150t-141.5 235.5t-51.5 303.5q0 213 87 381t240.5 261t346.5 93q216 0 379 -100q166 -100 231 -307l-209 -66q-35 112 -140.5 190t-260.5 78q-199 0 -322.5 -151t-123.5 -379
q0 -236 124.5 -388.5t323.5 -152.5q159 0 271.5 86.5t138.5 229.5h-392v190h621v-57zM514 1495v47l258 86l254 -86v-47l-258 37z" />
    <glyph glyph-name="Gcommaaccent.ss01" horiz-adv-x="1503" 
d="M1409 631q0 -199 -87.5 -349t-231 -226t-320.5 -76q-144 0 -268.5 54t-214.5 150t-141.5 235.5t-51.5 303.5q0 213 87 381t240.5 261t346.5 93q216 0 379 -100q166 -100 231 -307l-209 -66q-35 112 -140.5 190t-260.5 78q-199 0 -322.5 -151t-123.5 -379
q0 -236 124.5 -388.5t323.5 -152.5q159 0 271.5 86.5t138.5 229.5h-392v190h621v-57zM664 -252l47 156h125l-56 -156h-116z" />
    <glyph glyph-name="Hcircumflex.ss01" horiz-adv-x="1501" 
d="M1106 0v750h-711v-750h-219v1434h219v-490h711v490h219v-1434h-219zM494 1495v47l258 86l254 -86v-47l-258 37z" />
    <glyph glyph-name="Iacute.ss01" horiz-adv-x="571" 
d="M176 0v1434h219v-1434h-219zM31 1516v34l508 64h4v-98h-512z" />
    <glyph glyph-name="Idieresis.ss01" horiz-adv-x="571" 
d="M176 0v1434h219v-1434h-219zM63 1516v81h181v-81h-181zM328 1516v81h182v-81h-182z" />
    <glyph glyph-name="Icircumflex.ss01" horiz-adv-x="571" 
d="M176 0v1434h219v-1434h-219zM31 1495v47l258 86l254 -86v-47l-258 37z" />
    <glyph glyph-name="Igrave.ss01" horiz-adv-x="571" 
d="M176 0v1434h219v-1434h-219zM31 1516v100h4l508 -66v-34h-512z" />
    <glyph glyph-name="Ibreve.ss01" horiz-adv-x="571" 
d="M176 0v1434h219v-1434h-219zM242 1505q-39 0 -68 4.5t-57.5 17t-46 38.5t-23.5 65h78q12 -53 123 -53h76q54 0 83.5 11.5t36.5 41.5h80q-6 -39 -23.5 -65t-46 -38.5t-57 -17t-67.5 -4.5h-88z" />
    <glyph glyph-name="Itilde.ss01" horiz-adv-x="571" 
d="M176 0v1434h219v-1434h-219zM102 1479l-77 12q4 115 110 115q23 0 88 -9l189 -20q56 -3 59 47l80 -12q-4 -115 -111 -115q-33 0 -90 8l-186 19q-59 3 -62 -45z" />
    <glyph glyph-name="Idotaccent.ss01" horiz-adv-x="571" 
d="M176 0v1434h219v-1434h-219zM31 1516v34l508 64h4v-98h-512z" />
    <glyph glyph-name="Icaron.ss01" horiz-adv-x="571" 
d="M176 0v1434h219v-1434h-219zM541 1628v-47l-258 -86l-254 86v47l258 -37z" />
    <glyph glyph-name="Iogonek.ss01" horiz-adv-x="571" 
d="M176 0v1434h219v-1434h-219zM387 -240h-135q-75 0 -118.5 30t-43.5 91q0 71 61.5 111.5t178.5 62.5l65 -55q-102 0 -151 -26.5t-49 -67.5q0 -51 67 -51h125v-95z" />
    <glyph glyph-name="Imacron.ss01" horiz-adv-x="571" 
d="M176 0v1434h219v-1434h-219zM47 1516v79h481v-79h-481z" />
    <glyph glyph-name="Jcircumflex.ss01" horiz-adv-x="1064" 
d="M467 -18q-187 0 -305 104.5t-144 304.5l211 41q31 -248 242 -248q92 0 152.5 64.5t60.5 187.5v998h219v-998q0 -216 -120.5 -335t-315.5 -119zM539 1495v47l258 86l254 -86v-47l-258 37z" />
    <glyph glyph-name="Kcommaaccent.ss01" horiz-adv-x="1316" 
d="M1044 0l-462 807l-187 -178v-629h-219v1434h219v-549l582 549h293l-516 -478l549 -956h-259zM578 -252l47 156h125l-56 -156h-116z" />
    <glyph glyph-name="Lacute.ss01" horiz-adv-x="1091" 
d="M176 0v1434h219v-1239h654v-195h-873zM31 1516v34l508 64h4v-98h-512z" />
    <glyph glyph-name="Lcommaaccent.ss01" horiz-adv-x="1091" 
d="M176 0v1434h219v-1239h654v-195h-873zM518 -252l47 156h125l-55 -156h-117z" />
    <glyph glyph-name="Nacute.ss01" horiz-adv-x="1497" 
d="M1110 0l-719 1053v-1053h-215v1434h211l721 -1061v1061h213v-1434h-211zM494 1516v34l507 64h5v-98h-512z" />
    <glyph glyph-name="Ntilde.ss01" horiz-adv-x="1497" 
d="M1110 0l-719 1053v-1053h-215v1434h211l721 -1061v1061h213v-1434h-211zM565 1479l-78 12q4 115 111 115q24 0 88 -9l188 -20q57 -3 60 47l80 -12q-4 -115 -111 -115q-33 0 -90 8l-186 19q-59 3 -62 -45z" />
    <glyph glyph-name="Ncommaaccent.ss01" horiz-adv-x="1497" 
d="M1110 0l-719 1053v-1053h-215v1434h211l721 -1061v1061h213v-1434h-211zM643 -252l47 156h125l-55 -156h-117z" />
    <glyph glyph-name="Ncaron.ss01" horiz-adv-x="1497" 
d="M1110 0l-719 1053v-1053h-215v1434h211l721 -1061v1061h213v-1434h-211zM1004 1628v-47l-259 -86l-253 86v47l258 -37z" />
    <glyph glyph-name="Eng.ss01" horiz-adv-x="1497" 
d="M1108 1434h213v-1397q0 -153 -86 -221q-85 -70 -207 -70q-78 0 -145.5 31.5t-104.5 89.5l135 125q42 -64 103 -64q40 0 66 27t26 80v41l-717 985v-1061h-215v1434h211l721 -996v996z" />
    <glyph glyph-name="Oacute.ss01" horiz-adv-x="1546" 
d="M772 -20q-143 0 -267.5 53.5t-215.5 149t-143 235.5t-52 305q0 157 51.5 294t141 233.5t215.5 152t270 55.5q194 0 349.5 -93.5t243 -261.5t87.5 -380q0 -164 -53 -304t-144.5 -235.5t-216.5 -149.5t-266 -54zM772 184q200 0 326.5 153t126.5 386q0 146 -55.5 266
t-159.5 192t-238 72q-133 0 -236.5 -71t-158.5 -191.5t-55 -267.5q0 -152 56 -274.5t159.5 -193.5t234.5 -71zM518 1516v34l508 64h4v-98h-512z" />
    <glyph glyph-name="Ocircumflex.ss01" horiz-adv-x="1546" 
d="M772 -20q-143 0 -267.5 53.5t-215.5 149t-143 235.5t-52 305q0 157 51.5 294t141 233.5t215.5 152t270 55.5q194 0 349.5 -93.5t243 -261.5t87.5 -380q0 -164 -53 -304t-144.5 -235.5t-216.5 -149.5t-266 -54zM772 184q200 0 326.5 153t126.5 386q0 146 -55.5 266
t-159.5 192t-238 72q-133 0 -236.5 -71t-158.5 -191.5t-55 -267.5q0 -152 56 -274.5t159.5 -193.5t234.5 -71zM518 1495v47l258 86l254 -86v-47l-258 37z" />
    <glyph glyph-name="Odieresis.ss01" horiz-adv-x="1546" 
d="M772 -20q-143 0 -267.5 53.5t-215.5 149t-143 235.5t-52 305q0 157 51.5 294t141 233.5t215.5 152t270 55.5q194 0 349.5 -93.5t243 -261.5t87.5 -380q0 -164 -53 -304t-144.5 -235.5t-216.5 -149.5t-266 -54zM772 184q200 0 326.5 153t126.5 386q0 146 -55.5 266
t-159.5 192t-238 72q-133 0 -236.5 -71t-158.5 -191.5t-55 -267.5q0 -152 56 -274.5t159.5 -193.5t234.5 -71zM479 1516v79h238v-79h-238zM829 1516v79h238v-79h-238z" />
    <glyph glyph-name="Ohungarumlaut.ss01" horiz-adv-x="1546" 
d="M772 -20q-143 0 -267.5 53.5t-215.5 149t-143 235.5t-52 305q0 157 51.5 294t141 233.5t215.5 152t270 55.5q194 0 349.5 -93.5t243 -261.5t87.5 -380q0 -164 -53 -304t-144.5 -235.5t-216.5 -149.5t-266 -54zM772 184q200 0 326.5 153t126.5 386q0 146 -55.5 266
t-159.5 192t-238 72q-133 0 -236.5 -71t-158.5 -191.5t-55 -267.5q0 -152 56 -274.5t159.5 -193.5t234.5 -71zM457 1516v38l256 60h4v-98h-260zM827 1516v38l258 60h5v-98h-263z" />
    <glyph glyph-name="Ograve.ss01" horiz-adv-x="1546" 
d="M772 -20q-143 0 -267.5 53.5t-215.5 149t-143 235.5t-52 305q0 157 51.5 294t141 233.5t215.5 152t270 55.5q194 0 349.5 -93.5t243 -261.5t87.5 -380q0 -164 -53 -304t-144.5 -235.5t-216.5 -149.5t-266 -54zM772 184q200 0 326.5 153t126.5 386q0 146 -55.5 266
t-159.5 192t-238 72q-133 0 -236.5 -71t-158.5 -191.5t-55 -267.5q0 -152 56 -274.5t159.5 -193.5t234.5 -71zM518 1516v100h4l508 -66v-34h-512z" />
    <glyph glyph-name="Otilde.ss01" horiz-adv-x="1546" 
d="M772 -20q-143 0 -267.5 53.5t-215.5 149t-143 235.5t-52 305q0 157 51.5 294t141 233.5t215.5 152t270 55.5q194 0 349.5 -93.5t243 -261.5t87.5 -380q0 -164 -53 -304t-144.5 -235.5t-216.5 -149.5t-266 -54zM772 184q200 0 326.5 153t126.5 386q0 146 -55.5 266
t-159.5 192t-238 72q-133 0 -236.5 -71t-158.5 -191.5t-55 -267.5q0 -152 56 -274.5t159.5 -193.5t234.5 -71zM588 1479l-78 12q4 115 111 115q23 0 88 -9l188 -20q56 -3 59 47l80 -12q-4 -115 -110 -115q-33 0 -90 8l-187 19q-58 3 -61 -45z" />
    <glyph glyph-name="Omacron.ss01" horiz-adv-x="1546" 
d="M772 -20q-143 0 -267.5 53.5t-215.5 149t-143 235.5t-52 305q0 157 51.5 294t141 233.5t215.5 152t270 55.5q194 0 349.5 -93.5t243 -261.5t87.5 -380q0 -164 -53 -304t-144.5 -235.5t-216.5 -149.5t-266 -54zM772 184q200 0 326.5 153t126.5 386q0 146 -55.5 266
t-159.5 192t-238 72q-133 0 -236.5 -71t-158.5 -191.5t-55 -267.5q0 -152 56 -274.5t159.5 -193.5t234.5 -71zM532 1516v79h482v-79h-482z" />
    <glyph glyph-name="Obreve.ss01" horiz-adv-x="1546" 
d="M772 -20q-143 0 -267.5 53.5t-215.5 149t-143 235.5t-52 305q0 157 51.5 294t141 233.5t215.5 152t270 55.5q194 0 349.5 -93.5t243 -261.5t87.5 -380q0 -164 -53 -304t-144.5 -235.5t-216.5 -149.5t-266 -54zM772 184q200 0 326.5 153t126.5 386q0 146 -55.5 266
t-159.5 192t-238 72q-133 0 -236.5 -71t-158.5 -191.5t-55 -267.5q0 -152 56 -274.5t159.5 -193.5t234.5 -71zM729 1505q-39 0 -67.5 4.5t-57 17t-46 38.5t-23.5 65h77q12 -53 123 -53h76q54 0 84 11.5t37 41.5h80q-6 -39 -23.5 -65t-46 -38.5t-57.5 -17t-68 -4.5h-88z" />
    <glyph glyph-name="Oslashacute.ss01" horiz-adv-x="1546" 
d="M772 -20q-184 0 -332 83l-108 -165h-195l174 264q-102 99 -159.5 243t-57.5 318q0 157 51.5 294t141 233.5t215.5 152t270 55.5q183 0 336 -86l106 164h195l-172 -262q102 -100 158.5 -242t56.5 -309q0 -164 -53 -304t-144.5 -235.5t-216.5 -149.5t-266 -54zM322 723
q0 -219 114 -371l553 842q-89 59 -217 59q-133 0 -236.5 -71t-158.5 -191.5t-55 -267.5zM1225 723q0 216 -113 360l-553 -841q98 -58 213 -58q200 0 326.5 153t126.5 386zM496 1516v34l508 64h4v-98h-512z" />
    </font>
</defs>
</svg>
